STARTFONT 2.1
COMMENT
COMMENT Converted from OpenType font "SourceSansPro-Regular.otf" by "otf2bdf 3.0".
COMMENT
FONT -FreeType-Source Sans Pro-Medium-R-Normal--77-560-100-100-P-350-ISO10646-1
SIZE 56 100 100
FONTBOUNDINGBOX 203 97 -35 -21
STARTPROPERTIES 19
FOUNDRY "FreeType"
FAMILY_NAME "Source Sans Pro"
WEIGHT_NAME "Medium"
SLANT "R"
SETWIDTH_NAME "Normal"
ADD_STYLE_NAME ""
PIXEL_SIZE 77
POINT_SIZE 560
RESOLUTION_X 100
RESOLUTION_Y 100
SPACING "P"
AVERAGE_WIDTH 350
CHARSET_REGISTRY "ISO10646"
CHARSET_ENCODING "1"
FONT_ASCENT 76
FONT_DESCENT 21
COPYRIGHT "Copyright 2010, 2012, 2014 Adobe Systems Incorporated (http://www.adobe.com/), with Reserved Font Name Source."
_OTF_FONTFILE "SourceSansPro-Regular.otf"
_OTF_PSNAME "SourceSansPro-Regular"
ENDPROPERTIES
CHARS 1296
STARTCHAR 0020
ENCODING 32
SWIDTH 205 0
DWIDTH 16 0
BBX 0 0 0 0
BITMAP
ENDCHAR
STARTCHAR 0021
ENCODING 33
SWIDTH 282 0
DWIDTH 22 0
BBX 9 53 7 -1
BITMAP
7E00
7E00
7E00
7E00
7E00
7E00
7E00
7E00
7E00
7E00
7E00
7E00
7E00
7E00
7E00
7E00
7E00
7E00
7E00
7E00
3E00
3E00
3E00
3E00
3E00
3E00
3E00
3E00
3E00
3E00
3E00
3E00
3E00
3E00
3E00
3C00
3C00
0000
0000
0000
0000
0000
0000
1C00
7E00
FF00
FF80
FF80
FF80
FF80
FF00
7F00
3C00
ENDCHAR
STARTCHAR 0022
ENCODING 34
SWIDTH 424 0
DWIDTH 33 0
BBX 21 20 6 34
BITMAP
FE03F8
FE03F8
FE03F8
FE03F8
FE03F8
FE03F8
FE03F8
FE03F8
7E03F0
7E03F0
7E01F0
7C01F0
7C01F0
7C01F0
7C01F0
7C01F0
7C01F0
7C01F0
3C01F0
3C01E0
ENDCHAR
STARTCHAR 0023
ENCODING 35
SWIDTH 501 0
DWIDTH 39 0
BBX 33 51 3 0
BITMAP
003C007800
003C007800
003C00F800
003C00F000
003C00F000
003C00F000
007C00F000
007800F000
007800F000
007800F000
007801F000
007801E000
007801E000
007801E000
7FF801E000
7FFFFFFF80
7FFFFFFF80
7FFFFFFF80
7FFFFFFF80
00F003C000
00F003C000
00F003C000
01F003C000
01F003C000
01E003C000
01E003C000
01E007C000
01E007C000
01E0078000
01E0078000
03E0078000
FFFFFFFF00
FFFFFFFF00
FFFFFFFF00
FFFFFFFF00
03C00F8000
03C00F0000
03C00F0000
03C00F0000
07C00F0000
07800F0000
07800F0000
07800F0000
07801F0000
07801E0000
07801E0000
07801E0000
0F801E0000
0F001E0000
0F001E0000
0F001E0000
ENDCHAR
STARTCHAR 0024
ENCODING 36
SWIDTH 501 0
DWIDTH 39 0
BBX 30 68 4 -9
BITMAP
0007C000
0007C000
0007C000
0007C000
0007C000
0007C000
0007C000
0007C000
001FF800
007FFE00
01FFFF80
03FFFFC0
07FFFFF0
0FFC3FF8
0FF007F0
1FC001F0
1F8000E0
3F800040
3F800000
3F000000
3F000000
3F000000
3F000000
3F800000
3F800000
1FC00000
1FE00000
0FF00000
0FFC0000
07FE0000
03FF8000
01FFE000
007FF800
003FFE00
000FFF00
0003FFC0
0000FFC0
00003FE0
00001FF0
00000FF8
000007F8
000003F8
000001FC
000001FC
000001FC
000000FC
000000FC
000000FC
000000FC
000001FC
300001F8
3C0003F8
7E0003F8
FF800FF0
7FF83FE0
3FFFFFE0
1FFFFFC0
07FFFF00
01FFFE00
003FF000
0007C000
0007C000
0007C000
0007C000
0007C000
0007C000
0007C000
0007C000
ENDCHAR
STARTCHAR 0025
ENCODING 37
SWIDTH 822 0
DWIDTH 64 0
BBX 58 53 3 -1
BITMAP
00FE000000780000
03FF800000F80000
0FFFC00000F00000
0FFFE00001E00000
1F83F00001E00000
3F01F80003C00000
3E00F80007C00000
7C00FC0007800000
7C007C000F800000
78007C000F000000
F8007C001F000000
F8003E001E000000
F8003E003E000000
F8003E003C000000
F8003E007C000000
F8003E0078000000
F8003E00F8000000
F8003E00F0000000
F8003E01E0000000
F8003E01E0000000
F8003E03C0000000
F8003C03C00FC000
F8007C07807FF800
7C007C0F80FFFC00
7C007C0F01FFFE00
7E00F81F03F07F00
3E01F81E03E01F00
1F83F03E07C00F80
1FFFE03C07C00F80
0FFFC07C0F8007C0
03FF80780F8007C0
00FE00F80F8007C0
000000F00F0007C0
000001F01F0007C0
000001E01F0007C0
000003C01F0003C0
000003C01F0003C0
000007801F0003C0
00000F801F0003C0
00000F001F0007C0
00001F001F0007C0
00001E000F8007C0
00003E000F8007C0
00003C000F8007C0
00007C000F800F80
0000780007C00F80
0000F80007C01F80
0000F00003E01F00
0001F00003F87E00
0001E00001FFFE00
0003C00000FFFC00
0003C000007FF000
00078000001FC000
ENDCHAR
STARTCHAR 0026
ENCODING 38
SWIDTH 604 0
DWIDTH 47 0
BBX 43 53 3 -1
BITMAP
0001FC000000
000FFF000000
001FFF800000
007FFFC00000
007FFFE00000
00FE07E00000
01FC03F00000
01F803F00000
01F001F00000
03F001F00000
03F001F00000
03F001F00000
03F003F00000
03F003F00000
03F003E00000
01F007E00000
01F00FC00000
01F81F800000
01F83F800000
00FCFF000000
00FDFE000000
00FFF8000000
007FF0000000
007FE0000000
007FC00007E0
00FF80000FC0
03FF80000FC0
07FFC0000FC0
0FFFE0001F80
1FE7F0001F80
3FC7F0001F00
3F83F8003F00
7F01FC003F00
7E00FE007E00
FE00FF007E00
FC007F80FC00
FC003FC0FC00
FC001FE1F800
FC000FF3F800
FC0007FBF000
FC0003FFE000
FC0001FFE000
FE0000FFC000
FE00007FE000
7F00007FF000
7F8001FFFC00
3FC007FFFF00
3FF81FFBFFE0
1FFFFFF0FFE0
0FFFFFE07FE0
03FFFF801FC0
00FFFE0007C0
003FF00000C0
ENDCHAR
STARTCHAR 0027
ENCODING 39
SWIDTH 244 0
DWIDTH 19 0
BBX 7 20 6 34
BITMAP
FE
FE
FE
FE
FE
FE
FE
FE
7E
7E
7E
7C
7C
7C
7C
7C
7C
7C
3C
3C
ENDCHAR
STARTCHAR 0028
ENCODING 40
SWIDTH 308 0
DWIDTH 24 0
BBX 15 70 6 -14
BITMAP
0030
003C
007C
007C
00F8
00F8
01F0
01F0
03E0
03E0
07C0
07C0
0FC0
0F80
0F80
1F80
1F00
1F00
1F00
3F00
3E00
3E00
3E00
7E00
7E00
7C00
7C00
7C00
7C00
7C00
7C00
7C00
FC00
FC00
FC00
FC00
FC00
FC00
FC00
7C00
7C00
7C00
7C00
7C00
7C00
7C00
7E00
7E00
3E00
3E00
3E00
3F00
1F00
1F00
1F00
0F80
0F80
0F80
07C0
07C0
07E0
03E0
03E0
01F0
01F0
00F8
00F8
007C
007E
0038
ENDCHAR
STARTCHAR 0029
ENCODING 41
SWIDTH 308 0
DWIDTH 24 0
BBX 14 70 3 -14
BITMAP
1000
7800
F800
7C00
7E00
3E00
3F00
1F00
1F80
0F80
0F80
07C0
07C0
07E0
03E0
03E0
03F0
01F0
01F0
01F0
01F8
00F8
00F8
00F8
00F8
00FC
00FC
00FC
007C
007C
007C
007C
007C
007C
007C
007C
007C
007C
007C
007C
007C
007C
007C
00FC
00FC
00F8
00F8
00F8
00F8
01F8
01F8
01F0
01F0
01F0
03E0
03E0
03E0
07C0
07C0
07C0
0F80
0F80
1F00
1F00
3E00
3E00
7C00
7C00
F800
3800
ENDCHAR
STARTCHAR 002A
ENCODING 42
SWIDTH 424 0
DWIDTH 33 0
BBX 23 23 5 32
BITMAP
007800
007800
007800
007800
007C00
007C00
007C00
F87C7C
FFFFFE
FFFFFE
7FFFFC
1FFFE0
07FF80
01FF00
03FF00
03FF80
07EF80
0FCFC0
0F87E0
1F03E0
1F01F0
0E00C0
040000
ENDCHAR
STARTCHAR 002B
ENCODING 43
SWIDTH 501 0
DWIDTH 39 0
BBX 33 35 3 8
BITMAP
0003E00000
0003E00000
0003E00000
0003E00000
0003E00000
0003E00000
0003E00000
0003E00000
0003E00000
0003E00000
0003E00000
0003E00000
0003E00000
0003E00000
0003E00000
FFFFFFFF80
FFFFFFFF80
FFFFFFFF80
FFFFFFFF80
FFFFFFFF80
0003E00000
0003E00000
0003E00000
0003E00000
0003E00000
0003E00000
0003E00000
0003E00000
0003E00000
0003E00000
0003E00000
0003E00000
0003E00000
0003E00000
0003E00000
ENDCHAR
STARTCHAR 002C
ENCODING 44
SWIDTH 244 0
DWIDTH 19 0
BBX 11 22 4 -13
BITMAP
0F00
1FC0
3FC0
7FE0
7FE0
7FE0
3FE0
3FE0
0FE0
01E0
01E0
03E0
03E0
03C0
07C0
0F80
1F80
7F00
FE00
FC00
F000
6000
ENDCHAR
STARTCHAR 002D
ENCODING 45
SWIDTH 308 0
DWIDTH 24 0
BBX 18 5 3 17
BITMAP
FFFFC0
FFFFC0
FFFFC0
FFFFC0
FFFFC0
ENDCHAR
STARTCHAR 002E
ENCODING 46
SWIDTH 244 0
DWIDTH 19 0
BBX 9 10 5 -1
BITMAP
1C00
3F00
7F80
FF80
FF80
FF80
FF80
7F80
7F00
1E00
ENDCHAR
STARTCHAR 002F
ENCODING 47
SWIDTH 347 0
DWIDTH 27 0
BBX 25 68 1 -13
BITMAP
00000F80
00000F80
00000F00
00001F00
00001F00
00001F00
00001E00
00003E00
00003E00
00003C00
00007C00
00007C00
00007800
0000F800
0000F800
0000F000
0001F000
0001F000
0001F000
0001E000
0003E000
0003E000
0003C000
0007C000
0007C000
00078000
000F8000
000F8000
000F0000
001F0000
001F0000
001F0000
001E0000
003E0000
003E0000
003C0000
007C0000
007C0000
00780000
00F80000
00F80000
00F00000
01F00000
01F00000
01F00000
01E00000
03E00000
03E00000
03C00000
07C00000
07C00000
07800000
0F800000
0F800000
0F000000
1F000000
1F000000
1F000000
1E000000
3E000000
3E000000
3C000000
7C000000
7C000000
78000000
F8000000
F8000000
F0000000
ENDCHAR
STARTCHAR 0030
ENCODING 48
SWIDTH 501 0
DWIDTH 39 0
BBX 32 52 3 -1
BITMAP
0007F000
003FFE00
00FFFF00
01FFFFC0
03FFFFE0
07FC1FE0
07F007F0
0FE003F8
0FC003F8
1FC001FC
1F8000FC
3F8000FC
3F0000FE
3F00007E
3F00007E
7F00007E
7E00007F
7E00007F
7E00003F
7E00003F
7E00003F
7E00003F
7E00003F
FE00003F
FE00003F
FE00003F
FE00003F
FE00003F
FE00003F
7E00003F
7E00003F
7E00003F
7E00003F
7E00003F
7E00007F
7E00007E
7F00007E
3F00007E
3F00007E
3F0000FE
3F8000FC
1F8000FC
1FC001F8
0FC003F8
0FE003F0
07F007F0
07FC1FE0
03FFFFC0
01FFFF80
00FFFF00
003FFE00
0007F000
ENDCHAR
STARTCHAR 0031
ENCODING 49
SWIDTH 501 0
DWIDTH 39 0
BBX 28 50 6 0
BITMAP
000FC000
003FC000
01FFC000
1FFFC000
3FFFC000
3FFFC000
3FFFC000
3FFFC000
001FC000
001FC000
001FC000
001FC000
001FC000
001FC000
001FC000
001FC000
001FC000
001FC000
001FC000
001FC000
001FC000
001FC000
001FC000
001FC000
001FC000
001FC000
001FC000
001FC000
001FC000
001FC000
001FC000
001FC000
001FC000
001FC000
001FC000
001FC000
001FC000
001FC000
001FC000
001FC000
001FC000
001FC000
001FC000
001FC000
001FC000
FFFFFFF0
FFFFFFF0
FFFFFFF0
FFFFFFF0
FFFFFFF0
ENDCHAR
STARTCHAR 0032
ENCODING 50
SWIDTH 501 0
DWIDTH 39 0
BBX 32 51 3 0
BITMAP
001FE000
00FFFC00
03FFFF00
0FFFFF80
1FFFFFC0
3FF07FE0
7F801FF0
FE0007F0
7C0007F8
380003F8
100001F8
000001F8
000001FC
000001FC
000001FC
000001FC
000001FC
000001F8
000001F8
000001F8
000003F8
000003F0
000007F0
000007E0
00000FE0
00000FC0
00001FC0
00003F80
00007F00
00007F00
0000FE00
0001FC00
0003F800
0007F800
000FF000
000FE000
001FC000
003F8000
007F0000
00FE0000
01FE0000
03FC0000
07F80000
0FF00000
1FE00000
3FC07FFF
7FFFFFFF
FFFFFFFF
FFFFFFFF
FFFFFFFF
FFFFFFFF
ENDCHAR
STARTCHAR 0033
ENCODING 51
SWIDTH 501 0
DWIDTH 39 0
BBX 33 52 2 -1
BITMAP
000FF80000
007FFF0000
01FFFFC000
07FFFFE000
0FFFFFF000
1FFC3FF800
3FE007F800
1F8003FC00
0E0001FC00
0C0000FE00
000000FE00
000000FE00
000000FE00
000000FE00
000000FE00
000000FE00
000000FE00
000000FC00
000001FC00
000003F800
000007F800
00001FF000
0000FFE000
003FFF8000
003FFE0000
003FFC0000
003FFF8000
003FFFE000
00007FF000
000007F800
000001FC00
000000FE00
0000007F00
0000007F00
0000003F00
0000003F00
0000003F80
0000003F80
0000003F80
0000003F80
0000003F00
1000007F00
3800007F00
7C0000FF00
FF0001FE00
FFC003FC00
7FF83FFC00
1FFFFFF800
0FFFFFF000
03FFFFC000
00FFFF0000
001FF80000
ENDCHAR
STARTCHAR 0034
ENCODING 52
SWIDTH 501 0
DWIDTH 39 0
BBX 35 50 1 0
BITMAP
000007F800
000007F800
00000FF800
00001FF800
00001FF800
00003FF800
00007FF800
00007DF800
0000FDF800
0001F9F800
0001F9F800
0003F1F800
0007F1F800
0007E1F800
000FC1F800
001FC1F800
001F81F800
003F01F800
007F01F800
007E01F800
00FC01F800
01FC01F800
01F801F800
03F001F800
07E001F800
07E001F800
0FC001F800
1F8001F800
1F8001F800
3F0001F800
7E0001F800
7FFFFFFFE0
FFFFFFFFE0
FFFFFFFFE0
FFFFFFFFE0
FFFFFFFFE0
000001F800
000001F800
000001F800
000001F800
000001F800
000001F800
000001F800
000001F800
000001F800
000001F800
000001F800
000001F800
000001F800
000001F800
ENDCHAR
STARTCHAR 0035
ENCODING 53
SWIDTH 501 0
DWIDTH 39 0
BBX 33 51 2 -1
BITMAP
03FFFFFC00
03FFFFFC00
07FFFFFC00
07FFFFFC00
07FFFFFC00
07FFFFFC00
07E0000000
07E0000000
07E0000000
07E0000000
07E0000000
07E0000000
07E0000000
07C0000000
07C0000000
07C0000000
0FC0000000
0FC0000000
0FC1F80000
0FDFFF8000
0FFFFFE000
0FFFFFF000
0FFFFFF800
0FF01FFC00
07C003FE00
030001FE00
000000FF00
0000007F00
0000007F00
0000003F80
0000003F80
0000003F80
0000003F80
0000003F80
0000003F80
0000003F80
0000003F80
0000003F80
0000003F00
0000007F00
1000007F00
380000FE00
7C0001FE00
FF0003FC00
FFC007FC00
7FF83FF800
3FFFFFF000
0FFFFFE000
03FFFF8000
00FFFE0000
001FF00000
ENDCHAR
STARTCHAR 0036
ENCODING 54
SWIDTH 501 0
DWIDTH 39 0
BBX 32 52 4 -1
BITMAP
0001FE00
000FFFC0
003FFFE0
00FFFFF8
01FFFFFC
03FFCFFC
07FC01FC
07F00078
0FE00030
1FC00000
1FC00000
1F800000
3F000000
3F000000
7F000000
7E000000
7E000000
7E000000
7E000000
FC000000
FC01F800
FC0FFF00
FC3FFFC0
FC7FFFE0
FCFFFFF0
FDF80FF8
FFE003FC
FFC001FC
FF8000FC
FF0000FE
FE00007E
FC00007E
FC00007E
FC00007E
FC00007F
FC00007F
7E00007F
7E00007E
7E00007E
7F00007E
3F00007E
3F0000FE
1F8000FC
1FC001FC
0FE001F8
0FF007F8
07FC0FF0
03FFFFE0
01FFFFC0
00FFFF80
003FFE00
0007F000
ENDCHAR
STARTCHAR 0037
ENCODING 55
SWIDTH 501 0
DWIDTH 39 0
BBX 32 50 3 0
BITMAP
FFFFFFFF
FFFFFFFF
FFFFFFFF
FFFFFFFF
FFFFFFFF
FFFFFFFE
0000007E
000000FC
000001F8
000001F0
000003F0
000007E0
000007E0
00000FC0
00000F80
00001F80
00001F00
00003F00
00003E00
00007E00
00007E00
0000FC00
0000FC00
0001F800
0001F800
0001F800
0003F000
0003F000
0003F000
0003F000
0007F000
0007E000
0007E000
0007E000
000FE000
000FE000
000FC000
000FC000
000FC000
000FC000
000FC000
001FC000
001FC000
001FC000
001FC000
001FC000
001FC000
001FC000
001F8000
001F8000
ENDCHAR
STARTCHAR 0038
ENCODING 56
SWIDTH 501 0
DWIDTH 39 0
BBX 32 52 3 -1
BITMAP
0007F800
003FFF00
00FFFF80
01FFFFE0
03FFFFF0
07F80FF0
0FE003F8
0FC001FC
1FC000FC
1F8000FC
1F80007C
1F80007E
1F80007E
1F80007E
1F80007E
1F80007C
1F80007C
0FC000FC
0FE000F8
07F000F8
07F801F0
03FE03F0
01FF87E0
00FFEFC0
003FFF80
00FFFF00
01FFFF80
03F1FFE0
0FE07FF0
0FC01FF8
1F8007FC
3F0001FC
3E0000FE
7E00007F
7C00007F
7C00003F
FC00003F
FC00003F
FC00003F
FC00003F
FC00003F
7E00003F
7E00007F
7F00007E
3F8000FE
3FC001FC
1FF007FC
0FFFFFF8
07FFFFF0
01FFFFC0
007FFF00
000FF800
ENDCHAR
STARTCHAR 0039
ENCODING 57
SWIDTH 501 0
DWIDTH 39 0
BBX 32 52 3 -1
BITMAP
001FE000
00FFFC00
01FFFE00
03FFFF80
0FFFFFC0
0FF03FE0
1FC00FE0
3F8007F0
3F0003F8
7F0001F8
7E0001FC
7E0000FC
FE0000FC
FC0000FE
FC00007E
FC00007E
FC00007E
FC00007E
FC00003F
FC00003F
FE00003F
7E00007F
7E0000FF
7F0001FF
3F8003FF
3FC00FFF
1FF03FBF
0FFFFF3F
0FFFFE3F
03FFF83F
01FFF03F
001F007E
0000007E
0000007E
0000007E
0000007E
000000FC
000000FC
000000FC
000001FC
000001F8
000003F8
000003F0
080007F0
1C000FE0
3F003FC0
7FE1FF80
3FFFFF00
1FFFFE00
0FFFFC00
03FFF000
007F8000
ENDCHAR
STARTCHAR 003A
ENCODING 58
SWIDTH 244 0
DWIDTH 19 0
BBX 9 38 5 -1
BITMAP
1C00
3F00
7F80
FF80
FF80
FF80
FF80
7F80
7F00
1E00
0000
0000
0000
0000
0000
0000
0000
0000
0000
0000
0000
0000
0000
0000
0000
0000
0000
0000
1C00
3F00
7F80
FF80
FF80
FF80
FF80
7F80
7F00
1E00
ENDCHAR
STARTCHAR 003B
ENCODING 59
SWIDTH 244 0
DWIDTH 19 0
BBX 11 50 4 -13
BITMAP
0F00
3F80
3FC0
7FC0
7FC0
7FC0
7FC0
3FC0
3F80
0E00
0000
0000
0000
0000
0000
0000
0000
0000
0000
0000
0000
0000
0000
0000
0000
0000
0000
0000
0F00
1FC0
3FC0
7FE0
7FE0
7FE0
3FE0
3FE0
0FE0
01E0
01E0
03E0
03E0
03C0
07C0
0F80
1F80
7F00
FE00
FC00
F000
6000
ENDCHAR
STARTCHAR 003C
ENCODING 60
SWIDTH 501 0
DWIDTH 39 0
BBX 33 31 3 10
BITMAP
0000000180
0000000780
0000003F80
000001FF80
000007FF80
00003FFF00
0000FFFC00
0007FFE000
001FFF0000
00FFFC0000
03FFE00000
1FFF000000
FFF8000000
FFE0000000
FF00000000
FC00000000
FF80000000
FFE0000000
7FFC000000
0FFF800000
03FFF00000
007FFC0000
001FFF8000
0003FFF000
0000FFFC00
00001FFF80
000007FF80
000000FF80
0000001F80
0000000780
0000000080
ENDCHAR
STARTCHAR 003D
ENCODING 61
SWIDTH 501 0
DWIDTH 39 0
BBX 33 21 3 15
BITMAP
FFFFFFFF80
FFFFFFFF80
FFFFFFFF80
FFFFFFFF80
FFFFFFFF80
0000000000
0000000000
0000000000
0000000000
0000000000
0000000000
0000000000
0000000000
0000000000
0000000000
0000000000
FFFFFFFF80
FFFFFFFF80
FFFFFFFF80
FFFFFFFF80
FFFFFFFF80
ENDCHAR
STARTCHAR 003E
ENCODING 62
SWIDTH 501 0
DWIDTH 39 0
BBX 33 31 3 10
BITMAP
C000000000
F000000000
FE00000000
FF80000000
FFF0000000
FFFC000000
1FFF800000
03FFE00000
00FFFC0000
001FFF8000
0003FFE000
0000FFFC00
00001FFF00
000003FF80
0000007F80
0000003F80
000000FF80
000007FF80
00001FFF00
0000FFF800
0007FFC000
003FFF0000
00FFF80000
07FFE00000
3FFF000000
FFFC000000
FFE0000000
FF80000000
FC00000000
E000000000
8000000000
ENDCHAR
STARTCHAR 003F
ENCODING 63
SWIDTH 424 0
DWIDTH 33 0
BBX 26 54 3 -1
BITMAP
007FC000
01FFF000
07FFFC00
1FFFFE00
3FFFFF00
7FE3FF80
FF007F80
7C003FC0
38001FC0
10001FC0
00000FC0
00000FC0
00000FC0
00000FC0
00000FC0
00000FC0
00001FC0
00001F80
00003F80
00003F00
00007F00
0000FE00
0001FC00
0003F800
0003F000
0007F000
000FE000
000FC000
001F8000
001F8000
003F0000
003F0000
003F0000
007E0000
007E0000
007E0000
007E0000
007E0000
00000000
00000000
00000000
00000000
00000000
00000000
001C0000
007F0000
007F0000
00FF8000
00FF8000
00FF8000
00FF8000
00FF8000
007F0000
003C0000
ENDCHAR
STARTCHAR 0040
ENCODING 64
SWIDTH 848 0
DWIDTH 66 0
BBX 58 63 4 -12
BITMAP
0000001FFC000000
000001FFFFC00000
00000FFFFFF80000
00003FFFFFFC0000
0000FFF83FFF0000
0003FF0000FF8000
0007FC00003FC000
000FF000000FE000
001FC0000003F000
003F00000001F800
007E00000000FC00
00FC000000007C00
01F8000000007E00
03F0000000003E00
03E0000000001F00
07E0000000001F00
07C0000000000F80
0F80001F80000F80
0F80007FE7C00F80
1F0001FFF7800780
1F0003FFF7800780
3E0007FDFF8007C0
3E000FE07F8007C0
3C001F803F8007C0
7C003F001F0007C0
7C003E001F0007C0
7C007E001F0007C0
78007C001F0007C0
F8007C001F0007C0
F800F8001F0007C0
F800F8003E0007C0
F800F8003E000780
F800F8003E000780
F801F8003E000F80
F801F8003E000F80
F801F8007C000F00
F801F8007C001F00
F800F8007C001F00
F800F800FC003E00
F800FC01FC007C00
F800FC03FE00FC00
78007F0FFF01F800
7C007FFF9FCFF000
7C003FFF1FFFE000
7C001FFC0FFFC000
3E0007F007FF0000
3E00000001FC0000
3F00000000000000
1F00000000000000
1F80000000000000
0FC0000000000000
0FC0000000000000
07E0000000000000
03F8000000000000
01FC000000000000
00FE000000800000
007F800003800000
003FF0001F800000
001FFF81FFC00000
0007FFFFFF800000
0001FFFFFE000000
00007FFFF8000000
000007FF80000000
ENDCHAR
STARTCHAR 0041
ENCODING 65
SWIDTH 540 0
DWIDTH 42 0
BBX 42 51 0 0
BITMAP
00007F800000
00007F800000
00007FC00000
0000FFC00000
0000FFC00000
0000FFE00000
0001FFE00000
0001F3E00000
0001F3F00000
0003F3F00000
0003E1F00000
0003E1F80000
0007E1F80000
0007E0F80000
0007C0FC0000
000FC0FC0000
000FC0FC0000
000F807E0000
001F807E0000
001F807E0000
001F003F0000
003F003F0000
003F003F0000
003E001F8000
007E001F8000
007E001F8000
007C000FC000
00FC000FC000
00FC000FC000
01FC0007E000
01FFFFFFE000
01FFFFFFE000
03FFFFFFF000
03FFFFFFF000
03FFFFFFF000
07F00003F800
07E00001F800
07E00001FC00
0FE00001FC00
0FC00000FC00
0FC00000FE00
1FC00000FE00
1F8000007E00
1F8000007F00
3F8000007F00
3F8000007F00
3F0000003F80
7F0000003F80
7F0000003F80
7E0000001FC0
FE0000001FC0
ENDCHAR
STARTCHAR 0042
ENCODING 66
SWIDTH 591 0
DWIDTH 46 0
BBX 36 51 7 0
BITMAP
FFFFF80000
FFFFFF8000
FFFFFFE000
FFFFFFF800
FFFFFFFC00
FC003FFE00
FC0003FE00
FC0000FF00
FC00007F00
FC00007F00
FC00003F80
FC00003F80
FC00003F80
FC00003F80
FC00003F80
FC00003F00
FC00003F00
FC00007F00
FC00007E00
FC0000FE00
FC0003FC00
FC001FF800
FFFFFFF000
FFFFFFC000
FFFFFFE000
FFFFFFF800
FFFFFFFE00
FC0007FF00
FC0000FF80
FC00003FC0
FC00001FC0
FC00000FE0
FC000007E0
FC000007E0
FC000007F0
FC000007F0
FC000007F0
FC000007F0
FC000007E0
FC000007E0
FC00000FE0
FC00000FE0
FC00001FC0
FC00003FC0
FC0000FF80
FC000FFF00
FFFFFFFE00
FFFFFFFC00
FFFFFFF000
FFFFFFC000
FFFFFC0000
ENDCHAR
STARTCHAR 0043
ENCODING 67
SWIDTH 565 0
DWIDTH 44 0
BBX 38 53 4 -1
BITMAP
00003FE000
0001FFFC00
000FFFFF00
001FFFFFC0
007FFFFFE0
00FFFFFFF0
01FFC01FF8
03FE0007F0
07FC0001E0
07F80000C0
0FF0000000
0FE0000000
1FC0000000
1FC0000000
3F80000000
3F80000000
7F00000000
7F00000000
7F00000000
7E00000000
7E00000000
FE00000000
FE00000000
FE00000000
FE00000000
FE00000000
FE00000000
FE00000000
FE00000000
FE00000000
FE00000000
FE00000000
FE00000000
7F00000000
7F00000000
7F00000000
7F00000000
3F80000000
3F80000000
3FC0000000
1FC0000000
1FE0000000
0FF0000060
0FF80000F0
07FC0001F8
03FE0003FC
01FFC00FF8
00FFFFFFF0
007FFFFFE0
003FFFFFC0
000FFFFF00
0003FFFC00
00007FE000
ENDCHAR
STARTCHAR 0044
ENCODING 68
SWIDTH 617 0
DWIDTH 48 0
BBX 37 51 7 0
BITMAP
FFFFE00000
FFFFFE0000
FFFFFF8000
FFFFFFE000
FFFFFFF000
FC01FFFC00
FC000FFE00
FC0003FF00
FC0001FF00
FC00007F80
FC00003FC0
FC00003FC0
FC00001FE0
FC00000FE0
FC00000FE0
FC000007F0
FC000007F0
FC000007F0
FC000003F0
FC000003F0
FC000003F8
FC000003F8
FC000003F8
FC000003F8
FC000003F8
FC000003F8
FC000003F8
FC000003F8
FC000003F8
FC000003F8
FC000003F8
FC000003F0
FC000007F0
FC000007F0
FC000007F0
FC000007F0
FC00000FE0
FC00000FE0
FC00001FC0
FC00003FC0
FC00003F80
FC00007F80
FC0001FF00
FC0003FE00
FC000FFC00
FC01FFF800
FFFFFFF000
FFFFFFE000
FFFFFF8000
FFFFFE0000
FFFFE00000
ENDCHAR
STARTCHAR 0045
ENCODING 69
SWIDTH 527 0
DWIDTH 41 0
BBX 30 51 7 0
BITMAP
FFFFFFF8
FFFFFFF8
FFFFFFF8
FFFFFFF8
FFFFFFF8
FC000000
FC000000
FC000000
FC000000
FC000000
FC000000
FC000000
FC000000
FC000000
FC000000
FC000000
FC000000
FC000000
FC000000
FC000000
FC000000
FFFFFFC0
FFFFFFC0
FFFFFFC0
FFFFFFC0
FFFFFFC0
FFFFFFC0
FC000000
FC000000
FC000000
FC000000
FC000000
FC000000
FC000000
FC000000
FC000000
FC000000
FC000000
FC000000
FC000000
FC000000
FC000000
FC000000
FC000000
FC000000
FFFFFFFC
FFFFFFFC
FFFFFFFC
FFFFFFFC
FFFFFFFC
FFFFFFFC
ENDCHAR
STARTCHAR 0046
ENCODING 70
SWIDTH 488 0
DWIDTH 38 0
BBX 29 51 7 0
BITMAP
FFFFFFF8
FFFFFFF8
FFFFFFF8
FFFFFFF8
FFFFFFF8
FC000000
FC000000
FC000000
FC000000
FC000000
FC000000
FC000000
FC000000
FC000000
FC000000
FC000000
FC000000
FC000000
FC000000
FC000000
FC000000
FC000000
FC000000
FFFFFFC0
FFFFFFC0
FFFFFFC0
FFFFFFC0
FFFFFFC0
FC000000
FC000000
FC000000
FC000000
FC000000
FC000000
FC000000
FC000000
FC000000
FC000000
FC000000
FC000000
FC000000
FC000000
FC000000
FC000000
FC000000
FC000000
FC000000
FC000000
FC000000
FC000000
FC000000
ENDCHAR
STARTCHAR 0047
ENCODING 71
SWIDTH 617 0
DWIDTH 48 0
BBX 39 53 4 -1
BITMAP
00001FF000
0001FFFE00
0007FFFF80
001FFFFFE0
003FFFFFF0
00FFFFFFF8
01FFC007FC
03FF0001F8
03FC0000F0
07F8000060
0FF0000000
0FE0000000
1FC0000000
1FC0000000
3F80000000
3F80000000
7F00000000
7F00000000
7F00000000
7F00000000
7E00000000
FE00000000
FE00000000
FE00000000
FE00000000
FE00000000
FE0003FFFE
FE0003FFFE
FE0003FFFE
FE0003FFFE
FE0003FFFE
FE0000007E
FE0000007E
7F0000007E
7F0000007E
7F0000007E
7F0000007E
3F8000007E
3F8000007E
3FC000007E
1FC000007E
1FE000007E
0FF000007E
07F800007E
07FC00007E
03FF0001FE
01FFC007FE
00FFFFFFFC
007FFFFFF8
001FFFFFF0
000FFFFFC0
0003FFFF00
00003FF000
ENDCHAR
STARTCHAR 0048
ENCODING 72
SWIDTH 655 0
DWIDTH 51 0
BBX 37 51 7 0
BITMAP
FC000003F8
FC000003F8
FC000003F8
FC000003F8
FC000003F8
FC000003F8
FC000003F8
FC000003F8
FC000003F8
FC000003F8
FC000003F8
FC000003F8
FC000003F8
FC000003F8
FC000003F8
FC000003F8
FC000003F8
FC000003F8
FC000003F8
FC000003F8
FC000003F8
FFFFFFFFF8
FFFFFFFFF8
FFFFFFFFF8
FFFFFFFFF8
FFFFFFFFF8
FFFFFFFFF8
FC000003F8
FC000003F8
FC000003F8
FC000003F8
FC000003F8
FC000003F8
FC000003F8
FC000003F8
FC000003F8
FC000003F8
FC000003F8
FC000003F8
FC000003F8
FC000003F8
FC000003F8
FC000003F8
FC000003F8
FC000003F8
FC000003F8
FC000003F8
FC000003F8
FC000003F8
FC000003F8
FC000003F8
ENDCHAR
STARTCHAR 0049
ENCODING 73
SWIDTH 257 0
DWIDTH 20 0
BBX 6 51 7 0
BITMAP
FC
FC
FC
FC
FC
FC
FC
FC
FC
FC
FC
FC
FC
FC
FC
FC
FC
FC
FC
FC
FC
FC
FC
FC
FC
FC
FC
FC
FC
FC
FC
FC
FC
FC
FC
FC
FC
FC
FC
FC
FC
FC
FC
FC
FC
FC
FC
FC
FC
FC
FC
ENDCHAR
STARTCHAR 004A
ENCODING 74
SWIDTH 475 0
DWIDTH 37 0
BBX 28 52 3 -1
BITMAP
000007F0
000007F0
000007F0
000007F0
000007F0
000007F0
000007F0
000007F0
000007F0
000007F0
000007F0
000007F0
000007F0
000007F0
000007F0
000007F0
000007F0
000007F0
000007F0
000007F0
000007F0
000007F0
000007F0
000007F0
000007F0
000007F0
000007F0
000007F0
000007F0
000007F0
000007F0
000007F0
000007F0
000007F0
000007F0
000007F0
000007F0
000007F0
000007E0
000007E0
000007E0
18000FE0
78000FE0
FC001FC0
FE003FC0
FF807F80
7FFFFF80
3FFFFF00
1FFFFE00
0FFFFC00
03FFF000
007FC000
ENDCHAR
STARTCHAR 004B
ENCODING 75
SWIDTH 578 0
DWIDTH 45 0
BBX 37 51 7 0
BITMAP
FC00001FE0
FC00001FC0
FC00003F80
FC00007F00
FC0000FF00
FC0001FE00
FC0001FC00
FC0003F800
FC0007F000
FC000FE000
FC001FE000
FC003FC000
FC003F8000
FC007F0000
FC00FE0000
FC01FE0000
FC03FC0000
FC07F80000
FC07F00000
FC0FE00000
FC1FF00000
FC3FF00000
FC7FF80000
FCFFFC0000
FCFFFC0000
FDFCFE0000
FFFCFE0000
FFF87F0000
FFF03F8000
FFE03F8000
FFC01FC000
FF801FC000
FF000FE000
FF000FF000
FE0007F000
FC0003F800
FC0003F800
FC0001FC00
FC0001FC00
FC0000FE00
FC0000FF00
FC00007F00
FC00003F80
FC00003F80
FC00001FC0
FC00001FE0
FC00000FE0
FC00000FF0
FC000007F0
FC000003F8
FC000003F8
ENDCHAR
STARTCHAR 004C
ENCODING 76
SWIDTH 488 0
DWIDTH 38 0
BBX 29 51 7 0
BITMAP
FC000000
FC000000
FC000000
FC000000
FC000000
FC000000
FC000000
FC000000
FC000000
FC000000
FC000000
FC000000
FC000000
FC000000
FC000000
FC000000
FC000000
FC000000
FC000000
FC000000
FC000000
FC000000
FC000000
FC000000
FC000000
FC000000
FC000000
FC000000
FC000000
FC000000
FC000000
FC000000
FC000000
FC000000
FC000000
FC000000
FC000000
FC000000
FC000000
FC000000
FC000000
FC000000
FC000000
FC000000
FC000000
FFFFFFF8
FFFFFFF8
FFFFFFF8
FFFFFFF8
FFFFFFF8
FFFFFFF8
ENDCHAR
STARTCHAR 004D
ENCODING 77
SWIDTH 732 0
DWIDTH 57 0
BBX 43 51 7 0
BITMAP
FF0000003FE0
FF0000003FE0
FF8000003FE0
FF8000007FE0
FF8000007FE0
FFC000007FE0
FFC00000FFE0
FFC00000FFE0
FBE00000FFE0
FBE00001F7E0
FBF00001F7E0
F9F00001F7E0
F9F00003E7E0
F9F80003E7E0
FCF80003E7E0
FCF80007C7E0
FCFC0007C7E0
FC7C000FC7E0
FC7C000F87E0
FC7E000F87E0
FC3E001F87E0
FC3F001F07E0
FC3F001F0FE0
FC1F003F0FE0
FC1F803E0FE0
FC0F803E0FE0
FC0F807C0FE0
FC0FC07C0FE0
FC07C07C0FE0
FC07C0F80FE0
FC07E0F80FE0
FC03E0F80FE0
FC03E1F00FE0
FC03F1F00FE0
FC01F1F00FE0
FC01F3E00FE0
FC00FBE00FE0
FC00FBC00FE0
FC00FFC00FE0
FC007FC00FE0
FC007F800FE0
FC007F800FE0
FC003F800FE0
FC003F000FE0
FC003F000FE0
FC001F000FE0
FC0000000FE0
FC0000000FE0
FC0000000FE0
FC0000000FE0
FC0000000FE0
ENDCHAR
STARTCHAR 004E
ENCODING 78
SWIDTH 642 0
DWIDTH 50 0
BBX 36 51 7 0
BITMAP
FE000003F0
FF000003F0
FF000003F0
FF800003F0
FF800003F0
FFC00003F0
FFC00003F0
FFE00003F0
FBF00003F0
FBF00003F0
FDF80003F0
FDF80003F0
FCFC0003F0
FCFC0003F0
FC7E0003F0
FC7F0003F0
FC3F0003F0
FC3F8003F0
FC1F8003F0
FC1FC003F0
FC0FC003F0
FC07E003F0
FC07F003F0
FC03F003F0
FC03F803F0
FC01F803F0
FC01FC03F0
FC00FE03F0
FC007E03F0
FC007F03F0
FC003F03F0
FC003F83F0
FC001F83F0
FC000FC3F0
FC000FC3F0
FC0007E1F0
FC0007E1F0
FC0003F1F0
FC0003F9F0
FC0001F9F0
FC0000FDF0
FC0000FDF0
FC00007FF0
FC00007FF0
FC00003FF0
FC00003FF0
FC00001FF0
FC00000FF0
FC00000FF0
FC000007F0
FC000007F0
ENDCHAR
STARTCHAR 004F
ENCODING 79
SWIDTH 668 0
DWIDTH 52 0
BBX 44 53 4 -1
BITMAP
00007FE00000
0003FFFC0000
000FFFFF0000
003FFFFFC000
007FFFFFE000
00FFFFFFF000
01FF801FF800
03FE0007FC00
07F80003FE00
0FF00001FE00
0FE00000FF00
1FE000007F80
1FC000003F80
3F8000003F80
3F8000001FC0
3F8000001FC0
7F0000001FC0
7F0000000FE0
7F0000000FE0
7E0000000FE0
FE0000000FE0
FE00000007E0
FE00000007F0
FE00000007F0
FE00000007F0
FE00000007F0
FE00000007F0
FE00000007F0
FE00000007F0
FE00000007F0
FE00000007E0
FE00000007E0
7E0000000FE0
7F0000000FE0
7F0000000FE0
7F0000000FE0
7F0000001FC0
3F8000001FC0
3F8000001FC0
3FC000003F80
1FC000003F80
1FE000007F00
0FF00000FF00
0FF80001FE00
07FC0003FE00
03FE0007FC00
01FF801FF800
00FFFFFFF000
007FFFFFE000
003FFFFF8000
000FFFFF0000
0003FFFC0000
00007FE00000
ENDCHAR
STARTCHAR 0050
ENCODING 80
SWIDTH 565 0
DWIDTH 44 0
BBX 34 51 7 0
BITMAP
FFFFF80000
FFFFFF8000
FFFFFFE000
FFFFFFF800
FFFFFFFC00
FC003FFE00
FC0003FF00
FC0000FF00
FC00007F80
FC00003F80
FC00003F80
FC00001F80
FC00001FC0
FC00001FC0
FC00001FC0
FC00001FC0
FC00001FC0
FC00001FC0
FC00001F80
FC00001F80
FC00003F80
FC00003F80
FC00007F00
FC0000FF00
FC0003FE00
FC003FFC00
FFFFFFF800
FFFFFFF000
FFFFFFC000
FFFFFF0000
FFFFF00000
FC00000000
FC00000000
FC00000000
FC00000000
FC00000000
FC00000000
FC00000000
FC00000000
FC00000000
FC00000000
FC00000000
FC00000000
FC00000000
FC00000000
FC00000000
FC00000000
FC00000000
FC00000000
FC00000000
FC00000000
ENDCHAR
STARTCHAR 0051
ENCODING 81
SWIDTH 668 0
DWIDTH 52 0
BBX 45 65 4 -13
BITMAP
00007FE00000
0003FFFC0000
000FFFFF0000
003FFFFFC000
007FFFFFE000
00FFFFFFF000
01FF803FF800
03FE0007FC00
07F80003FE00
0FF00001FE00
0FE00000FF00
1FE000007F80
1FC000003F80
3F8000003F80
3F8000001FC0
3F8000001FC0
7F0000001FC0
7F0000000FE0
7F0000000FE0
7E0000000FE0
FE0000000FE0
FE00000007E0
FE00000007F0
FE00000007F0
FE00000007F0
FE00000007F0
FE00000007F0
FE00000007F0
FE00000007F0
FE00000007F0
FE00000007F0
FE00000007E0
FE0000000FE0
7E0000000FE0
7F0000000FE0
7F0000000FE0
7F0000000FC0
3F8000001FC0
3F8000001FC0
3F8000003F80
1FC000003F80
1FC000007F80
0FE000007F00
0FF00000FE00
07F80001FE00
03FC0003FC00
03FF000FF800
01FFC07FF000
00FFFFFFE000
003FFFFFC000
001FFFFF0000
0007FFFC0000
0000FFF00000
00001FC00000
00001FE00000
00000FF00000
000007F80000
000007FC0000
000003FF0000
000001FFFDF0
000000FFFFF0
0000007FFFF0
0000001FFFF0
00000007FFF8
00000000FFC0
ENDCHAR
STARTCHAR 0052
ENCODING 82
SWIDTH 565 0
DWIDTH 44 0
BBX 35 51 7 0
BITMAP
FFFFFC0000
FFFFFFC000
FFFFFFF000
FFFFFFF800
FFFFFFFC00
FC001FFE00
FC0001FF00
FC0000FF80
FC00003F80
FC00003F80
FC00001F80
FC00001FC0
FC00001FC0
FC00001FC0
FC00001FC0
FC00001FC0
FC00001FC0
FC00001FC0
FC00001F80
FC00003F80
FC00007F80
FC0000FF00
FC0001FF00
FC000FFE00
FFFFFFFC00
FFFFFFF800
FFFFFFE000
FFFFFFC000
FFFFFE0000
FC00FE0000
FC00FE0000
FC007F0000
FC007F8000
FC003F8000
FC001FC000
FC001FC000
FC000FE000
FC000FE000
FC0007F000
FC0007F800
FC0003F800
FC0001FC00
FC0001FC00
FC0000FE00
FC0000FF00
FC00007F00
FC00007F80
FC00003F80
FC00001FC0
FC00001FC0
FC00000FE0
ENDCHAR
STARTCHAR 0053
ENCODING 83
SWIDTH 540 0
DWIDTH 42 0
BBX 35 53 3 -1
BITMAP
0003FE0000
001FFFE000
007FFFF800
00FFFFFE00
01FFFFFF00
03FFFFFF80
07FC00FFC0
0FF0003F80
0FE0000F00
1FC0000600
1FC0000000
1F80000000
1F80000000
1F80000000
1F80000000
1FC0000000
1FC0000000
1FE0000000
0FF0000000
0FF8000000
07FE000000
07FF800000
03FFF00000
01FFFC0000
007FFF0000
003FFFE000
0007FFF000
0001FFFC00
00007FFE00
00001FFF00
000003FF80
000000FFC0
0000007FC0
0000001FE0
0000000FE0
0000000FE0
00000007E0
00000007E0
00000007E0
00000007E0
00000007E0
08000007E0
1C00000FE0
3E00000FE0
7F80001FC0
FFE0007FC0
7FF800FF80
3FFFFFFF00
0FFFFFFE00
07FFFFFC00
01FFFFF000
003FFFC000
0007FE0000
ENDCHAR
STARTCHAR 0054
ENCODING 84
SWIDTH 540 0
DWIDTH 42 0
BBX 38 51 2 0
BITMAP
FFFFFFFFFC
FFFFFFFFFC
FFFFFFFFFC
FFFFFFFFFC
FFFFFFFFFC
0000FC0000
0000FC0000
0000FC0000
0000FC0000
0000FC0000
0000FC0000
0000FC0000
0000FC0000
0000FC0000
0000FC0000
0000FC0000
0000FC0000
0000FC0000
0000FC0000
0000FC0000
0000FC0000
0000FC0000
0000FC0000
0000FC0000
0000FC0000
0000FC0000
0000FC0000
0000FC0000
0000FC0000
0000FC0000
0000FC0000
0000FC0000
0000FC0000
0000FC0000
0000FC0000
0000FC0000
0000FC0000
0000FC0000
0000FC0000
0000FC0000
0000FC0000
0000FC0000
0000FC0000
0000FC0000
0000FC0000
0000FC0000
0000FC0000
0000FC0000
0000FC0000
0000FC0000
0000FC0000
ENDCHAR
STARTCHAR 0055
ENCODING 85
SWIDTH 642 0
DWIDTH 50 0
BBX 36 52 7 -1
BITMAP
FC000003F0
FC000003F0
FC000003F0
FC000003F0
FC000003F0
FC000003F0
FC000003F0
FC000003F0
FC000003F0
FC000003F0
FC000003F0
FC000003F0
FC000003F0
FC000003F0
FC000003F0
FC000003F0
FC000003F0
FC000003F0
FC000003F0
FC000003F0
FC000003F0
FC000003F0
FC000003F0
FC000003F0
FC000003F0
FC000003F0
FC000003F0
FC000003F0
FC000003F0
FC000003F0
FC000003F0
FC000003F0
FC000003F0
FC000003F0
FE000003F0
FE000003F0
FE000003F0
FE000007F0
7E000007F0
7F000007E0
7F00000FE0
3F80000FE0
3F80001FC0
3FC0003FC0
1FF0007F80
0FF801FF80
0FFFFFFF00
07FFFFFE00
01FFFFFC00
00FFFFF000
003FFFC000
0007FE0000
ENDCHAR
STARTCHAR 0056
ENCODING 86
SWIDTH 514 0
DWIDTH 40 0
BBX 40 51 0 0
BITMAP
FE0000007F
FE0000007F
7F0000007E
7F000000FE
7F000000FE
3F800000FC
3F800000FC
3F800001FC
1F800001F8
1FC00001F8
1FC00003F8
0FC00003F0
0FE00003F0
0FE00007F0
07E00007E0
07F00007E0
07F00007E0
03F0000FC0
03F0000FC0
03F8000FC0
01F8001FC0
01F8001F80
01FC001F80
00FC003F80
00FC003F00
00FC003F00
00FE003F00
007E007E00
007E007E00
007F007E00
003F00FC00
003F00FC00
003F80FC00
001F80F800
001F81F800
001F81F800
000FC1F000
000FC3F000
000FC3F000
0007E3F000
0007E3E000
0007E7E000
0003F7E000
0003F7C000
0003FFC000
0001FFC000
0001FF8000
0001FF8000
0000FF8000
0000FF0000
0000FF0000
ENDCHAR
STARTCHAR 0057
ENCODING 87
SWIDTH 784 0
DWIDTH 61 0
BBX 57 51 2 0
BITMAP
FE00003F00001F80
FE00007F00001F80
FE00007F00001F80
7E00007F80003F80
7E00007F80003F00
7F0000FF80003F00
7F0000FF80003F00
7F0000FFC0003F00
3F0000FFC0007E00
3F0001F7C0007E00
3F8001F7C0007E00
3F8001F7E0007E00
3F8001F7E0007E00
1F8003E3E000FC00
1F8003E3E000FC00
1F8003E3F000FC00
1FC003E3F000FC00
1FC007C1F000FC00
0FC007C1F001F800
0FC007C1F801F800
0FC007C1F801F800
0FE00FC1F801F800
07E00F80F801F800
07E00F80FC03F000
07E00F80FC03F000
07E01F80FC03F000
07F01F007C03F000
03F01F007E03F000
03F01F007E03E000
03F03F007E07E000
03F03E003E07E000
03F83E003F07E000
01F83E003F07E000
01F83E003F07C000
01F87C001F0FC000
01F87C001F8FC000
00F87C001F8FC000
00FC7C001F8F8000
00FCF8000F8F8000
00FCF8000F8F8000
00FCF8000FDF8000
007CF80007DF8000
007EF00007DF0000
007FF00007DF0000
007FF00007FF0000
007FF00003FF0000
003FE00003FF0000
003FE00003FE0000
003FE00003FE0000
003FE00001FE0000
003FC00001FE0000
ENDCHAR
STARTCHAR 0058
ENCODING 88
SWIDTH 514 0
DWIDTH 40 0
BBX 37 51 1 0
BITMAP
7F800003F8
3F800007F0
1FC00007E0
1FC0000FE0
0FE0000FC0
0FE0001FC0
07F0001F80
07F0003F80
03F8003F00
03F8007F00
01FC007E00
00FC00FC00
00FE01FC00
007F01F800
007F03F800
003F83F000
003F87F000
001FC7E000
000FCFC000
000FEFC000
0007FF8000
0007FF8000
0003FF0000
0003FF0000
0001FE0000
0001FE0000
0003FF0000
0007FF0000
0007FF8000
000FDF8000
000FCFC000
001F8FE000
001F87E000
003F07F000
007F03F000
007E03F800
00FE01F800
00FC01FC00
01FC00FE00
01F800FE00
03F8007F00
03F0007F00
07F0003F80
0FE0003F80
0FC0001FC0
1FC0000FE0
1F80000FE0
3F800007F0
3F000007F0
7F000003F8
FE000003F8
ENDCHAR
STARTCHAR 0059
ENCODING 89
SWIDTH 475 0
DWIDTH 37 0
BBX 37 51 0 0
BITMAP
FE000003F8
7F000003F0
7F000007F0
3F000007E0
3F80000FE0
1F80000FC0
1FC0001FC0
0FC0001F80
0FE0003F80
07E0003F00
07F0003F00
03F0007E00
03F8007E00
01F800FC00
01FC00FC00
00FC01F800
00FC01F800
00FE03F800
007E03F000
007F03F000
003F07E000
003F87E000
001F8FC000
001FCFC000
000FDF8000
000FDF8000
0007FF0000
0007FF0000
0003FE0000
0003FE0000
0001FC0000
0001FC0000
0001FC0000
0001FC0000
0001FC0000
0001FC0000
0001FC0000
0001FC0000
0001FC0000
0001FC0000
0001FC0000
0001FC0000
0001FC0000
0001FC0000
0001FC0000
0001FC0000
0001FC0000
0001FC0000
0001FC0000
0001FC0000
0001FC0000
ENDCHAR
STARTCHAR 005A
ENCODING 90
SWIDTH 540 0
DWIDTH 42 0
BBX 36 51 3 0
BITMAP
1FFFFFFFE0
1FFFFFFFE0
1FFFFFFFE0
1FFFFFFFE0
1FFFFFFFE0
0000001FC0
0000001FC0
0000003F80
0000007F00
0000007F00
000000FE00
000001FC00
000001FC00
000003F800
000007F800
000007F000
00000FE000
00000FE000
00001FC000
00003F8000
00003F8000
00007F0000
0000FE0000
0000FE0000
0001FC0000
0003F80000
0003F80000
0007F00000
000FE00000
000FE00000
001FC00000
001FC00000
003F800000
007F000000
007F000000
00FE000000
01FC000000
01FC000000
03F8000000
07F0000000
07F0000000
0FE0000000
1FC0000000
1FC0000000
3F80000000
3FFFFFFFF0
7FFFFFFFF0
FFFFFFFFF0
FFFFFFFFF0
FFFFFFFFF0
FFFFFFFFF0
ENDCHAR
STARTCHAR 005B
ENCODING 91
SWIDTH 308 0
DWIDTH 24 0
BBX 14 67 7 -12
BITMAP
FFFC
FFFC
FFFC
FFFC
F800
F800
F800
F800
F800
F800
F800
F800
F800
F800
F800
F800
F800
F800
F800
F800
F800
F800
F800
F800
F800
F800
F800
F800
F800
F800
F800
F800
F800
F800
F800
F800
F800
F800
F800
F800
F800
F800
F800
F800
F800
F800
F800
F800
F800
F800
F800
F800
F800
F800
F800
F800
F800
F800
F800
F800
F800
F800
F800
FFFC
FFFC
FFFC
FFFC
ENDCHAR
STARTCHAR 005C
ENCODING 92
SWIDTH 347 0
DWIDTH 27 0
BBX 25 68 1 -13
BITMAP
F8000000
78000000
78000000
7C000000
7C000000
3C000000
3E000000
3E000000
1E000000
1F000000
1F000000
0F000000
0F800000
0F800000
07800000
07800000
07C00000
07C00000
03C00000
03E00000
03E00000
01E00000
01F00000
01F00000
00F00000
00F80000
00F80000
00780000
00780000
007C0000
007C0000
003C0000
003E0000
003E0000
001E0000
001F0000
001F0000
000F0000
000F8000
000F8000
000F8000
00078000
0007C000
0007C000
0003C000
0003E000
0003E000
0001E000
0001F000
0001F000
0000F000
0000F000
0000F800
0000F800
00007800
00007C00
00007C00
00003C00
00003E00
00003E00
00001E00
00001F00
00001F00
00000F00
00000F00
00000F80
00000F80
00000780
ENDCHAR
STARTCHAR 005D
ENCODING 93
SWIDTH 308 0
DWIDTH 24 0
BBX 14 67 2 -12
BITMAP
FFFC
FFFC
FFFC
FFFC
007C
007C
007C
007C
007C
007C
007C
007C
007C
007C
007C
007C
007C
007C
007C
007C
007C
007C
007C
007C
007C
007C
007C
007C
007C
007C
007C
007C
007C
007C
007C
007C
007C
007C
007C
007C
007C
007C
007C
007C
007C
007C
007C
007C
007C
007C
007C
007C
007C
007C
007C
007C
007C
007C
007C
007C
007C
007C
007C
FFFC
FFFC
FFFC
FFFC
ENDCHAR
STARTCHAR 005E
ENCODING 94
SWIDTH 501 0
DWIDTH 39 0
BBX 29 30 5 22
BITMAP
001F8000
001FC000
003FC000
003FE000
003FE000
007FE000
007DF000
007DF000
00F9F800
00F8F800
01F8F800
01F07C00
01F07C00
03E07C00
03E03E00
07E03E00
07C03F00
07C01F00
0FC01F00
0F801F80
1F800F80
1F000FC0
1F0007C0
3F0007C0
3E0007E0
7E0003E0
7E0003F0
7C0003F0
FC0001F0
F80001F8
ENDCHAR
STARTCHAR 005F
ENCODING 95
SWIDTH 501 0
DWIDTH 39 0
BBX 37 4 1 -10
BITMAP
FFFFFFFFF8
FFFFFFFFF8
FFFFFFFFF8
FFFFFFFFF8
ENDCHAR
STARTCHAR 0060
ENCODING 96
SWIDTH 540 0
DWIDTH 42 0
BBX 15 16 10 45
BITMAP
0800
1C00
3E00
7E00
FF00
7F80
3FC0
1FE0
0FF0
07F0
03F8
01FC
00FE
007E
003C
0018
ENDCHAR
STARTCHAR 0061
ENCODING 97
SWIDTH 501 0
DWIDTH 39 0
BBX 30 40 4 -1
BITMAP
000FF800
007FFE00
03FFFF80
0FFFFFC0
3FFFFFE0
3FFC7FE0
1F800FF0
1E0007F0
080003F8
000003F8
000001F8
000001F8
000001FC
000001FC
000001FC
00001FFC
0003FFFC
003FFFFC
00FFFFFC
03FFF9FC
0FFF01FC
1FF001FC
3FC001FC
3F8001FC
7F0001FC
7E0001FC
FE0001FC
FC0001FC
FC0001FC
FC0001FC
FE0003FC
FE0007FC
FE000FFC
7F003FFC
7FC0FFFC
3FFFFCFC
1FFFF8FC
0FFFE0FC
07FFC0FC
01FE0000
ENDCHAR
STARTCHAR 0062
ENCODING 98
SWIDTH 552 0
DWIDTH 43 0
BBX 33 56 6 -1
BITMAP
FE00000000
FE00000000
FE00000000
FE00000000
FE00000000
FE00000000
FE00000000
FE00000000
FE00000000
FE00000000
FE00000000
FE00000000
FE00000000
FE00000000
FE00000000
FE00000000
FE01FE0000
FE0FFF8000
FE3FFFE000
FE7FFFF000
FEFFFFF800
FFFF3FFC00
FFF003FC00
FFE001FE00
FF8000FF00
FF00007F00
FE00007F00
FE00003F80
FE00003F80
FE00003F80
FE00003F80
FE00001F80
FE00001F80
FE00001F80
FE00001F80
FE00001F80
FE00001F80
FE00001F80
FE00001F80
FE00001F80
FE00003F80
FE00003F80
FE00003F80
FE00007F00
FE00007F00
FE0000FF00
FE0000FE00
FF0001FE00
FF8003FC00
FFE007F800
FFFE7FF800
FDFFFFF000
FCFFFFE000
FC7FFF8000
FC1FFE0000
0003F80000
ENDCHAR
STARTCHAR 0063
ENCODING 99
SWIDTH 450 0
DWIDTH 35 0
BBX 29 40 4 -1
BITMAP
0003FC00
001FFF80
007FFFC0
01FFFFF0
03FFFFF8
07FF0FF0
0FF801E0
1FE000C0
1FC00040
3F800000
3F800000
7F000000
7F000000
FE000000
FE000000
FE000000
FE000000
FC000000
FC000000
FC000000
FC000000
FC000000
FC000000
FE000000
FE000000
FE000000
FE000000
7F000000
7F000000
7F800000
3F800000
3FC00020
1FE00070
0FF801F0
0FFF0FF8
07FFFFF8
01FFFFF0
00FFFFC0
003FFF00
0007F800
ENDCHAR
STARTCHAR 0064
ENCODING 100
SWIDTH 552 0
DWIDTH 43 0
BBX 33 56 4 -1
BITMAP
0000003F80
0000003F80
0000003F80
0000003F80
0000003F80
0000003F80
0000003F80
0000003F80
0000003F80
0000003F80
0000003F80
0000003F80
0000003F80
0000003F80
0000003F80
0000003F80
000FF03F80
003FFE3F80
00FFFF1F80
01FFFFDF80
03FFFFFF80
07FF3FFF80
0FF803FF80
1FE000FF80
3FC0007F80
3F80003F80
3F80003F80
7F00003F80
7F00003F80
FE00003F80
FE00003F80
FE00003F80
FE00003F80
FC00003F80
FC00003F80
FC00003F80
FC00003F80
FC00003F80
FC00003F80
FE00003F80
FE00003F80
FE00003F80
FE00003F80
FE00003F80
7F00003F80
7F00003F80
7F80007F80
3FC000FF80
3FE001FF80
1FF007FF80
0FFE3FFF80
0FFFFFDF80
07FFFF9F80
01FFFE1F80
00FFF81F80
001FE00000
ENDCHAR
STARTCHAR 0065
ENCODING 101
SWIDTH 501 0
DWIDTH 39 0
BBX 32 40 4 -1
BITMAP
0007F800
003FFF00
00FFFF80
01FFFFC0
03FFFFE0
07FC0FF0
0FF003F8
1FC001F8
1F8000FC
3F0000FC
3F00007E
7E00007E
7E00003E
FE00003E
FC00003E
FC00003F
FC00003F
FFFFFFFF
FFFFFFFF
FFFFFFFF
FFFFFFFF
FFFFFFFE
FC000000
FC000000
FC000000
FE000000
FE000000
7E000000
7F000000
7F000000
3F800000
3FC00000
1FE00010
0FF80078
07FE03F8
03FFFFFC
01FFFFFC
00FFFFF0
003FFF80
0007FC00
ENDCHAR
STARTCHAR 0066
ENCODING 102
SWIDTH 295 0
DWIDTH 23 0
BBX 23 56 2 0
BITMAP
0007F8
003FFE
007FFC
00FFFC
01FFFC
01FF1C
03FC00
03F800
03F000
03F000
03F000
07F000
07F000
07F000
07F000
07F000
07F000
07F000
FFFFF0
FFFFF0
FFFFF0
FFFFF0
FFFFF0
07F000
07F000
07F000
07F000
07F000
07F000
07F000
07F000
07F000
07F000
07F000
07F000
07F000
07F000
07F000
07F000
07F000
07F000
07F000
07F000
07F000
07F000
07F000
07F000
07F000
07F000
07F000
07F000
07F000
07F000
07F000
07F000
07F000
ENDCHAR
STARTCHAR 0067
ENCODING 103
SWIDTH 501 0
DWIDTH 39 0
BBX 34 57 4 -18
BITMAP
001FE00000
00FFFFFFC0
01FFFFFFC0
07FFFFFFC0
0FFFFFFFC0
0FF01FFFC0
1FC00FC000
3F8007E000
3F0003F000
3F0003F000
7F0001F800
7E0001F800
7E0001F800
7E0001F800
7E0001F800
7E0001F800
7E0001F800
7F0001F800
3F0003F000
3F8003F000
1FC007E000
1FE00FE000
0FF83FC000
07FFFF8000
03FFFF0000
07FFFC0000
0F9FF00000
1F00000000
3E00000000
3E00000000
3E00000000
3E00000000
3F00000000
3F00000000
3FF0000000
1FFFFFF000
1FFFFFFC00
07FFFFFF00
0FFFFFFF80
1F3FFFFF80
3E00007FC0
7E00001FC0
7C00000FC0
F800000FC0
F800000FC0
F800000FC0
F800000FC0
F800001FC0
FC00001F80
FE00003F80
FF0000FF00
7FC003FE00
3FFE7FFC00
1FFFFFF000
0FFFFFE000
03FFFF0000
003FF00000
ENDCHAR
STARTCHAR 0068
ENCODING 104
SWIDTH 540 0
DWIDTH 42 0
BBX 31 55 6 0
BITMAP
FE000000
FE000000
FE000000
FE000000
FE000000
FE000000
FE000000
FE000000
FE000000
FE000000
FE000000
FE000000
FE000000
FE000000
FE000000
FE000000
FE00FE00
FE07FF80
FE1FFFE0
FE3FFFF0
FE7FFFF0
FFFFFFF8
FFF807F8
FFE003FC
FFC001FC
FF8001FC
FF0000FC
FE0000FC
FE0000FE
FE0000FE
FE0000FE
FE0000FE
FE0000FE
FE0000FE
FE0000FE
FE0000FE
FE0000FE
FE0000FE
FE0000FE
FE0000FE
FE0000FE
FE0000FE
FE0000FE
FE0000FE
FE0000FE
FE0000FE
FE0000FE
FE0000FE
FE0000FE
FE0000FE
FE0000FE
FE0000FE
FE0000FE
FE0000FE
FE0000FE
ENDCHAR
STARTCHAR 0069
ENCODING 105
SWIDTH 244 0
DWIDTH 19 0
BBX 9 54 5 0
BITMAP
1E00
7F00
7F80
FF80
FF80
FF80
7F00
3E00
0000
0000
0000
0000
0000
0000
0000
0000
7F00
7F00
7F00
7F00
7F00
7F00
7F00
7F00
7F00
7F00
7F00
7F00
7F00
7F00
7F00
7F00
7F00
7F00
7F00
7F00
7F00
7F00
7F00
7F00
7F00
7F00
7F00
7F00
7F00
7F00
7F00
7F00
7F00
7F00
7F00
7F00
7F00
7F00
ENDCHAR
STARTCHAR 006A
ENCODING 106
SWIDTH 244 0
DWIDTH 19 0
BBX 17 71 -3 -17
BITMAP
001E00
007F00
007F80
00FF80
00FF80
007F80
007F00
003E00
000000
000000
000000
000000
000000
000000
000000
000000
007F00
007F00
007F00
007F00
007F00
007F00
007F00
007F00
007F00
007F00
007F00
007F00
007F00
007F00
007F00
007F00
007F00
007F00
007F00
007F00
007F00
007F00
007F00
007F00
007F00
007F00
007F00
007F00
007F00
007F00
007F00
007F00
007F00
007F00
007F00
007F00
007F00
007F00
007F00
007F00
007F00
007F00
007F00
007F00
007F00
007F00
007F00
007E00
00FE00
61FE00
7FFC00
7FFC00
FFF800
FFE000
7F8000
ENDCHAR
STARTCHAR 006B
ENCODING 107
SWIDTH 501 0
DWIDTH 39 0
BBX 31 55 6 0
BITMAP
FE000000
FE000000
FE000000
FE000000
FE000000
FE000000
FE000000
FE000000
FE000000
FE000000
FE000000
FE000000
FE000000
FE000000
FE000000
FE000000
FE000000
FE0001FC
FE0003F8
FE0007F0
FE000FE0
FE001FC0
FE001FC0
FE003F80
FE007F00
FE00FE00
FE01FC00
FE01F800
FE03F800
FE07F000
FE0FE000
FE1FC000
FE1FC000
FE3FC000
FE7FE000
FEFFE000
FFFFF000
FFFBF800
FFF1F800
FFE1FC00
FFE0FE00
FFC07E00
FF807F00
FF003F80
FE003F80
FE001FC0
FE000FC0
FE000FE0
FE0007F0
FE0007F0
FE0003F8
FE0001FC
FE0001FC
FE0000FE
FE0000FE
ENDCHAR
STARTCHAR 006C
ENCODING 108
SWIDTH 257 0
DWIDTH 20 0
BBX 11 56 6 -1
BITMAP
FE00
FE00
FE00
FE00
FE00
FE00
FE00
FE00
FE00
FE00
FE00
FE00
FE00
FE00
FE00
FE00
FE00
FE00
FE00
FE00
FE00
FE00
FE00
FE00
FE00
FE00
FE00
FE00
FE00
FE00
FE00
FE00
FE00
FE00
FE00
FE00
FE00
FE00
FE00
FE00
FE00
FE00
FE00
FE00
FE00
FE00
FE00
FE00
FE00
FE00
7F00
7FC0
7FC0
3FC0
1FE0
0FC0
ENDCHAR
STARTCHAR 006D
ENCODING 109
SWIDTH 822 0
DWIDTH 64 0
BBX 53 39 6 0
BITMAP
0001FC0003F800
FC07FF000FFE00
FC1FFFC03FFF80
FC3FFFE07FFFC0
FCFFFFE1FFFFC0
FDFFFFF3FFFFE0
FFF80FF7E01FE0
FFE007FFC00FF0
FFC003FF8007F0
FF8003FF0007F0
FF0001FE0003F0
FE0001FC0003F0
FE0001FC0003F8
FE0001FC0003F8
FE0001FC0003F8
FE0001FC0003F8
FE0001FC0003F8
FE0001FC0003F8
FE0001FC0003F8
FE0001FC0003F8
FE0001FC0003F8
FE0001FC0003F8
FE0001FC0003F8
FE0001FC0003F8
FE0001FC0003F8
FE0001FC0003F8
FE0001FC0003F8
FE0001FC0003F8
FE0001FC0003F8
FE0001FC0003F8
FE0001FC0003F8
FE0001FC0003F8
FE0001FC0003F8
FE0001FC0003F8
FE0001FC0003F8
FE0001FC0003F8
FE0001FC0003F8
FE0001FC0003F8
FE0001FC0003F8
ENDCHAR
STARTCHAR 006E
ENCODING 110
SWIDTH 552 0
DWIDTH 43 0
BBX 31 39 6 0
BITMAP
0000FE00
FC07FF80
FC1FFFE0
FC3FFFF0
FC7FFFF0
FDFFFFF8
FFF807F8
FFE003FC
FFC001FC
FF8001FC
FF0000FC
FE0000FC
FE0000FE
FE0000FE
FE0000FE
FE0000FE
FE0000FE
FE0000FE
FE0000FE
FE0000FE
FE0000FE
FE0000FE
FE0000FE
FE0000FE
FE0000FE
FE0000FE
FE0000FE
FE0000FE
FE0000FE
FE0000FE
FE0000FE
FE0000FE
FE0000FE
FE0000FE
FE0000FE
FE0000FE
FE0000FE
FE0000FE
FE0000FE
ENDCHAR
STARTCHAR 006F
ENCODING 111
SWIDTH 540 0
DWIDTH 42 0
BBX 35 40 4 -1
BITMAP
0007F80000
003FFF0000
00FFFFC000
01FFFFE000
03FFFFF800
07FE1FFC00
0FF003FC00
1FE001FE00
3FC000FF00
3F80007F00
7F00003F80
7F00003F80
7F00001FC0
FE00001FC0
FE00001FC0
FE00000FC0
FC00000FC0
FC00000FC0
FC00000FE0
FC00000FE0
FC00000FE0
FC00000FE0
FC00000FC0
FC00000FC0
FE00000FC0
FE00001FC0
FE00001FC0
7F00001FC0
7F00003F80
7F80003F80
3F80007F00
3FC000FF00
1FE001FE00
0FF003FC00
07FE1FFC00
03FFFFF800
01FFFFE000
00FFFFC000
003FFF0000
0007F80000
ENDCHAR
STARTCHAR 0070
ENCODING 112
SWIDTH 552 0
DWIDTH 43 0
BBX 33 55 6 -16
BITMAP
0001FE0000
FC0FFF8000
FC3FFFE000
FC7FFFF000
FDFFFFF800
FFFF3FFC00
FFF003FC00
FFE001FE00
FF8000FF00
FF00007F00
FE00007F00
FE00003F80
FE00003F80
FE00003F80
FE00003F80
FE00001F80
FE00001F80
FE00001F80
FE00001F80
FE00001F80
FE00001F80
FE00001F80
FE00001F80
FE00001F80
FE00003F80
FE00003F80
FE00003F80
FE00007F00
FE00007F00
FE00007F00
FE0000FE00
FF0001FE00
FF8003FC00
FFE007F800
FFFE7FF800
FFFFFFF000
FEFFFFE000
FE7FFF8000
FE1FFE0000
FE03F80000
FE00000000
FE00000000
FE00000000
FE00000000
FE00000000
FE00000000
FE00000000
FE00000000
FE00000000
FE00000000
FE00000000
FE00000000
FE00000000
FE00000000
FE00000000
ENDCHAR
STARTCHAR 0071
ENCODING 113
SWIDTH 552 0
DWIDTH 43 0
BBX 33 55 4 -16
BITMAP
000FF00000
003FFE0F80
00FFFF1F80
01FFFFDF80
03FFFFFF80
07FF3FFF80
0FF803FF80
1FE000FF80
1FC0007F80
3F80003F80
3F80003F80
7F00003F80
7F00003F80
FE00003F80
FE00003F80
FE00003F80
FE00003F80
FC00003F80
FC00003F80
FC00003F80
FC00003F80
FC00003F80
FC00003F80
FE00003F80
FE00003F80
FE00003F80
FE00003F80
FE00003F80
7F00003F80
7F00003F80
7F80007F80
3FC000FF80
3FE001FF80
1FF007FF80
0FFE3FFF80
0FFFFFDF80
07FFFF9F80
01FFFE1F80
00FFF83F80
001FE03F80
0000003F80
0000003F80
0000003F80
0000003F80
0000003F80
0000003F80
0000003F80
0000003F80
0000003F80
0000003F80
0000003F80
0000003F80
0000003F80
0000003F80
0000003F80
ENDCHAR
STARTCHAR 0072
ENCODING 114
SWIDTH 347 0
DWIDTH 27 0
BBX 21 39 6 0
BITMAP
0003F0
FC0FF8
FC1FF8
FC3FF8
FC7FF0
FCFFF0
FDF800
FDF000
FFC000
FFC000
FF8000
FF0000
FF0000
FE0000
FE0000
FE0000
FE0000
FE0000
FE0000
FE0000
FE0000
FE0000
FE0000
FE0000
FE0000
FE0000
FE0000
FE0000
FE0000
FE0000
FE0000
FE0000
FE0000
FE0000
FE0000
FE0000
FE0000
FE0000
FE0000
ENDCHAR
STARTCHAR 0073
ENCODING 115
SWIDTH 424 0
DWIDTH 33 0
BBX 28 40 2 -1
BITMAP
001FE000
00FFFC00
03FFFF00
07FFFFC0
0FFFFFE0
0FF03FC0
1FC00780
1F800100
3F800000
3F000000
3F000000
3F000000
3F800000
3FC00000
1FE00000
1FF80000
0FFE0000
07FFC000
03FFF000
00FFFC00
003FFF00
000FFF80
0001FFC0
00007FE0
00001FE0
00000FF0
000007F0
000003F0
000003F0
000003F0
000003F0
180007F0
3C0007E0
7F000FE0
FFE03FC0
7FFFFFC0
1FFFFF80
0FFFFE00
03FFFC00
003FE000
ENDCHAR
STARTCHAR 0074
ENCODING 116
SWIDTH 334 0
DWIDTH 26 0
BBX 23 50 2 -1
BITMAP
01F000
03F000
03F000
03F000
03F000
03F000
03F000
03F000
03F000
03F000
03F000
FFFFFC
FFFFFC
FFFFFC
FFFFFC
FFFFFC
07F000
07F000
07F000
07F000
07F000
07F000
07F000
07F000
07F000
07F000
07F000
07F000
07F000
07F000
07F000
07F000
07F000
07F000
07F000
07F000
07F000
07F000
07F000
03F000
03F000
03F800
03F800
03FC00
01FF0C
01FFFC
00FFFE
007FFE
003FFE
000FF0
ENDCHAR
STARTCHAR 0075
ENCODING 117
SWIDTH 540 0
DWIDTH 42 0
BBX 30 39 6 -1
BITMAP
FC0000FC
FC0000FC
FC0000FC
FC0000FC
FC0000FC
FC0000FC
FC0000FC
FC0000FC
FC0000FC
FC0000FC
FC0000FC
FC0000FC
FC0000FC
FC0000FC
FC0000FC
FC0000FC
FC0000FC
FC0000FC
FC0000FC
FC0000FC
FC0000FC
FC0000FC
FC0000FC
FC0000FC
FC0000FC
FC0000FC
FE0000FC
FE0001FC
FE0003FC
FE0003FC
7F000FFC
7F001FFC
7FC03FFC
3FFFFEFC
3FFFFCFC
1FFFF8FC
0FFFE0FC
07FFC07C
01FE0000
ENDCHAR
STARTCHAR 0076
ENCODING 118
SWIDTH 462 0
DWIDTH 36 0
BBX 34 38 1 0
BITMAP
FE00000FC0
FE00000FC0
7E00001F80
7F00001F80
3F00001F80
3F00003F00
3F80003F00
1F80003F00
1F80007E00
1FC0007E00
0FC0007E00
0FC000FC00
0FE000FC00
07E000FC00
07E001F800
07F001F800
03F001F800
03F003F000
01F803F000
01F803F000
01F807E000
00FC07E000
00FC07C000
00FC0FC000
007E0FC000
007E0F8000
007E1F8000
003F1F8000
003F1F0000
003F1F0000
001FBF0000
001FBE0000
000FBE0000
000FFE0000
000FFC0000
0007FC0000
0007FC0000
0007F80000
ENDCHAR
STARTCHAR 0077
ENCODING 119
SWIDTH 720 0
DWIDTH 56 0
BBX 52 38 2 0
BITMAP
FE0001F80003F0
FE0001FC0003F0
7E0003FC0007E0
7E0003FC0007E0
7F0003FC0007E0
7F0003FE0007E0
3F0007FE000FC0
3F0007FE000FC0
3F80079E000FC0
3F800F9F000F80
1F800F9F001F80
1F800F9F001F80
1FC00F1F801F80
0FC01F0F801F00
0FC01F0F803F00
0FC01F0F803F00
0FE01E0FC03F00
07E03E07C03E00
07E03E07C07E00
07E03E07C07E00
03F03C07E07E00
03F07C03E0FC00
03F07C03E0FC00
03F07C03F0FC00
01F87803F0F800
01F8F801F0F800
01F8F801F1F800
01F8F801F9F800
00F8F000F9F000
00FDF000F9F000
00FDF000F9F000
007DF000FFF000
007DE0007FE000
007FE0007FE000
007FE0007FE000
003FC0007FE000
003FC0003FC000
003FC0003FC000
ENDCHAR
STARTCHAR 0078
ENCODING 120
SWIDTH 450 0
DWIDTH 35 0
BBX 32 38 1 0
BITMAP
7F00007E
3F8000FE
1F8000FC
1FC001FC
0FE001F8
0FE003F0
07F007F0
03F007E0
03F80FE0
01FC0FC0
00FC1F80
00FE1F80
007E3F00
003F3F00
003FFE00
001FFC00
001FFC00
000FF800
000FF800
000FF800
001FF800
003FFC00
003FFE00
007E7E00
00FC7F00
00FC3F80
01F81F80
01F81FC0
03F00FC0
07F00FE0
07E007F0
0FE003F0
0FC003F8
1F8001FC
3F8001FC
3F0000FE
7F00007F
FE00007F
ENDCHAR
STARTCHAR 0079
ENCODING 121
SWIDTH 462 0
DWIDTH 36 0
BBX 34 54 1 -16
BITMAP
FE00000FC0
7E00000FC0
7E00001F80
7F00001F80
3F00001F80
3F80003F00
1F80003F00
1F80003F00
1FC0007E00
0FC0007E00
0FC0007E00
07E000FC00
07E000FC00
07F000FC00
03F001F800
03F001F800
01F801F800
01F803F000
01F803F000
00FC03F000
00FC03E000
007C07E000
007E07E000
007E07C000
003F0FC000
003F0F8000
001F0F8000
001F9F8000
001F9F0000
000F9F0000
000FDF0000
0007FE0000
0007FE0000
0007FE0000
0003FC0000
0003FC0000
0001FC0000
0001F80000
0001F80000
0001F80000
0003F00000
0003F00000
0003F00000
0007E00000
0007E00000
000FC00000
001FC00000
003F800000
11FF000000
3FFF000000
3FFE000000
3FFC000000
3FF0000000
3FC0000000
ENDCHAR
STARTCHAR 007A
ENCODING 122
SWIDTH 424 0
DWIDTH 33 0
BBX 29 38 2 0
BITMAP
1FFFFFF0
1FFFFFF0
1FFFFFF0
1FFFFFF0
1FFFFFF0
00000FE0
00001FC0
00001FC0
00003F80
00007F00
00007F00
0000FE00
0001FC00
0001FC00
0003F800
0007F000
0007F000
000FE000
001FC000
001FC000
003F8000
007F0000
007E0000
00FE0000
01FC0000
01F80000
03F80000
07F00000
07E00000
0FE00000
1FC00000
3F800000
3F800000
7FFFFFF8
FFFFFFF8
FFFFFFF8
FFFFFFF8
FFFFFFF8
ENDCHAR
STARTCHAR 007B
ENCODING 123
SWIDTH 308 0
DWIDTH 24 0
BBX 18 67 3 -12
BITMAP
001FC0
007FC0
00FFC0
01FFC0
03F800
03F000
03E000
03E000
03E000
03E000
03E000
03E000
03E000
03E000
03E000
03E000
03E000
03E000
03E000
03E000
03E000
03E000
03E000
03E000
03E000
03E000
03E000
03E000
07E000
07E000
1FC000
FF8000
FF0000
FF0000
FF8000
3FC000
0FE000
07E000
03E000
03E000
03E000
03E000
03E000
03E000
03E000
03E000
03E000
03E000
03E000
03E000
03E000
03E000
03E000
03E000
03E000
03E000
03E000
03E000
03E000
03E000
03F000
03F000
01F800
01FFC0
00FFC0
007FC0
0007C0
ENDCHAR
STARTCHAR 007C
ENCODING 124
SWIDTH 244 0
DWIDTH 19 0
BBX 5 78 7 -20
BITMAP
F8
F8
F8
F8
F8
F8
F8
F8
F8
F8
F8
F8
F8
F8
F8
F8
F8
F8
F8
F8
F8
F8
F8
F8
F8
F8
F8
F8
F8
F8
F8
F8
F8
F8
F8
F8
F8
F8
F8
F8
F8
F8
F8
F8
F8
F8
F8
F8
F8
F8
F8
F8
F8
F8
F8
F8
F8
F8
F8
F8
F8
F8
F8
F8
F8
F8
F8
F8
F8
F8
F8
F8
F8
F8
F8
F8
F8
F8
ENDCHAR
STARTCHAR 007D
ENCODING 125
SWIDTH 308 0
DWIDTH 24 0
BBX 19 67 2 -12
BITMAP
FF0000
FFC000
FFE000
FFF000
03F000
01F000
01F800
01F800
00F800
00F800
00F800
00F800
00F800
00F800
00F800
00F800
00F800
00F800
00F800
01F000
01F000
01F000
01F000
01F000
01F000
01F000
01F000
00F800
00F800
00FC00
007F00
007FE0
001FE0
001FE0
003FE0
007F00
00FC00
00F800
00F800
01F000
01F000
01F000
01F000
01F000
01F000
01F000
01F000
01F800
00F800
00F800
00F800
00F800
00F800
00F800
00F800
00F800
00F800
00F800
00F800
01F800
01F800
01F000
07F000
FFE000
FFE000
FF8000
FC0000
ENDCHAR
STARTCHAR 007E
ENCODING 126
SWIDTH 501 0
DWIDTH 39 0
BBX 33 11 3 20
BITMAP
01F0000000
07FE000000
1FFF000400
3FFFC00F00
3FFFE01F80
7E0FF03F00
FC03FFFE00
F801FFFC00
3000FFF800
00003FF000
00000FC000
ENDCHAR
STARTCHAR 00A0
ENCODING 160
SWIDTH 205 0
DWIDTH 16 0
BBX 0 0 0 0
BITMAP
ENDCHAR
STARTCHAR 00A1
ENCODING 161
SWIDTH 282 0
DWIDTH 22 0
BBX 9 53 7 -14
BITMAP
3C00
7F00
FF00
FF80
FF80
FF80
FF80
FF00
7E00
1C00
0000
0000
0000
0000
0000
0000
3C00
3E00
3E00
3E00
3E00
3E00
3E00
3E00
3E00
3E00
3E00
3E00
3E00
3E00
3E00
3E00
3E00
3E00
7E00
7E00
7E00
7E00
7E00
7E00
7E00
7E00
7E00
7E00
7E00
7E00
7E00
7E00
7E00
7E00
7E00
7E00
7E00
ENDCHAR
STARTCHAR 00A2
ENCODING 162
SWIDTH 501 0
DWIDTH 39 0
BBX 30 53 5 -2
BITMAP
0001E000
0001E000
0001E000
0001E000
0001E000
0001E000
0001E000
0001E000
0003FE00
001FFF80
007FFFE0
01FFFFF0
03FFFFFC
07FFE7F8
0FF9E0F0
1FE1E060
3FC1E020
3F81E000
7F01E000
7F01E000
7E01E000
FE01E000
FE01E000
FC01E000
FC01E000
FC01E000
FC01E000
FC01E000
FC01E000
FC01E000
FE01E000
FE01E000
FE01E000
7F01E000
7F01E000
7F81E000
3FC1E010
1FE1E030
1FF1E078
0FFFE3FC
07FFFFFC
03FFFFF8
01FFFFF0
007FFFC0
000FFE00
0001E000
0001E000
0001E000
0001E000
0001E000
0001E000
0001E000
0001E000
ENDCHAR
STARTCHAR 00A3
ENCODING 163
SWIDTH 501 0
DWIDTH 39 0
BBX 31 51 4 0
BITMAP
0001FE00
000FFFC0
003FFFF0
007FFFF8
00FFFFFC
01FFC7FE
01FE00FC
03FC0078
03F80010
07F00000
07F00000
07E00000
07E00000
07E00000
07E00000
07E00000
07E00000
07E00000
07E00000
07F00000
03F00000
03F00000
03F00000
01F80000
FFFFFF80
FFFFFF80
FFFFFF80
FFFFFF80
00FC0000
00FC0000
00FC0000
00FC0000
00FC0000
00FC0000
00FC0000
00FC0000
00FC0000
00FC0000
00F80000
01F80000
01F80000
03F00000
07F00000
07E00000
0FC00000
1FFFFFFE
7FFFFFFE
FFFFFFFE
FFFFFFFE
FFFFFFFE
FFFFFFFE
ENDCHAR
STARTCHAR 00A4
ENCODING 164
SWIDTH 501 0
DWIDTH 39 0
BBX 34 36 2 8
BITMAP
1000000000
3000000300
7800000780
FC03F80FC0
7E1FFF1FC0
3F7FFFBF80
3FFFFFFF00
1FFFFFFE00
0FFC07FC00
07F003FC00
0FE000FE00
0FC000FE00
1FC0007E00
1F80003F00
1F80003F00
3F00003F00
3F00003F00
3F00001F00
3F00001F00
3F00001F00
3F00003F00
3F80003F00
1F80003F00
1F80003F00
1FC0007E00
0FC000FE00
0FE001FC00
07F803FC00
0FFE0FFC00
1FFFFFFE00
3FFFFFFF00
7F3FFF9F80
FE1FFE0FC0
7C01F007C0
3800000380
1000000100
ENDCHAR
STARTCHAR 00A5
ENCODING 165
SWIDTH 501 0
DWIDTH 39 0
BBX 35 50 2 0
BITMAP
FE00000FE0
7E00000FC0
7F00001FC0
3F00001F80
3F80003F80
1F80003F00
1F80007F00
0FC0007E00
0FC0007E00
07E000FC00
07E000FC00
03F001F800
03F001F800
01F803F000
01F803F000
00F807E000
00FC07E000
007C07C000
007E0FC000
003E0F8000
003F1F8000
001F1F0000
001FBF0000
000FBE0000
000FFE0000
7FFFFFFF80
7FFFFFFF80
7FFFFFFF80
7FFFFFFF80
0003F00000
0003F00000
0003F00000
0003F00000
0003F00000
7FFFFFFF80
7FFFFFFF80
7FFFFFFF80
7FFFFFFF80
0003F00000
0003F00000
0003F00000
0003F00000
0003F00000
0003F00000
0003F00000
0003F00000
0003F00000
0003F00000
0003F00000
0003F00000
ENDCHAR
STARTCHAR 00A6
ENCODING 166
SWIDTH 244 0
DWIDTH 19 0
BBX 5 78 7 -20
BITMAP
F8
F8
F8
F8
F8
F8
F8
F8
F8
F8
F8
F8
F8
F8
F8
F8
F8
F8
F8
F8
F8
F8
F8
F8
F8
F8
F8
F8
F8
F8
F8
F8
F8
F8
F8
F8
00
00
00
00
00
00
F8
F8
F8
F8
F8
F8
F8
F8
F8
F8
F8
F8
F8
F8
F8
F8
F8
F8
F8
F8
F8
F8
F8
F8
F8
F8
F8
F8
F8
F8
F8
F8
F8
F8
F8
F8
ENDCHAR
STARTCHAR 00A7
ENCODING 167
SWIDTH 501 0
DWIDTH 39 0
BBX 32 58 3 -5
BITMAP
0007F800
003FFF00
00FFFFC0
01FFFFE0
03FFFFF0
03FC0FF0
07F003E0
07E000C0
07E00000
07E00000
07E00000
07E00000
07F00000
07F00000
03FC0000
03FF0000
01FFC000
03FFF000
0FFFFC00
1FFFFF00
3F87FFC0
3F01FFE0
7E003FF0
7E000FF8
7C0003FC
7C0001FE
FC0000FE
7C00007F
7E00003F
7E00003F
7F00003F
3F80001F
3FC0001F
1FF0003F
0FFC003F
07FF807E
03FFE0FE
00FFF9FC
003FFFF8
000FFFF0
0003FFC0
00007FC0
00003FE0
00000FE0
000007F0
000007F0
000003F0
000003F0
000003F0
040003F0
0F0007E0
1F800FE0
3FF03FC0
1FFFFFC0
0FFFFF80
03FFFF00
00FFFC00
001FE000
ENDCHAR
STARTCHAR 00A8
ENCODING 168
SWIDTH 540 0
DWIDTH 42 0
BBX 22 8 10 46
BITMAP
380070
7C00F8
FE01FC
FE01FC
FE01FC
FE01FC
FE00FC
380070
ENDCHAR
STARTCHAR 00A9
ENCODING 169
SWIDTH 745 0
DWIDTH 58 0
BBX 50 52 4 -1
BITMAP
00000FFC000000
0000FFFFC00000
0003FFFFF00000
000FFC0FFC0000
003F8000FF0000
007E00001F8000
00F800000FC000
01F0000003E000
03E0000001F000
07C0000000F800
0F800000007C00
0F0003F8003C00
1E001FFF001E00
1E003FFF801E00
3C00FFFFE00F00
3C01FF0FE00F00
7803F803E00780
7803F000C00780
7807E000000780
F007C000000380
F00FC0000003C0
F00F80000003C0
F00F80000003C0
F00F80000003C0
F01F80000003C0
E01F80000003C0
F01F80000003C0
F01F80000003C0
F00F80000003C0
F00F80000003C0
F00F80000003C0
F00FC0000003C0
7007C000000380
7807E000000780
7803F000400780
7803F801E00700
3C01FE07F00F00
3C00FFFFE00F00
1E007FFFC01E00
1F003FFF003E00
0F0007FC003C00
0F800000007800
07C0000000F800
03E0000001F000
01F0000003E000
00FC00000FC000
007F00001F8000
003FC000FE0000
000FFE1FFC0000
0003FFFFF00000
0000FFFFC00000
00000FFC000000
ENDCHAR
STARTCHAR 00AA
ENCODING 170
SWIDTH 347 0
DWIDTH 27 0
BBX 20 26 3 30
BITMAP
01FE00
0FFF80
3FFFC0
7FFFE0
3E07E0
3803F0
0001F0
0001F0
0001F0
0001F0
007FF0
03FFF0
0FFFF0
3FC1F0
7E01F0
7C01F0
F801F0
F801F0
F801F0
F801F0
F803F0
FC0FF0
7FFFF0
3FFCF0
1FF8F0
0FE000
ENDCHAR
STARTCHAR 00AB
ENCODING 171
SWIDTH 424 0
DWIDTH 33 0
BBX 26 29 3 5
BITMAP
00100100
00380380
007C07C0
00F80F80
01F01F80
03E01F00
07E03E00
0FC07C00
0F80FC00
1F01F800
3F03F000
7E07E000
FC07C000
F807C000
F8078000
F807C000
FC07E000
7E07E000
3F03F000
1F01F800
0F80F800
07C07C00
07E03E00
03E01F00
01F01F00
00F80F80
007C07C0
00380380
00100100
ENDCHAR
STARTCHAR 00AC
ENCODING 172
SWIDTH 501 0
DWIDTH 39 0
BBX 33 20 3 8
BITMAP
FFFFFFFF80
FFFFFFFF80
FFFFFFFF80
FFFFFFFF80
FFFFFFFF80
0000000F80
0000000F80
0000000F80
0000000F80
0000000F80
0000000F80
0000000F80
0000000F80
0000000F80
0000000F80
0000000F80
0000000F80
0000000F80
0000000F80
0000000F80
ENDCHAR
STARTCHAR 00AD
ENCODING 173
SWIDTH 308 0
DWIDTH 24 0
BBX 18 5 3 17
BITMAP
FFFFC0
FFFFC0
FFFFC0
FFFFC0
FFFFC0
ENDCHAR
STARTCHAR 00AE
ENCODING 174
SWIDTH 424 0
DWIDTH 33 0
BBX 29 31 2 24
BITMAP
001FC000
00FFF800
03FFFE00
07E03F00
0F000F80
1E0003C0
3C0001E0
387F00E0
787FE0F0
707FF070
F070F870
E0707878
E0707838
E0707838
E070F038
E07FE038
E07FC038
E071C038
E070E038
F070F078
70707070
70707870
787038F0
380000E0
3C0001C0
1E0003C0
0F800F80
07E03F00
03FFFC00
00FFF800
001FC000
ENDCHAR
STARTCHAR 00AF
ENCODING 175
SWIDTH 540 0
DWIDTH 42 0
BBX 20 4 11 47
BITMAP
FFFFF0
FFFFF0
FFFFF0
FFFFF0
ENDCHAR
STARTCHAR 00B0
ENCODING 176
SWIDTH 334 0
DWIDTH 26 0
BBX 20 20 3 33
BITMAP
01F800
07FE00
1FFF80
3FFFC0
3E07C0
7C03E0
7801E0
F001E0
F000F0
F000F0
F000F0
F000F0
7801E0
7801E0
7C03E0
3F0FC0
1FFF80
0FFF00
07FC00
006000
ENDCHAR
STARTCHAR 00B1
ENCODING 177
SWIDTH 501 0
DWIDTH 39 0
BBX 33 44 3 0
BITMAP
0003E00000
0003E00000
0003E00000
0003E00000
0003E00000
0003E00000
0003E00000
0003E00000
0003E00000
0003E00000
0003E00000
0003E00000
0003E00000
0003E00000
0003E00000
FFFFFFFF80
FFFFFFFF80
FFFFFFFF80
FFFFFFFF80
FFFFFFFF80
0003E00000
0003E00000
0003E00000
0003E00000
0003E00000
0003E00000
0003E00000
0003E00000
0003E00000
0003E00000
0003E00000
0003E00000
0003E00000
0003E00000
0000000000
0000000000
0000000000
0000000000
0000000000
FFFFFFFF80
FFFFFFFF80
FFFFFFFF80
FFFFFFFF80
FFFFFFFF80
ENDCHAR
STARTCHAR 00B2
ENCODING 178
SWIDTH 372 0
DWIDTH 29 0
BBX 22 31 3 31
BITMAP
01FC00
07FF00
1FFFC0
3FFFE0
7F1FE0
FC07F0
7803F0
3001F0
0001F0
0001F0
0001F0
0001F0
0001F0
0001F0
0003E0
0003E0
0007C0
000FC0
001F80
001F00
003E00
007C00
00F800
03F000
07E000
0FE000
1FC000
3FFFFC
7FFFFC
7FFFFC
7FFFFC
ENDCHAR
STARTCHAR 00B3
ENCODING 179
SWIDTH 372 0
DWIDTH 29 0
BBX 22 32 3 30
BITMAP
00FC00
07FF80
0FFFC0
3FFFE0
7F07F0
3C03F0
1801F0
0001F8
0000F8
0000F0
0001F0
0001F0
0007E0
001FC0
01FF80
01FF00
01FFC0
001FE0
0003F0
0000F8
0000F8
00007C
00007C
00007C
30007C
F800F8
FC01F8
7F03F0
3FFFF0
1FFFE0
07FF80
01FE00
ENDCHAR
STARTCHAR 00B4
ENCODING 180
SWIDTH 540 0
DWIDTH 42 0
BBX 15 16 17 45
BITMAP
0020
0070
0078
00FC
01FE
03FC
07F8
0FF0
0FE0
1FC0
3F80
7F00
FE00
FC00
7800
3000
ENDCHAR
STARTCHAR 00B5
ENCODING 181
SWIDTH 565 0
DWIDTH 44 0
BBX 36 52 6 -14
BITMAP
FE0000FC00
FE0000FC00
FE0000FC00
FE0000FC00
FE0000FC00
FE0000FC00
FE0000FC00
FE0000FC00
FE0000FC00
FE0000FC00
FE0000FC00
FE0000FC00
FE0000FC00
FE0000FC00
FE0000FC00
FE0000FC00
FE0000FC00
FE0000FC00
FE0000FC00
FE0000FC00
FE0000FC00
FE0000FC00
FE0000FC00
FE0000FC00
FE0000FC00
FE0000FC00
FE0000FC00
FE0001FC00
FE0003FC00
FF0003FC00
FF0007FC00
FF800FFC00
FFC03FFC00
FFF1FE7E20
FFFFFC7FE0
FFFFF87FE0
FDFFF03FE0
FCFFE01FF0
FC3F800FE0
FC00000000
FC00000000
FC00000000
FC00000000
FC00000000
FC00000000
FE00000000
FE00000000
FE00000000
FE00000000
FE00000000
FE00000000
FE00000000
ENDCHAR
STARTCHAR 00B6
ENCODING 182
SWIDTH 565 0
DWIDTH 44 0
BBX 33 57 3 -6
BITMAP
0007FC1F80
003FFC1F80
01FFFC1F80
03FFFC1F80
07FFFC1F80
0FFFFC1F80
1FFFFC1F80
3FFFFC1F80
3FFFFC1F80
7FFFFC1F80
7FFFFC1F80
7FFFFC1F80
7FFFFC1F80
FFFFFC1F80
FFFFFC1F80
FFFFFC1F80
FFFFFC1F80
FFFFFC1F80
FFFFFC1F80
FFFFFC1F80
7FFFFC1F80
7FFFFC1F80
7FFFFC1F80
7FFFFC1F80
3FFFFC1F80
3FFFFC1F80
1FFFFC1F80
0FFFFC1F80
07FFFC1F80
03FFFC1F80
01FFFC1F80
007FFC1F80
000FFC1F80
0000001F80
0000001F80
0000001F80
0000001F80
0000001F80
0000001F80
0000001F80
0000001F80
0000001F80
0000001F80
0000001F80
0000001F80
0000001F80
0000001F80
0000001F80
0000001F80
0000001F80
0000001F80
0000001F80
0000001F80
0000001F80
0000001F80
0000001F80
0000001F80
ENDCHAR
STARTCHAR 00B7
ENCODING 183
SWIDTH 244 0
DWIDTH 19 0
BBX 9 10 5 20
BITMAP
1E00
7F00
7F80
FF80
FF80
FF80
FF80
7F80
7F00
1C00
ENDCHAR
STARTCHAR 00B8
ENCODING 184
SWIDTH 540 0
DWIDTH 42 0
BBX 14 18 14 -18
BITMAP
03C0
07C0
0780
0F80
0F00
0F00
1FE0
0FF0
01F8
00F8
007C
007C
00F8
01F8
0FF0
FFE0
FF80
7800
ENDCHAR
STARTCHAR 00B9
ENCODING 185
SWIDTH 372 0
DWIDTH 29 0
BBX 11 30 7 31
BITMAP
01E0
07E0
3FE0
FFE0
FFE0
FFE0
03E0
03E0
03E0
03E0
03E0
03E0
03E0
03E0
03E0
03E0
03E0
03E0
03E0
03E0
03E0
03E0
03E0
03E0
03E0
03E0
03E0
03E0
03E0
03E0
ENDCHAR
STARTCHAR 00BA
ENCODING 186
SWIDTH 360 0
DWIDTH 28 0
BBX 24 26 2 30
BITMAP
007F00
03FFC0
07FFF0
0FFFF8
1FC1F8
3F00FC
3E007E
7C003E
7C003E
7C001F
78001F
F8001F
F8001F
F8001F
F8001F
78001F
7C001F
7C003E
7E003E
3E007E
3F00FC
1FC1F8
0FFFF8
07FFE0
03FFC0
007F00
ENDCHAR
STARTCHAR 00BB
ENCODING 187
SWIDTH 424 0
DWIDTH 33 0
BBX 26 29 4 5
BITMAP
20010000
70078000
F8078000
7C07C000
3E03E000
1F01F000
1F80F800
0FC0FC00
07C07E00
03E03F00
03F01F00
01F81F80
00FC0FC0
007C07C0
007C03C0
007C07C0
00FC0FC0
01F81F80
03F01F00
03E03F00
07C07E00
0F80FC00
1F80F800
1F01F000
3E03E000
7C07C000
F8078000
70070000
20010000
ENDCHAR
STARTCHAR 00BC
ENCODING 188
SWIDTH 784 0
DWIDTH 61 0
BBX 53 53 5 -1
BITMAP
00000000078000
01E000000F8000
07E000000F0000
1FE000001F0000
FFE000001E0000
FFE000003E0000
FFE000003C0000
03E000007C0000
03E00000780000
03E00000F00000
03E00000F00000
03E00001E00000
03E00001E00000
03E00003C00000
03E00007C00000
03E00007800000
03E0000F800000
03E0000F000000
03E0001F000000
03E0001E000000
03E0003E000000
03E0003C000000
03E0007C001F80
03E00078003F80
03E000F8007F80
03E000F0007F80
03E001E000FF80
03E001E000FF80
03E003C001EF80
03E007C003CF80
03E0078003CF80
03E00F80078F80
00000F000F8F80
00001F000F0F80
00001E001E0F80
00003E003E0F80
00003C003C0F80
00007C00780F80
00007800F80F80
0000F800F00F80
0000F001FFFFF8
0001E003FFFFF8
0001E003FFFFF8
0003C003FFFFF8
0003C000000F80
00078000000F80
000F8000000F80
000F0000000F80
001F0000000F80
001E0000000F80
003E0000000F80
003C0000000F80
007C0000000000
ENDCHAR
STARTCHAR 00BD
ENCODING 189
SWIDTH 810 0
DWIDTH 63 0
BBX 54 53 5 -1
BITMAP
000000001F0000
01E000001E0000
07E000003E0000
1FE000003C0000
FFE000007C0000
FFE00000780000
FFE00000F80000
03E00000F00000
03E00001E00000
03E00001E00000
03E00003C00000
03E00003C00000
03E00007800000
03E0000F800000
03E0000F000000
03E0001F000000
03E0001E000000
03E0003E000000
03E0003C000000
03E0007C000000
03E00078000000
03E000F801FE00
03E000F007FF80
03E001E01FFFC0
03E001E03FFFE0
03E003C07F0FF0
03E003C07C03F0
03E007807801F0
03E00F803001F8
03E00F000000F8
03E01F000000F8
00001E000000F8
00003E000000F0
00003C000001F0
00007C000001F0
000078000001E0
0000F8000003E0
0000F0000007C0
0001F000000FC0
0001E000001F80
0003C000001F00
0003C000003E00
00078000007C00
000F800000F800
000F000003F800
001F000007F000
001E00000FE000
003E00001FC000
003C00003FFFFC
007C00007FFFFC
007800007FFFFC
00F800007FFFFC
00F00000000000
ENDCHAR
STARTCHAR 00BE
ENCODING 190
SWIDTH 797 0
DWIDTH 62 0
BBX 56 53 3 -1
BITMAP
01FC0000003C00
07FF8000007C00
0FFFC000007800
3FFFE00000F800
7F07F00000F000
7C03F00001F000
1801F00001E000
0001F00003C000
0000F00003C000
0000F000078000
0001F000078000
0001F0000F0000
0007E0001F0000
001FC0001E0000
01FF80003E0000
01FF00003C0000
01FFC0007C0000
001FE000780000
0003F000F80000
0001F800F00000
0000F801F00000
00007C01E00000
00007C03E003F0
00007C03C007F0
3000FC078007F0
F800F807800FF0
FC01F80F001FF0
7F03F01F001EF0
3FFFF01E003CF0
1FFFE03E007CF0
07FF803C0078F0
01FE007C00F0F0
0000007801F1F0
000000F801E1F0
000000F003C1F0
000001F007C1F0
000001E00781F0
000003E00F81F0
000003C01F01F0
000007801E01F0
000007803FFFFF
00000F003FFFFF
00000F003FFFFF
00001E003FFFFF
00003E000001F0
00003C000001F0
00007C000001F0
000078000001F0
0000F8000001F0
0000F0000001F0
0001F0000001F0
0001E0000001F0
0003E000000000
ENDCHAR
STARTCHAR 00BF
ENCODING 191
SWIDTH 424 0
DWIDTH 33 0
BBX 26 54 4 -15
BITMAP
000F0000
003F8000
003FC000
007FC000
007FC000
007FC000
007FC000
003FC000
003F8000
000E0000
00000000
00000000
00000000
00000000
00000000
00000000
001F8000
001F8000
001F8000
001F8000
001F8000
001F8000
003F0000
003F0000
007F0000
007E0000
00FE0000
01FC0000
01F80000
03F80000
07F00000
0FE00000
1FC00000
1FC00000
3F800000
3F000000
7E000000
7E000000
FE000000
FC000000
FC000000
FC000000
FC000000
FC000000
FE000000
FE000200
FF000F80
7F801FC0
7FE07FC0
3FFFFF00
1FFFFE00
0FFFFC00
07FFF000
01FFC000
ENDCHAR
STARTCHAR 00C0
ENCODING 192
SWIDTH 540 0
DWIDTH 42 0
BBX 42 67 0 0
BITMAP
000600000000
000700000000
000F80000000
001FC0000000
001FF0000000
0007F8000000
0003FC000000
0001FE000000
00007F000000
00003F800000
00001F000000
000006000000
000002000000
000000000000
000000000000
000000000000
00007F800000
00007F800000
00007FC00000
0000FFC00000
0000FFC00000
0000FFE00000
0001FFE00000
0001F3E00000
0001F3F00000
0003F3F00000
0003E1F00000
0003E1F80000
0007E1F80000
0007E0F80000
0007C0FC0000
000FC0FC0000
000FC0FC0000
000F807E0000
001F807E0000
001F807E0000
001F003F0000
003F003F0000
003F003F0000
003E001F8000
007E001F8000
007E001F8000
007C000FC000
00FC000FC000
00FC000FC000
01FC0007E000
01FFFFFFE000
01FFFFFFE000
03FFFFFFF000
03FFFFFFF000
03FFFFFFF000
07F00003F800
07E00001F800
07E00001FC00
0FE00001FC00
0FC00000FC00
0FC00000FE00
1FC00000FE00
1F8000007E00
1F8000007F00
3F8000007F00
3F8000007F00
3F0000003F80
7F0000003F80
7F0000003F80
7E0000001FC0
FE0000001FC0
ENDCHAR
STARTCHAR 00C1
ENCODING 193
SWIDTH 540 0
DWIDTH 42 0
BBX 42 67 0 0
BITMAP
000000180000
000000380000
0000007C0000
000000FE0000
000003FE0000
000007F80000
00000FF00000
00001FE00000
00003F800000
00007F000000
00003E000000
000018000000
000010000000
000000000000
000000000000
000000000000
00007F800000
00007F800000
00007FC00000
0000FFC00000
0000FFC00000
0000FFE00000
0001FFE00000
0001F3E00000
0001F3F00000
0003F3F00000
0003E1F00000
0003E1F80000
0007E1F80000
0007E0F80000
0007C0FC0000
000FC0FC0000
000FC0FC0000
000F807E0000
001F807E0000
001F807E0000
001F003F0000
003F003F0000
003F003F0000
003E001F8000
007E001F8000
007E001F8000
007C000FC000
00FC000FC000
00FC000FC000
01FC0007E000
01FFFFFFE000
01FFFFFFE000
03FFFFFFF000
03FFFFFFF000
03FFFFFFF000
07F00003F800
07E00001F800
07E00001FC00
0FE00001FC00
0FC00000FC00
0FC00000FE00
1FC00000FE00
1F8000007E00
1F8000007F00
3F8000007F00
3F8000007F00
3F0000003F80
7F0000003F80
7F0000003F80
7E0000001FC0
FE0000001FC0
ENDCHAR
STARTCHAR 00C2
ENCODING 194
SWIDTH 540 0
DWIDTH 42 0
BBX 42 65 0 0
BITMAP
00007F800000
0000FFC00000
0001FFE00000
0003FFF00000
0007F3F80000
000FE1FC0000
000F807C0000
001F003E0000
003E001F0000
001C000E0000
000800040000
000000000000
000000000000
000000000000
00007F800000
00007F800000
00007FC00000
0000FFC00000
0000FFC00000
0000FFE00000
0001FFE00000
0001F3E00000
0001F3F00000
0003F3F00000
0003E1F00000
0003E1F80000
0007E1F80000
0007E0F80000
0007C0FC0000
000FC0FC0000
000FC0FC0000
000F807E0000
001F807E0000
001F807E0000
001F003F0000
003F003F0000
003F003F0000
003E001F8000
007E001F8000
007E001F8000
007C000FC000
00FC000FC000
00FC000FC000
01FC0007E000
01FFFFFFE000
01FFFFFFE000
03FFFFFFF000
03FFFFFFF000
03FFFFFFF000
07F00003F800
07E00001F800
07E00001FC00
0FE00001FC00
0FC00000FC00
0FC00000FE00
1FC00000FE00
1F8000007E00
1F8000007F00
3F8000007F00
3F8000007F00
3F0000003F80
7F0000003F80
7F0000003F80
7E0000001FC0
FE0000001FC0
ENDCHAR
STARTCHAR 00C3
ENCODING 195
SWIDTH 540 0
DWIDTH 42 0
BBX 42 66 0 0
BITMAP
000780000000
001FE003E000
003FF803E000
007FFC03C000
007FFE07C000
00FC7F07C000
00F81FFFC000
00F00FFF8000
01F007FF0000
01F003FE0000
000000F80000
000000000000
000000000000
000000000000
000000000000
00007F800000
00007F800000
00007FC00000
0000FFC00000
0000FFC00000
0000FFE00000
0001FFE00000
0001F3E00000
0001F3F00000
0003F3F00000
0003E1F00000
0003E1F80000
0007E1F80000
0007E0F80000
0007C0FC0000
000FC0FC0000
000FC0FC0000
000F807E0000
001F807E0000
001F807E0000
001F003F0000
003F003F0000
003F003F0000
003E001F8000
007E001F8000
007E001F8000
007C000FC000
00FC000FC000
00FC000FC000
01FC0007E000
01FFFFFFE000
01FFFFFFE000
03FFFFFFF000
03FFFFFFF000
03FFFFFFF000
07F00003F800
07E00001F800
07E00001FC00
0FE00001FC00
0FC00000FC00
0FC00000FE00
1FC00000FE00
1F8000007E00
1F8000007F00
3F8000007F00
3F8000007F00
3F0000003F80
7F0000003F80
7F0000003F80
7E0000001FC0
FE0000001FC0
ENDCHAR
STARTCHAR 00C4
ENCODING 196
SWIDTH 540 0
DWIDTH 42 0
BBX 42 63 0 0
BITMAP
001E001E0000
003F003F0000
007F807F8000
007F807F8000
007F807F8000
003F003F0000
003F003F0000
000C000C0000
000000000000
000000000000
000000000000
000000000000
00007F800000
00007F800000
00007FC00000
0000FFC00000
0000FFC00000
0000FFE00000
0001FFE00000
0001F3E00000
0001F3F00000
0003F3F00000
0003E1F00000
0003E1F80000
0007E1F80000
0007E0F80000
0007C0FC0000
000FC0FC0000
000FC0FC0000
000F807E0000
001F807E0000
001F807E0000
001F003F0000
003F003F0000
003F003F0000
003E001F8000
007E001F8000
007E001F8000
007C000FC000
00FC000FC000
00FC000FC000
01FC0007E000
01FFFFFFE000
01FFFFFFE000
03FFFFFFF000
03FFFFFFF000
03FFFFFFF000
07F00003F800
07E00001F800
07E00001FC00
0FE00001FC00
0FC00000FC00
0FC00000FE00
1FC00000FE00
1F8000007E00
1F8000007F00
3F8000007F00
3F8000007F00
3F0000003F80
7F0000003F80
7F0000003F80
7E0000001FC0
FE0000001FC0
ENDCHAR
STARTCHAR 00C5
ENCODING 197
SWIDTH 540 0
DWIDTH 42 0
BBX 42 68 0 0
BITMAP
00003F000000
0000FFC00000
0001FFE00000
0003E1F00000
0003C0F00000
000380700000
000780780000
000780780000
000380700000
0003C0F00000
0003E1F00000
0001FFE00000
0000FFC00000
00001E000000
000000000000
000000000000
000000000000
00007F800000
00007F800000
00007FC00000
0000FFC00000
0000FFC00000
0000FFE00000
0001FFE00000
0001F3E00000
0001F3F00000
0003F3F00000
0003E1F00000
0003E1F80000
0007E1F80000
0007E0F80000
0007C0FC0000
000FC0FC0000
000FC0FC0000
000F807E0000
001F807E0000
001F807E0000
001F003F0000
003F003F0000
003F003F0000
003E001F8000
007E001F8000
007E001F8000
007C000FC000
00FC000FC000
00FC000FC000
01FC0007E000
01FFFFFFE000
01FFFFFFE000
03FFFFFFF000
03FFFFFFF000
03FFFFFFF000
07F00003F800
07E00001F800
07E00001FC00
0FE00001FC00
0FC00000FC00
0FC00000FE00
1FC00000FE00
1F8000007E00
1F8000007F00
3F8000007F00
3F8000007F00
3F0000003F80
7F0000003F80
7F0000003F80
7E0000001FC0
FE0000001FC0
ENDCHAR
STARTCHAR 00C6
ENCODING 198
SWIDTH 822 0
DWIDTH 64 0
BBX 59 51 1 0
BITMAP
0000003FFFFFFFC0
0000003FFFFFFFC0
0000007FFFFFFFC0
0000007FFFFFFFC0
000000FFFFFFFFC0
000001FFF8000000
000001FBF8000000
000003FBF8000000
000003F3F8000000
000007F3F8000000
000007E3F8000000
00000FE3F8000000
00000FC3F8000000
00001FC3F8000000
00001F83F8000000
00003F83F8000000
00003F03F8000000
00007F03F8000000
00007E03F8000000
0000FE03F8000000
0000FC03F8000000
0001FC03FFFFFE00
0001F803FFFFFE00
0003F803FFFFFE00
0003F003FFFFFE00
0007F003FFFFFE00
000FE003FFFFFE00
000FE003F8000000
001FC003F8000000
001FC003F8000000
003F8003F8000000
003FFFFFF8000000
007FFFFFF8000000
007FFFFFF8000000
00FFFFFFF8000000
00FFFFFFF8000000
01FC0003F8000000
01F80003F8000000
03F80003F8000000
03F00003F8000000
07F00003F8000000
07E00003F8000000
0FE00003F8000000
0FC00003F8000000
1FC00003F8000000
3F800003FFFFFFE0
3F800003FFFFFFE0
7F000003FFFFFFE0
7F000003FFFFFFE0
FE000003FFFFFFE0
FE000003FFFFFFE0
ENDCHAR
STARTCHAR 00C7
ENCODING 199
SWIDTH 565 0
DWIDTH 44 0
BBX 38 70 4 -18
BITMAP
00003FE000
0001FFFC00
000FFFFF00
001FFFFFC0
007FFFFFE0
00FFFFFFF0
01FFC01FF8
03FE0007F0
07FC0001E0
07F80000C0
0FF0000000
0FE0000000
1FC0000000
1FC0000000
3F80000000
3F80000000
7F00000000
7F00000000
7F00000000
7E00000000
7E00000000
FE00000000
FE00000000
FE00000000
FE00000000
FE00000000
FE00000000
FE00000000
FE00000000
FE00000000
FE00000000
FE00000000
FE00000000
7F00000000
7F00000000
7F00000000
7F00000000
3F80000000
3F80000000
3FC0000000
1FC0000000
1FE0000000
0FF0000020
0FF80000F0
07FC0001F8
03FE0003FC
01FF800FF8
00FFFFFFF0
007FFFFFE0
003FFFFFC0
000FFFFF00
0003FFFC00
00007FE000
00000F8000
00000F0000
00001F0000
00001E0000
00001F0000
00003FC000
00000FF000
000003F000
000001F800
000000F800
000000F800
000001F800
000003F000
00001FE000
0001FFC000
0000FF0000
0000F80000
ENDCHAR
STARTCHAR 00C8
ENCODING 200
SWIDTH 527 0
DWIDTH 41 0
BBX 30 67 7 0
BITMAP
01800000
01C00000
03E00000
07F80000
07FC0000
01FE0000
00FF0000
007F8000
001FC000
000FE000
0007C000
0001C000
00008000
00000000
00000000
00000000
FFFFFFF8
FFFFFFF8
FFFFFFF8
FFFFFFF8
FFFFFFF8
FC000000
FC000000
FC000000
FC000000
FC000000
FC000000
FC000000
FC000000
FC000000
FC000000
FC000000
FC000000
FC000000
FC000000
FC000000
FC000000
FFFFFFC0
FFFFFFC0
FFFFFFC0
FFFFFFC0
FFFFFFC0
FFFFFFC0
FC000000
FC000000
FC000000
FC000000
FC000000
FC000000
FC000000
FC000000
FC000000
FC000000
FC000000
FC000000
FC000000
FC000000
FC000000
FC000000
FC000000
FC000000
FFFFFFFC
FFFFFFFC
FFFFFFFC
FFFFFFFC
FFFFFFFC
FFFFFFFC
ENDCHAR
STARTCHAR 00C9
ENCODING 201
SWIDTH 527 0
DWIDTH 41 0
BBX 30 67 7 0
BITMAP
00000600
00000F00
00001F00
00003F80
0000FF80
0001FE00
0003FC00
0007F800
000FE000
001FC000
000F8000
00060000
00040000
00000000
00000000
00000000
FFFFFFF8
FFFFFFF8
FFFFFFF8
FFFFFFF8
FFFFFFF8
FC000000
FC000000
FC000000
FC000000
FC000000
FC000000
FC000000
FC000000
FC000000
FC000000
FC000000
FC000000
FC000000
FC000000
FC000000
FC000000
FFFFFFC0
FFFFFFC0
FFFFFFC0
FFFFFFC0
FFFFFFC0
FFFFFFC0
FC000000
FC000000
FC000000
FC000000
FC000000
FC000000
FC000000
FC000000
FC000000
FC000000
FC000000
FC000000
FC000000
FC000000
FC000000
FC000000
FC000000
FC000000
FFFFFFFC
FFFFFFFC
FFFFFFFC
FFFFFFFC
FFFFFFFC
FFFFFFFC
ENDCHAR
STARTCHAR 00CA
ENCODING 202
SWIDTH 527 0
DWIDTH 41 0
BBX 30 65 7 0
BITMAP
001FE000
003FF000
007FF800
00FFFC00
00FCFE00
01F83F00
03E01F80
07C00F80
0F8007C0
070003C0
02000000
00000000
00000000
00000000
FFFFFFF8
FFFFFFF8
FFFFFFF8
FFFFFFF8
FFFFFFF8
FC000000
FC000000
FC000000
FC000000
FC000000
FC000000
FC000000
FC000000
FC000000
FC000000
FC000000
FC000000
FC000000
FC000000
FC000000
FC000000
FFFFFFC0
FFFFFFC0
FFFFFFC0
FFFFFFC0
FFFFFFC0
FFFFFFC0
FC000000
FC000000
FC000000
FC000000
FC000000
FC000000
FC000000
FC000000
FC000000
FC000000
FC000000
FC000000
FC000000
FC000000
FC000000
FC000000
FC000000
FC000000
FFFFFFFC
FFFFFFFC
FFFFFFFC
FFFFFFFC
FFFFFFFC
FFFFFFFC
ENDCHAR
STARTCHAR 00CB
ENCODING 203
SWIDTH 527 0
DWIDTH 41 0
BBX 30 63 7 0
BITMAP
07800780
0FC00FC0
1FE00FE0
1FE01FE0
1FE01FE0
0FE00FE0
0FC00FC0
03000300
00000000
00000000
00000000
00000000
FFFFFFF8
FFFFFFF8
FFFFFFF8
FFFFFFF8
FFFFFFF8
FC000000
FC000000
FC000000
FC000000
FC000000
FC000000
FC000000
FC000000
FC000000
FC000000
FC000000
FC000000
FC000000
FC000000
FC000000
FC000000
FFFFFFC0
FFFFFFC0
FFFFFFC0
FFFFFFC0
FFFFFFC0
FFFFFFC0
FC000000
FC000000
FC000000
FC000000
FC000000
FC000000
FC000000
FC000000
FC000000
FC000000
FC000000
FC000000
FC000000
FC000000
FC000000
FC000000
FC000000
FC000000
FFFFFFFC
FFFFFFFC
FFFFFFFC
FFFFFFFC
FFFFFFFC
FFFFFFFC
ENDCHAR
STARTCHAR 00CC
ENCODING 204
SWIDTH 257 0
DWIDTH 20 0
BBX 14 67 0 0
BITMAP
1000
3800
7E00
FF00
7F80
3FC0
1FE0
0FF0
03F8
01FC
00FC
0038
0010
0000
0000
0000
01F8
01F8
01F8
01F8
01F8
01F8
01F8
01F8
01F8
01F8
01F8
01F8
01F8
01F8
01F8
01F8
01F8
01F8
01F8
01F8
01F8
01F8
01F8
01F8
01F8
01F8
01F8
01F8
01F8
01F8
01F8
01F8
01F8
01F8
01F8
01F8
01F8
01F8
01F8
01F8
01F8
01F8
01F8
01F8
01F8
01F8
01F8
01F8
01F8
01F8
01F8
ENDCHAR
STARTCHAR 00CD
ENCODING 205
SWIDTH 257 0
DWIDTH 20 0
BBX 14 67 6 0
BITMAP
0030
0078
00FC
01FC
03FC
0FF8
1FE0
3FC0
7F80
FE00
7C00
3800
0000
0000
0000
0000
7E00
7E00
7E00
7E00
7E00
7E00
7E00
7E00
7E00
7E00
7E00
7E00
7E00
7E00
7E00
7E00
7E00
7E00
7E00
7E00
7E00
7E00
7E00
7E00
7E00
7E00
7E00
7E00
7E00
7E00
7E00
7E00
7E00
7E00
7E00
7E00
7E00
7E00
7E00
7E00
7E00
7E00
7E00
7E00
7E00
7E00
7E00
7E00
7E00
7E00
7E00
ENDCHAR
STARTCHAR 00CE
ENCODING 206
SWIDTH 257 0
DWIDTH 20 0
BBX 22 65 -1 0
BITMAP
01FE00
03FF00
03FF80
07FFC0
0FCFE0
1F83F0
3F01F8
7C00FC
F8007C
70003C
200000
000000
000000
000000
00FC00
00FC00
00FC00
00FC00
00FC00
00FC00
00FC00
00FC00
00FC00
00FC00
00FC00
00FC00
00FC00
00FC00
00FC00
00FC00
00FC00
00FC00
00FC00
00FC00
00FC00
00FC00
00FC00
00FC00
00FC00
00FC00
00FC00
00FC00
00FC00
00FC00
00FC00
00FC00
00FC00
00FC00
00FC00
00FC00
00FC00
00FC00
00FC00
00FC00
00FC00
00FC00
00FC00
00FC00
00FC00
00FC00
00FC00
00FC00
00FC00
00FC00
00FC00
ENDCHAR
STARTCHAR 00CF
ENCODING 207
SWIDTH 257 0
DWIDTH 20 0
BBX 24 63 -2 0
BITMAP
3C003C
7E007E
7F007F
FF00FF
FF00FF
7F007F
7E007E
180018
000000
000000
000000
000000
007E00
007E00
007E00
007E00
007E00
007E00
007E00
007E00
007E00
007E00
007E00
007E00
007E00
007E00
007E00
007E00
007E00
007E00
007E00
007E00
007E00
007E00
007E00
007E00
007E00
007E00
007E00
007E00
007E00
007E00
007E00
007E00
007E00
007E00
007E00
007E00
007E00
007E00
007E00
007E00
007E00
007E00
007E00
007E00
007E00
007E00
007E00
007E00
007E00
007E00
007E00
ENDCHAR
STARTCHAR 00D0
ENCODING 208
SWIDTH 642 0
DWIDTH 50 0
BBX 43 51 3 0
BITMAP
03FFFF800000
03FFFFF00000
03FFFFFE0000
03FFFFFF8000
03FFFFFFC000
03F00FFFE000
03F0007FF000
03F0000FF800
03F00007FC00
03F00003FE00
03F00001FE00
03F00000FF00
03F000007F00
03F000007F80
03F000003F80
03F000003F80
03F000001FC0
03F000001FC0
03F000001FC0
03F000001FC0
03F000000FC0
03F000000FC0
1FFFFF000FE0
FFFFFF000FE0
FFFFFF000FE0
FFFFFF000FE0
03F000000FE0
03F000000FE0
03F000000FC0
03F000000FC0
03F000000FC0
03F000001FC0
03F000001FC0
03F000001FC0
03F000001FC0
03F000003F80
03F000003F80
03F000007F80
03F000007F00
03F00000FF00
03F00001FE00
03F00003FE00
03F00007FC00
03F0000FF800
03F0007FF000
03F007FFE000
03FFFFFFC000
03FFFFFF0000
03FFFFFE0000
03FFFFF00000
03FFFF000000
ENDCHAR
STARTCHAR 00D1
ENCODING 209
SWIDTH 642 0
DWIDTH 50 0
BBX 36 66 7 0
BITMAP
001E000000
007F800F00
01FFC00F00
01FFE01F00
03FFF81F00
03E1FC3E00
07C0FFFE00
07C07FFC00
07803FFC00
07800FF800
000007E000
0000000000
0000000000
0000000000
0000000000
FE000003F0
FF000003F0
FF000003F0
FF800003F0
FF800003F0
FFC00003F0
FFC00003F0
FFE00003F0
FBF00003F0
FBF00003F0
FDF80003F0
FDF80003F0
FCFC0003F0
FCFC0003F0
FC7E0003F0
FC7F0003F0
FC3F0003F0
FC3F8003F0
FC1F8003F0
FC1FC003F0
FC0FC003F0
FC07E003F0
FC07F003F0
FC03F003F0
FC03F803F0
FC01F803F0
FC01FC03F0
FC00FE03F0
FC007E03F0
FC007F03F0
FC003F03F0
FC003F83F0
FC001F83F0
FC000FC3F0
FC000FC3F0
FC0007E1F0
FC0007E1F0
FC0003F1F0
FC0003F9F0
FC0001F9F0
FC0000FDF0
FC0000FDF0
FC00007FF0
FC00007FF0
FC00003FF0
FC00003FF0
FC00001FF0
FC00000FF0
FC00000FF0
FC000007F0
FC000007F0
ENDCHAR
STARTCHAR 00D2
ENCODING 210
SWIDTH 668 0
DWIDTH 52 0
BBX 44 68 4 -1
BITMAP
000300000000
000780000000
000FC0000000
000FE0000000
000FF0000000
0003FC000000
0001FE000000
0000FF000000
00007F800000
00001FC00000
00000F800000
000007000000
000000000000
000000000000
000000000000
00007FE00000
0003FFFC0000
000FFFFF0000
003FFFFFC000
007FFFFFE000
00FFFFFFF000
01FF801FF800
03FE0007FC00
07F80003FE00
0FF00001FE00
0FE00000FF00
1FE000007F80
1FC000003F80
3F8000003F80
3F8000001FC0
3F8000001FC0
7F0000001FC0
7F0000000FE0
7F0000000FE0
7E0000000FE0
FE0000000FE0
FE00000007E0
FE00000007F0
FE00000007F0
FE00000007F0
FE00000007F0
FE00000007F0
FE00000007F0
FE00000007F0
FE00000007F0
FE00000007E0
FE00000007E0
7E0000000FE0
7F0000000FE0
7F0000000FE0
7F0000000FE0
7F0000001FC0
3F8000001FC0
3F8000001FC0
3FC000003F80
1FC000003F80
1FE000007F00
0FF00000FF00
0FF80001FE00
07FC0003FE00
03FE0007FC00
01FF801FF800
00FFFFFFF000
007FFFFFE000
003FFFFF8000
000FFFFF0000
0003FFFC0000
00007FE00000
ENDCHAR
STARTCHAR 00D3
ENCODING 211
SWIDTH 668 0
DWIDTH 52 0
BBX 44 68 4 -1
BITMAP
0000000C0000
0000003C0000
0000007E0000
000000FF0000
000001FE0000
000003FC0000
000007F80000
00000FE00000
00001FC00000
00003F800000
00003E000000
00001C000000
000008000000
000000000000
000000000000
00007FE00000
0003FFFC0000
000FFFFF0000
003FFFFFC000
007FFFFFE000
00FFFFFFF000
01FF801FF800
03FE0007FC00
07F80003FE00
0FF00001FE00
0FE00000FF00
1FE000007F80
1FC000003F80
3F8000003F80
3F8000001FC0
3F8000001FC0
7F0000001FC0
7F0000000FE0
7F0000000FE0
7E0000000FE0
FE0000000FE0
FE00000007E0
FE00000007F0
FE00000007F0
FE00000007F0
FE00000007F0
FE00000007F0
FE00000007F0
FE00000007F0
FE00000007F0
FE00000007E0
FE00000007E0
7E0000000FE0
7F0000000FE0
7F0000000FE0
7F0000000FE0
7F0000001FC0
3F8000001FC0
3F8000001FC0
3FC000003F80
1FC000003F80
1FE000007F00
0FF00000FF00
0FF80001FE00
07FC0003FE00
03FE0007FC00
01FF801FF800
00FFFFFFF000
007FFFFFE000
003FFFFF8000
000FFFFF0000
0003FFFC0000
00007FE00000
ENDCHAR
STARTCHAR 00D4
ENCODING 212
SWIDTH 668 0
DWIDTH 52 0
BBX 44 66 4 -1
BITMAP
00003FC00000
00007FE00000
0000FFF00000
0001FFF00000
0003F9F80000
0007E0FC0000
000FC07E0000
001F801F0000
003F000F8000
001E00070000
000000020000
000000000000
000000000000
00007FE00000
0003FFFC0000
000FFFFF0000
003FFFFFC000
007FFFFFE000
00FFFFFFF000
01FF801FF800
03FE0007FC00
07F80003FE00
0FF00001FE00
0FE00000FF00
1FE000007F80
1FC000003F80
3F8000003F80
3F8000001FC0
3F8000001FC0
7F0000001FC0
7F0000000FE0
7F0000000FE0
7E0000000FE0
FE0000000FE0
FE00000007E0
FE00000007F0
FE00000007F0
FE00000007F0
FE00000007F0
FE00000007F0
FE00000007F0
FE00000007F0
FE00000007F0
FE00000007E0
FE00000007E0
7E0000000FE0
7F0000000FE0
7F0000000FE0
7F0000000FE0
7F0000001FC0
3F8000001FC0
3F8000001FC0
3FC000003F80
1FC000003F80
1FE000007F00
0FF00000FF00
0FF80001FE00
07FC0003FE00
03FE0007FC00
01FF801FF800
00FFFFFFF000
007FFFFFE000
003FFFFF8000
000FFFFF0000
0003FFFC0000
00007FE00000
ENDCHAR
STARTCHAR 00D5
ENCODING 213
SWIDTH 668 0
DWIDTH 52 0
BBX 44 67 4 -1
BITMAP
0003C0000000
000FF001F000
001FFC01E000
003FFE01E000
007FFF03E000
007E3FC7E000
007C1FFFC000
00F807FFC000
00F803FF8000
00F801FF0000
0000003C0000
000000000000
000000000000
000000000000
00007FE00000
0003FFFC0000
000FFFFF0000
003FFFFFC000
007FFFFFE000
00FFFFFFF000
01FF801FF800
03FE0007FC00
07F80003FE00
0FF00001FE00
0FE00000FF00
1FE000007F80
1FC000003F80
3F8000003F80
3F8000001FC0
3F8000001FC0
7F0000001FC0
7F0000000FE0
7F0000000FE0
7E0000000FE0
FE0000000FE0
FE00000007E0
FE00000007F0
FE00000007F0
FE00000007F0
FE00000007F0
FE00000007F0
FE00000007F0
FE00000007F0
FE00000007F0
FE00000007E0
FE00000007E0
7E0000000FE0
7F0000000FE0
7F0000000FE0
7F0000000FE0
7F0000001FC0
3F8000001FC0
3F8000001FC0
3FC000003F80
1FC000003F80
1FE000007F00
0FF00000FF00
0FF80001FE00
07FC0003FE00
03FE0007FC00
01FF801FF800
00FFFFFFF000
007FFFFFE000
003FFFFF8000
000FFFFF0000
0003FFFC0000
00007FE00000
ENDCHAR
STARTCHAR 00D6
ENCODING 214
SWIDTH 668 0
DWIDTH 52 0
BBX 44 64 4 -1
BITMAP
000F000F0000
001F801F8000
003F803F8000
003FC03FC000
003FC03FC000
003F803F8000
001F801F8000
000400040000
000000000000
000000000000
000000000000
00007FE00000
0003FFFC0000
000FFFFF0000
003FFFFFC000
007FFFFFE000
00FFFFFFF000
01FF801FF800
03FE0007FC00
07F80003FE00
0FF00001FE00
0FE00000FF00
1FE000007F80
1FC000003F80
3F8000003F80
3F8000001FC0
3F8000001FC0
7F0000001FC0
7F0000000FE0
7F0000000FE0
7E0000000FE0
FE0000000FE0
FE00000007E0
FE00000007F0
FE00000007F0
FE00000007F0
FE00000007F0
FE00000007F0
FE00000007F0
FE00000007F0
FE00000007F0
FE00000007E0
FE00000007E0
7E0000000FE0
7F0000000FE0
7F0000000FE0
7F0000000FE0
7F0000001FC0
3F8000001FC0
3F8000001FC0
3FC000003F80
1FC000003F80
1FE000007F00
0FF00000FF00
0FF80001FE00
07FC0003FE00
03FE0007FC00
01FF801FF800
00FFFFFFF000
007FFFFFE000
003FFFFF8000
000FFFFF0000
0003FFFC0000
00007FE00000
ENDCHAR
STARTCHAR 00D7
ENCODING 215
SWIDTH 501 0
DWIDTH 39 0
BBX 31 31 4 11
BITMAP
30000030
78000078
FC0000FC
FE0001FC
7F0003F8
3F8007F0
1FC00FE0
0FE01FC0
07F03F80
03F83F00
01FC7E00
00FEFC00
007FF800
003FF000
001FE000
000FE000
001FF000
003FF800
007FFC00
00FCFE00
01F87F00
03F83F80
07F01FC0
0FE00FE0
1FC007F0
3F8003F8
7F0001FC
FE0000FE
7C00007C
38000038
10000010
ENDCHAR
STARTCHAR 00D8
ENCODING 216
SWIDTH 668 0
DWIDTH 52 0
BBX 44 55 4 -2
BITMAP
0000000000C0
00007FE001E0
0003FFFC03F0
000FFFFF03E0
003FFFFFC7C0
007FFFFFEFC0
00FFFFFFFF80
01FF801FFF00
03FE0007FE00
07FC0003FE00
07F80000FF00
0FF00001FF00
1FE00001FF80
1FC00003FF80
1FC00007FFC0
3F80000FDFC0
3F80000F9FC0
3F00001F0FE0
7F00003F0FE0
7F00007E0FE0
7F00007C0FE0
7E0000F807F0
7E0001F807F0
FE0003F007F0
FE0007E007F0
FE0007C007F0
FE000FC007F0
FE001F8007F0
FE003F0007F0
FE003E0007F0
FE007E0007F0
FE00FC0007F0
7E01F80007F0
7F01F00007E0
7F03E0000FE0
7F07E0000FE0
7F0FC0000FE0
3F9F80000FE0
3F9F00001FC0
3FBF00001FC0
1FFE00003FC0
1FFC00003F80
0FF800007F80
0FF80000FF00
07F80001FE00
07FC0003FE00
07FE0007FC00
0FFF801FF800
1FFFFFFFF000
3F7FFFFFE000
3E3FFFFFC000
7C0FFFFF0000
FC03FFFC0000
78007FE00000
300000000000
ENDCHAR
STARTCHAR 00D9
ENCODING 217
SWIDTH 642 0
DWIDTH 50 0
BBX 36 68 7 -1
BITMAP
0030000000
0038000000
007E000000
00FF000000
00FF800000
003FC00000
001FE00000
000FF00000
0003F80000
0001FC0000
0000F80000
0000380000
0000100000
0000000000
0000000000
0000000000
FC000003F0
FC000003F0
FC000003F0
FC000003F0
FC000003F0
FC000003F0
FC000003F0
FC000003F0
FC000003F0
FC000003F0
FC000003F0
FC000003F0
FC000003F0
FC000003F0
FC000003F0
FC000003F0
FC000003F0
FC000003F0
FC000003F0
FC000003F0
FC000003F0
FC000003F0
FC000003F0
FC000003F0
FC000003F0
FC000003F0
FC000003F0
FC000003F0
FC000003F0
FC000003F0
FC000003F0
FC000003F0
FC000003F0
FC000003F0
FE000003F0
FE000003F0
FE000003F0
FE000007F0
7E000007F0
7F000007E0
7F00000FE0
3F80000FE0
3F80001FC0
3FC0003FC0
1FF0007F80
0FF801FF80
0FFFFFFF00
07FFFFFE00
01FFFFFC00
00FFFFF000
003FFFC000
0007FE0000
ENDCHAR
STARTCHAR 00DA
ENCODING 218
SWIDTH 642 0
DWIDTH 50 0
BBX 36 68 7 -1
BITMAP
000000C000
000001E000
000003E000
000007F000
00000FF000
00003FC000
00007F8000
0000FF0000
0001FC0000
0003F80000
0001F00000
0000E00000
0000000000
0000000000
0000000000
0000000000
FC000003F0
FC000003F0
FC000003F0
FC000003F0
FC000003F0
FC000003F0
FC000003F0
FC000003F0
FC000003F0
FC000003F0
FC000003F0
FC000003F0
FC000003F0
FC000003F0
FC000003F0
FC000003F0
FC000003F0
FC000003F0
FC000003F0
FC000003F0
FC000003F0
FC000003F0
FC000003F0
FC000003F0
FC000003F0
FC000003F0
FC000003F0
FC000003F0
FC000003F0
FC000003F0
FC000003F0
FC000003F0
FC000003F0
FC000003F0
FE000003F0
FE000003F0
FE000003F0
FE000007F0
7E000007F0
7F000007E0
7F00000FE0
3F80000FE0
3F80001FC0
3FC0003FC0
1FF0007F80
0FF801FF80
0FFFFFFF00
07FFFFFE00
01FFFFFC00
00FFFFF000
003FFFC000
0007FE0000
ENDCHAR
STARTCHAR 00DB
ENCODING 219
SWIDTH 642 0
DWIDTH 50 0
BBX 36 66 7 -1
BITMAP
0003FC0000
0007FE0000
000FFF0000
001FFF8000
001F9FC000
003F07E000
007C03F000
00F801F800
01F000F800
00E0007800
0040000000
0000000000
0000000000
0000000000
FC000003F0
FC000003F0
FC000003F0
FC000003F0
FC000003F0
FC000003F0
FC000003F0
FC000003F0
FC000003F0
FC000003F0
FC000003F0
FC000003F0
FC000003F0
FC000003F0
FC000003F0
FC000003F0
FC000003F0
FC000003F0
FC000003F0
FC000003F0
FC000003F0
FC000003F0
FC000003F0
FC000003F0
FC000003F0
FC000003F0
FC000003F0
FC000003F0
FC000003F0
FC000003F0
FC000003F0
FC000003F0
FC000003F0
FC000003F0
FE000003F0
FE000003F0
FE000003F0
FE000007F0
7E000007F0
7F000007E0
7F00000FE0
3F80000FE0
3F80001FC0
3FC0003FC0
1FF0007F80
0FF801FF80
0FFFFFFF00
07FFFFFE00
01FFFFFC00
00FFFFF000
003FFFC000
0007FE0000
ENDCHAR
STARTCHAR 00DC
ENCODING 220
SWIDTH 642 0
DWIDTH 50 0
BBX 36 64 7 -1
BITMAP
00F000F000
01F801F800
01FC01FC00
03FC03FC00
03FC03FC00
01FC01FC00
01F801F800
0060006000
0000000000
0000000000
0000000000
0000000000
FC000003F0
FC000003F0
FC000003F0
FC000003F0
FC000003F0
FC000003F0
FC000003F0
FC000003F0
FC000003F0
FC000003F0
FC000003F0
FC000003F0
FC000003F0
FC000003F0
FC000003F0
FC000003F0
FC000003F0
FC000003F0
FC000003F0
FC000003F0
FC000003F0
FC000003F0
FC000003F0
FC000003F0
FC000003F0
FC000003F0
FC000003F0
FC000003F0
FC000003F0
FC000003F0
FC000003F0
FC000003F0
FC000003F0
FC000003F0
FE000003F0
FE000003F0
FE000003F0
FE000007F0
7E000007F0
7F000007E0
7F00000FE0
3F80000FE0
3F80001FC0
3FC0003FC0
1FF0007F80
0FF801FF80
0FFFFFFF00
07FFFFFE00
01FFFFFC00
00FFFFF000
003FFFC000
0007FE0000
ENDCHAR
STARTCHAR 00DD
ENCODING 221
SWIDTH 475 0
DWIDTH 37 0
BBX 37 67 0 0
BITMAP
000000C000
000001E000
000003F000
000007F800
00000FF000
00001FE000
00003FC000
00007F0000
0001FE0000
0003FC0000
0001F00000
0000E00000
0000400000
0000000000
0000000000
0000000000
FE000003F8
7F000003F0
7F000007F0
3F000007E0
3F80000FE0
1F80000FC0
1FC0001FC0
0FC0001F80
0FE0003F80
07E0003F00
07F0003F00
03F0007E00
03F8007E00
01F800FC00
01FC00FC00
00FC01F800
00FC01F800
00FE03F800
007E03F000
007F03F000
003F07E000
003F87E000
001F8FC000
001FCFC000
000FDF8000
000FDF8000
0007FF0000
0007FF0000
0003FE0000
0003FE0000
0001FC0000
0001FC0000
0001FC0000
0001FC0000
0001FC0000
0001FC0000
0001FC0000
0001FC0000
0001FC0000
0001FC0000
0001FC0000
0001FC0000
0001FC0000
0001FC0000
0001FC0000
0001FC0000
0001FC0000
0001FC0000
0001FC0000
0001FC0000
0001FC0000
ENDCHAR
STARTCHAR 00DE
ENCODING 222
SWIDTH 578 0
DWIDTH 45 0
BBX 34 51 7 0
BITMAP
FC00000000
FC00000000
FC00000000
FC00000000
FC00000000
FC00000000
FC00000000
FC00000000
FC00000000
FFFFFE0000
FFFFFFE000
FFFFFFF800
FFFFFFFC00
FFFFFFFE00
FC0007FF00
FC0000FF80
FC00007F80
FC00003FC0
FC00001FC0
FC00001FC0
FC00000FC0
FC00000FC0
FC00000FC0
FC00000FC0
FC00000FC0
FC00000FC0
FC00000FC0
FC00000FC0
FC00001FC0
FC00001FC0
FC00003F80
FC00007F80
FC0001FF00
FC000FFE00
FFFFFFFC00
FFFFFFF800
FFFFFFF000
FFFFFFC000
FFFFFE0000
FC00000000
FC00000000
FC00000000
FC00000000
FC00000000
FC00000000
FC00000000
FC00000000
FC00000000
FC00000000
FC00000000
FC00000000
ENDCHAR
STARTCHAR 00DF
ENCODING 223
SWIDTH 578 0
DWIDTH 45 0
BBX 37 57 6 -1
BITMAP
001FF00000
00FFFC0000
01FFFF0000
07FFFF8000
0FFFFFC000
1FF83FE000
1FE00FE000
3FC007F000
3F8007F000
7F0003F000
7F0003F000
7F0003F000
7E0003F000
7E0003F000
FE0003F000
FE0007F000
FE0007E000
FE000FE000
FE000FC000
FE001F8000
FE003F0000
FE007F0000
FE007E0000
FE00FC0000
FE00FC0000
FE01F80000
FE01F80000
FE01F80000
FE01FC0000
FE01FC0000
FE00FE0000
FE00FF0000
FE00FFC000
FE007FE000
FE003FF800
FE001FFE00
FE0007FF00
FE0001FF80
FE00007FC0
FE00003FE0
FE00000FF0
FE000007F0
FE000003F0
FE000003F0
FE000003F8
FE000003F8
FE000003F8
FE000003F0
FE000003F0
FE018007F0
FE01C00FE0
FE03F81FE0
FE03FFFFC0
FE03FFFF80
FE01FFFF00
FE007FFE00
00000FF000
ENDCHAR
STARTCHAR 00E0
ENCODING 224
SWIDTH 501 0
DWIDTH 39 0
BBX 30 62 4 -1
BITMAP
00400000
00E00000
01F00000
03F80000
03FC0000
01FE0000
00FE0000
007F0000
003F8000
001FC000
000FE000
0007F000
0003F000
0001F000
0000E000
00004000
00000000
00000000
00000000
00000000
00000000
00000000
000FF800
007FFE00
03FFFF80
0FFFFFC0
3FFFFFE0
3FFC7FE0
1F800FF0
1E0007F0
080003F8
000003F8
000001F8
000001F8
000001FC
000001FC
000001FC
00001FFC
0003FFFC
003FFFFC
00FFFFFC
03FFF9FC
0FFF01FC
1FF001FC
3FC001FC
3F8001FC
7F0001FC
7E0001FC
FE0001FC
FC0001FC
FC0001FC
FC0001FC
FE0003FC
FE0007FC
FE000FFC
7F003FFC
7FC0FFFC
3FFFFCFC
1FFFF8FC
0FFFE0FC
07FFC0FC
01FE0000
ENDCHAR
STARTCHAR 00E1
ENCODING 225
SWIDTH 501 0
DWIDTH 39 0
BBX 30 62 4 -1
BITMAP
00000100
00000380
000007C0
00000FE0
00001FE0
00003FC0
00003F80
00007F00
0000FE00
0001FC00
0003F800
0007F000
000FE000
0007C000
00038000
00010000
00000000
00000000
00000000
00000000
00000000
00000000
000FF800
007FFE00
03FFFF80
0FFFFFC0
3FFFFFE0
3FFC7FE0
1F800FF0
1E0007F0
080003F8
000003F8
000001F8
000001F8
000001FC
000001FC
000001FC
00001FFC
0003FFFC
003FFFFC
00FFFFFC
03FFF9FC
0FFF01FC
1FF001FC
3FC001FC
3F8001FC
7F0001FC
7E0001FC
FE0001FC
FC0001FC
FC0001FC
FC0001FC
FE0003FC
FE0007FC
FE000FFC
7F003FFC
7FC0FFFC
3FFFFCFC
1FFFF8FC
0FFFE0FC
07FFC0FC
01FE0000
ENDCHAR
STARTCHAR 00E2
ENCODING 226
SWIDTH 501 0
DWIDTH 39 0
BBX 30 59 4 -1
BITMAP
0007F000
000FF800
001FFC00
003FFC00
003FFE00
007E3F00
00FC1F80
01F80FC0
03F007E0
03E003E0
07C001F0
078000F0
03000060
00000000
00000000
00000000
00000000
00000000
00000000
000FF800
007FFE00
03FFFF80
0FFFFFC0
3FFFFFE0
3FFC7FE0
1F800FF0
1E0007F0
080003F8
000003F8
000001F8
000001F8
000001FC
000001FC
000001FC
00001FFC
0003FFFC
003FFFFC
00FFFFFC
03FFF9FC
0FFF01FC
1FF001FC
3FC001FC
3F8001FC
7F0001FC
7E0001FC
FE0001FC
FC0001FC
FC0001FC
FC0001FC
FE0003FC
FE0007FC
FE000FFC
7F003FFC
7FC0FFFC
3FFFFCFC
1FFFF8FC
0FFFE0FC
07FFC0FC
01FE0000
ENDCHAR
STARTCHAR 00E3
ENCODING 227
SWIDTH 501 0
DWIDTH 39 0
BBX 30 57 4 -1
BITMAP
00FC0030
03FF003C
07FF807C
07FFC07C
0FFFE078
0F87F0F8
0F03FFF8
1F01FFF0
1F00FFF0
1E003FE0
0E001F80
00000000
00000000
00000000
00000000
00000000
00000000
000FF800
007FFE00
03FFFF80
0FFFFFC0
3FFFFFE0
3FFC7FE0
1F800FF0
1E0007F0
080003F8
000003F8
000001F8
000001F8
000001FC
000001FC
000001FC
00001FFC
0003FFFC
003FFFFC
00FFFFFC
03FFF9FC
0FFF01FC
1FF001FC
3FC001FC
3F8001FC
7F0001FC
7E0001FC
FE0001FC
FC0001FC
FC0001FC
FC0001FC
FE0003FC
FE0007FC
FE000FFC
7F003FFC
7FC0FFFC
3FFFFCFC
1FFFF8FC
0FFFE0FC
07FFC0FC
01FE0000
ENDCHAR
STARTCHAR 00E4
ENCODING 228
SWIDTH 501 0
DWIDTH 39 0
BBX 30 55 4 -1
BITMAP
00C00180
03F007E0
07F80FF0
07F80FF0
07F80FF0
07F80FF0
03F007E0
01E003C0
00000000
00000000
00000000
00000000
00000000
00000000
00000000
000FF800
007FFE00
03FFFF80
0FFFFFC0
3FFFFFE0
3FFC7FE0
1F800FF0
1E0007F0
080003F8
000003F8
000001F8
000001F8
000001FC
000001FC
000001FC
00001FFC
0003FFFC
003FFFFC
00FFFFFC
03FFF9FC
0FFF01FC
1FF001FC
3FC001FC
3F8001FC
7F0001FC
7E0001FC
FE0001FC
FC0001FC
FC0001FC
FC0001FC
FE0003FC
FE0007FC
FE000FFC
7F003FFC
7FC0FFFC
3FFFFCFC
1FFFF8FC
0FFFE0FC
07FFC0FC
01FE0000
ENDCHAR
STARTCHAR 00E5
ENCODING 229
SWIDTH 501 0
DWIDTH 39 0
BBX 30 60 4 -1
BITMAP
0003E000
001FFC00
003FFE00
007C3F00
00780F00
00F80F80
00F00780
00F00780
00F00780
00F00780
00F80F80
00780F00
007C1F00
003FFE00
001FFC00
0003E000
00000000
00000000
00000000
00000000
000FF800
007FFE00
03FFFF80
0FFFFFC0
3FFFFFE0
3FFC7FE0
1F800FF0
1E0007F0
080003F8
000003F8
000001F8
000001F8
000001FC
000001FC
000001FC
00001FFC
0003FFFC
003FFFFC
00FFFFFC
03FFF9FC
0FFF01FC
1FF001FC
3FC001FC
3F8001FC
7F0001FC
7E0001FC
FE0001FC
FC0001FC
FC0001FC
FC0001FC
FE0003FC
FE0007FC
FE000FFC
7F003FFC
7FC0FFFC
3FFFFCFC
1FFFF8FC
0FFFE0FC
07FFC0FC
01FE0000
ENDCHAR
STARTCHAR 00E6
ENCODING 230
SWIDTH 784 0
DWIDTH 61 0
BBX 53 40 5 -1
BITMAP
001FE0001FE000
00FFF8007FF800
03FFFE01FFFE00
0FFFFF03FFFF00
3FFFFF87FFFF80
7FF87F8FF07FC0
3F801FDFC01FE0
1E000FDF8007E0
180007FF0007F0
000003FE0003F0
000003FC0003F0
000003FC0001F0
000003F80001F8
000003F80001F8
000003F80001F8
00007FF80001F8
000FFFF00001F8
007FFFFFFFFFF8
01FFFFFFFFFFF8
07FFC3FFFFFFF8
0FFC03FFFFFFF8
3FE003F0000000
3FC003F8000000
7F0001F8000000
FE0001F8000000
FE0001F8000000
FC0001F8000000
FC0001FC000000
FC0000FC000000
FC0001FE000000
FC0003FF000000
FC0007FF000000
FE000FFFC000C0
FF003F9FE003C0
7FC1FF1FFC1FE0
7FFFFE0FFFFFE0
3FFFF807FFFFE0
1FFFF001FFFF80
0FFF80007FFE00
01FC00001FF000
ENDCHAR
STARTCHAR 00E7
ENCODING 231
SWIDTH 450 0
DWIDTH 35 0
BBX 29 57 4 -18
BITMAP
0003FC00
001FFF80
007FFFC0
01FFFFF0
03FFFFF8
07FF0FF0
0FF801E0
1FE000C0
1FC00040
3F800000
3F800000
7F000000
7F000000
FE000000
FE000000
FE000000
FE000000
FC000000
FC000000
FC000000
FC000000
FC000000
FC000000
FE000000
FE000000
FE000000
FE000000
7F000000
7F000000
7F800000
3F800000
3FC00020
1FE00070
0FF801F0
0FFE0FF8
07FFFFF8
03FFFFF0
00FFFFC0
003FFF80
000FFC00
0001E000
0003E000
0003C000
0007C000
0007E000
0007F800
0003FC00
00007E00
00003E00
00003E00
00003E00
00003E00
00007E00
0007FC00
003FF800
003FE000
003E0000
ENDCHAR
STARTCHAR 00E8
ENCODING 232
SWIDTH 501 0
DWIDTH 39 0
BBX 32 62 4 -1
BITMAP
00400000
00E00000
01F00000
03F80000
03FC0000
01FE0000
00FE0000
007F0000
003F8000
001FC000
000FE000
0007F000
0003F000
0001F000
0000E000
00004000
00000000
00000000
00000000
00000000
00000000
00000000
0007F800
003FFF00
00FFFF80
01FFFFC0
03FFFFE0
07FC0FF0
0FF003F8
1FC001F8
1F8000FC
3F0000FC
3F00007E
7E00007E
7E00003E
FE00003E
FC00003E
FC00003F
FC00003F
FFFFFFFF
FFFFFFFF
FFFFFFFF
FFFFFFFF
FFFFFFFE
FC000000
FC000000
FC000000
FE000000
FE000000
7E000000
7F000000
7F000000
3F800000
3FC00000
1FE00010
0FF80078
07FE03F8
03FFFFFC
01FFFFFC
00FFFFF0
003FFF80
0007FC00
ENDCHAR
STARTCHAR 00E9
ENCODING 233
SWIDTH 501 0
DWIDTH 39 0
BBX 32 62 4 -1
BITMAP
00000100
00000380
000007C0
00000FE0
00001FE0
00003FC0
00003F80
00007F00
0000FE00
0001FC00
0003F800
0007F000
0007E000
0007C000
00038000
00010000
00000000
00000000
00000000
00000000
00000000
00000000
0007F800
003FFF00
00FFFF80
01FFFFC0
03FFFFE0
07FC0FF0
0FF003F8
1FC001F8
1F8000FC
3F0000FC
3F00007E
7E00007E
7E00003E
FE00003E
FC00003E
FC00003F
FC00003F
FFFFFFFF
FFFFFFFF
FFFFFFFF
FFFFFFFF
FFFFFFFE
FC000000
FC000000
FC000000
FE000000
FE000000
7E000000
7F000000
7F000000
3F800000
3FC00000
1FE00010
0FF80078
07FE03F8
03FFFFFC
01FFFFFC
00FFFFF0
003FFF80
0007FC00
ENDCHAR
STARTCHAR 00EA
ENCODING 234
SWIDTH 501 0
DWIDTH 39 0
BBX 32 59 4 -1
BITMAP
0007F000
000FF800
001FFC00
003FFE00
003FFE00
007E3F00
00FC1F80
01F80FC0
03F007E0
03E003E0
07C001F0
078000F0
03000060
00000000
00000000
00000000
00000000
00000000
00000000
0007F800
003FFF00
00FFFF80
01FFFFC0
03FFFFE0
07FC0FF0
0FF003F8
1FC001F8
1F8000FC
3F0000FC
3F00007E
7E00007E
7E00003E
FE00003E
FC00003E
FC00003F
FC00003F
FFFFFFFF
FFFFFFFF
FFFFFFFF
FFFFFFFF
FFFFFFFE
FC000000
FC000000
FC000000
FE000000
FE000000
7E000000
7F000000
7F000000
3F800000
3FC00000
1FE00010
0FF80078
07FE03F8
03FFFFFC
01FFFFFC
00FFFFF0
003FFF80
0007FC00
ENDCHAR
STARTCHAR 00EB
ENCODING 235
SWIDTH 501 0
DWIDTH 39 0
BBX 32 55 4 -1
BITMAP
00E00180
03F007E0
03F807F0
07F80FF0
07F80FF0
07F80FF0
03F007E0
01E003C0
00000000
00000000
00000000
00000000
00000000
00000000
00000000
0007F800
003FFF00
00FFFF80
01FFFFC0
03FFFFE0
07FC0FF0
0FF003F8
1FC001F8
1F8000FC
3F0000FC
3F00007E
7E00007E
7E00003E
FE00003E
FC00003E
FC00003F
FC00003F
FFFFFFFF
FFFFFFFF
FFFFFFFF
FFFFFFFF
FFFFFFFE
FC000000
FC000000
FC000000
FE000000
FE000000
7E000000
7F000000
7F000000
3F800000
3FC00000
1FE00010
0FF80078
07FE03F8
03FFFFFC
01FFFFFC
00FFFFF0
003FFF80
0007FC00
ENDCHAR
STARTCHAR 00EC
ENCODING 236
SWIDTH 244 0
DWIDTH 19 0
BBX 14 61 -1 0
BITMAP
1000
3800
7C00
FE00
FF00
7F80
3F80
1FC0
0FE0
07F0
03F8
01FC
00FC
007C
0038
0010
0000
0000
0000
0000
0000
0000
0000
01FC
01FC
01FC
01FC
01FC
01FC
01FC
01FC
01FC
01FC
01FC
01FC
01FC
01FC
01FC
01FC
01FC
01FC
01FC
01FC
01FC
01FC
01FC
01FC
01FC
01FC
01FC
01FC
01FC
01FC
01FC
01FC
01FC
01FC
01FC
01FC
01FC
01FC
ENDCHAR
STARTCHAR 00ED
ENCODING 237
SWIDTH 244 0
DWIDTH 19 0
BBX 15 61 6 0
BITMAP
0020
0070
00F8
01FC
03FE
03F8
07F0
0FE0
1FC0
3F80
7F00
7E00
FC00
F800
7000
2000
0000
0000
0000
0000
0000
0000
0000
FE00
FE00
FE00
FE00
FE00
FE00
FE00
FE00
FE00
FE00
FE00
FE00
FE00
FE00
FE00
FE00
FE00
FE00
FE00
FE00
FE00
FE00
FE00
FE00
FE00
FE00
FE00
FE00
FE00
FE00
FE00
FE00
FE00
FE00
FE00
FE00
FE00
FE00
ENDCHAR
STARTCHAR 00EE
ENCODING 238
SWIDTH 244 0
DWIDTH 19 0
BBX 23 58 -2 0
BITMAP
00FE00
01FF00
01FF00
03FF80
07FFC0
0FEFE0
1FC7F0
1F83F8
3F01F8
7E00FC
FC003E
F8001E
60000C
000000
000000
000000
000000
000000
000000
000000
00FE00
00FE00
00FE00
00FE00
00FE00
00FE00
00FE00
00FE00
00FE00
00FE00
00FE00
00FE00
00FE00
00FE00
00FE00
00FE00
00FE00
00FE00
00FE00
00FE00
00FE00
00FE00
00FE00
00FE00
00FE00
00FE00
00FE00
00FE00
00FE00
00FE00
00FE00
00FE00
00FE00
00FE00
00FE00
00FE00
00FE00
00FE00
ENDCHAR
STARTCHAR 00EF
ENCODING 239
SWIDTH 244 0
DWIDTH 19 0
BBX 23 54 -2 0
BITMAP
1C0038
7E00FC
7F00FE
FF01FE
FF01FE
FF01FE
7E00FC
3C0078
000000
000000
000000
000000
000000
000000
000000
000000
00FE00
00FE00
00FE00
00FE00
00FE00
00FE00
00FE00
00FE00
00FE00
00FE00
00FE00
00FE00
00FE00
00FE00
00FE00
00FE00
00FE00
00FE00
00FE00
00FE00
00FE00
00FE00
00FE00
00FE00
00FE00
00FE00
00FE00
00FE00
00FE00
00FE00
00FE00
00FE00
00FE00
00FE00
00FE00
00FE00
00FE00
00FE00
ENDCHAR
STARTCHAR 00F0
ENCODING 240
SWIDTH 540 0
DWIDTH 42 0
BBX 34 57 4 -1
BITMAP
0060000000
00F8000300
01FE000F00
01FF003F80
00FFC0FF00
003FE3FC00
000FFFF000
0007FFC000
0001FF0000
0003FF0000
000FFF8000
003FFF8000
00FF1FC000
03FC0FE000
03F007F000
03C003F000
010003F800
000001FC00
000000FC00
000000FE00
0000007E00
000FF07E00
007FFC3F00
00FFFF3F00
03FFFFBF00
07FFFFFF80
0FFC0FFF80
1FE001FF80
1FC000FF80
3F80007F80
3F00003F80
7F00001FC0
7E00001FC0
7E00000FC0
7E00000FC0
FC00000FC0
FC00000FC0
FC00000FC0
FC00000FC0
FC00001FC0
FC00001F80
FC00001F80
FE00001F80
7E00001F80
7E00003F80
7F00003F00
3F00007F00
3F80007E00
1FC000FE00
1FE001FC00
0FF003FC00
07FE1FF800
03FFFFF000
01FFFFE000
00FFFF8000
003FFF0000
0007F80000
ENDCHAR
STARTCHAR 00F1
ENCODING 241
SWIDTH 552 0
DWIDTH 43 0
BBX 31 56 6 0
BITMAP
00FC0030
01FF003C
03FF803C
07FFC07C
0FFFE07C
0F87F0F8
0F01FFF8
0F00FFF8
1F007FF0
1F003FE0
07000F80
00000000
00000000
00000000
00000000
00000000
00000000
0000FE00
FC07FF80
FC1FFFE0
FC3FFFF0
FC7FFFF0
FDFFFFF8
FFF807F8
FFE003FC
FFC001FC
FF8001FC
FF0000FC
FE0000FC
FE0000FE
FE0000FE
FE0000FE
FE0000FE
FE0000FE
FE0000FE
FE0000FE
FE0000FE
FE0000FE
FE0000FE
FE0000FE
FE0000FE
FE0000FE
FE0000FE
FE0000FE
FE0000FE
FE0000FE
FE0000FE
FE0000FE
FE0000FE
FE0000FE
FE0000FE
FE0000FE
FE0000FE
FE0000FE
FE0000FE
FE0000FE
ENDCHAR
STARTCHAR 00F2
ENCODING 242
SWIDTH 540 0
DWIDTH 42 0
BBX 35 62 4 -1
BITMAP
0020000000
0070000000
00F8000000
01F8000000
03FC000000
01FE000000
00FF000000
007F800000
003FC00000
001FC00000
000FE00000
0007F00000
0003F80000
0001F80000
0000F00000
0000600000
0000000000
0000000000
0000000000
0000000000
0000000000
0000000000
0007F80000
003FFF0000
00FFFFC000
01FFFFE000
03FFFFF800
07FE1FFC00
0FF003FC00
1FE001FE00
3FC000FF00
3F80007F00
7F00003F80
7F00003F80
7F00001FC0
FE00001FC0
FE00001FC0
FE00000FC0
FC00000FC0
FC00000FC0
FC00000FE0
FC00000FE0
FC00000FE0
FC00000FE0
FC00000FC0
FC00000FC0
FE00000FC0
FE00001FC0
FE00001FC0
7F00001FC0
7F00003F80
7F80003F80
3F80007F00
3FC000FF00
1FE001FE00
0FF003FC00
07FE1FFC00
03FFFFF800
01FFFFE000
00FFFFC000
003FFF0000
0007F80000
ENDCHAR
STARTCHAR 00F3
ENCODING 243
SWIDTH 540 0
DWIDTH 42 0
BBX 35 62 4 -1
BITMAP
0000010000
0000038000
000003C000
000007E000
00000FF000
00001FE000
00003FC000
00007F8000
00007F0000
0000FE0000
0001FC0000
0003F80000
0007F00000
0007E00000
0003C00000
0001800000
0000000000
0000000000
0000000000
0000000000
0000000000
0000000000
0007F80000
003FFF0000
00FFFFC000
01FFFFE000
03FFFFF800
07FE1FFC00
0FF003FC00
1FE001FE00
3FC000FF00
3F80007F00
7F00003F80
7F00003F80
7F00001FC0
FE00001FC0
FE00001FC0
FE00000FC0
FC00000FC0
FC00000FC0
FC00000FE0
FC00000FE0
FC00000FE0
FC00000FE0
FC00000FC0
FC00000FC0
FE00000FC0
FE00001FC0
FE00001FC0
7F00001FC0
7F00003F80
7F80003F80
3F80007F00
3FC000FF00
1FE001FE00
0FF003FC00
07FE1FFC00
03FFFFF800
01FFFFE000
00FFFFC000
003FFF0000
0007F80000
ENDCHAR
STARTCHAR 00F4
ENCODING 244
SWIDTH 540 0
DWIDTH 42 0
BBX 35 59 4 -1
BITMAP
0007F80000
0007F80000
000FFC0000
001FFE0000
003FFF0000
007F3F8000
007E1FC000
00FC0FC000
01F807E000
03F003F000
07E001F800
03C000F800
0180006000
0000000000
0000000000
0000000000
0000000000
0000000000
0000000000
0007F80000
003FFF0000
00FFFFC000
01FFFFE000
03FFFFF800
07FE1FFC00
0FF003FC00
1FE001FE00
3FC000FF00
3F80007F00
7F00003F80
7F00003F80
7F00001FC0
FE00001FC0
FE00001FC0
FE00000FC0
FC00000FC0
FC00000FC0
FC00000FE0
FC00000FE0
FC00000FE0
FC00000FE0
FC00000FC0
FC00000FC0
FE00000FC0
FE00001FC0
FE00001FC0
7F00001FC0
7F00003F80
7F80003F80
3F80007F00
3FC000FF00
1FE001FE00
0FF003FC00
07FE1FFC00
03FFFFF800
01FFFFE000
00FFFFC000
003FFF0000
0007F80000
ENDCHAR
STARTCHAR 00F5
ENCODING 245
SWIDTH 540 0
DWIDTH 42 0
BBX 35 57 4 -1
BITMAP
00FE003000
01FF003E00
03FF803C00
07FFC03C00
07FFE07C00
0FC3F87C00
0F81FFF800
0F00FFF800
0F007FF000
0F003FE000
07000F8000
0000000000
0000000000
0000000000
0000000000
0000000000
0000000000
0007F80000
003FFF0000
00FFFFC000
01FFFFE000
03FFFFF800
07FE1FFC00
0FF003FC00
1FE001FE00
3FC000FF00
3F80007F00
7F00003F80
7F00003F80
7F00001FC0
FE00001FC0
FE00001FC0
FE00000FC0
FC00000FC0
FC00000FC0
FC00000FE0
FC00000FE0
FC00000FE0
FC00000FE0
FC00000FC0
FC00000FC0
FE00000FC0
FE00001FC0
FE00001FC0
7F00001FC0
7F00003F80
7F80003F80
3F80007F00
3FC000FF00
1FE001FE00
0FF003FC00
07FE1FFC00
03FFFFF800
01FFFFE000
00FFFFC000
003FFF0000
0007F80000
ENDCHAR
STARTCHAR 00F6
ENCODING 246
SWIDTH 540 0
DWIDTH 42 0
BBX 35 55 4 -1
BITMAP
00E001C000
01F003E000
03F807F000
03F807F000
03F807F000
03F807F000
03F803F000
00E001C000
0000000000
0000000000
0000000000
0000000000
0000000000
0000000000
0000000000
0007F80000
003FFF0000
00FFFFC000
01FFFFE000
03FFFFF800
07FE1FFC00
0FF003FC00
1FE001FE00
3FC000FF00
3F80007F00
7F00003F80
7F00003F80
7F00001FC0
FE00001FC0
FE00001FC0
FE00000FC0
FC00000FC0
FC00000FC0
FC00000FE0
FC00000FE0
FC00000FE0
FC00000FE0
FC00000FC0
FC00000FC0
FE00000FC0
FE00001FC0
FE00001FC0
7F00001FC0
7F00003F80
7F80003F80
3F80007F00
3FC000FF00
1FE001FE00
0FF003FC00
07FE1FFC00
03FFFFF800
01FFFFE000
00FFFFC000
003FFF0000
0007F80000
ENDCHAR
STARTCHAR 00F7
ENCODING 247
SWIDTH 501 0
DWIDTH 39 0
BBX 33 36 3 8
BITMAP
0003C00000
0007F00000
000FF00000
000FF80000
000FF80000
000FF00000
0007F00000
0003E00000
0000000000
0000000000
0000000000
0000000000
0000000000
0000000000
0000000000
0000000000
FFFFFFFF80
FFFFFFFF80
FFFFFFFF80
FFFFFFFF80
FFFFFFFF80
0000000000
0000000000
0000000000
0000000000
0000000000
0000000000
0000000000
0003C00000
0007F00000
000FF00000
000FF80000
000FF80000
000FF00000
0007F00000
0003E00000
ENDCHAR
STARTCHAR 00F8
ENCODING 248
SWIDTH 540 0
DWIDTH 42 0
BBX 35 42 4 -2
BITMAP
0000000100
0007F80180
003FFF03E0
00FFFFC7C0
01FFFFEF80
03FFFFFF00
07FC0FFE00
0FF003FC00
1FE001FE00
3FC000FF00
3F8001FF00
7F0003FF80
7F0003FF80
7E00079F80
FE000F9FC0
FE001F0FC0
FC003E0FC0
FC003C0FC0
FC00780FC0
FC00F80FE0
FC01F00FE0
FC03E00FE0
FC03C00FE0
FC07800FC0
FC0F800FC0
FC1F000FC0
FE3E000FC0
FE7C001FC0
7E78001FC0
7FF8001F80
7FF0003F80
3FE0007F00
3FC0007F00
1FE000FE00
0FF003FC00
1FFC0FFC00
3FFFFFF800
7DFFFFE000
F8FFFFC000
F03FFF0000
7007F80000
2000000000
ENDCHAR
STARTCHAR 00F9
ENCODING 249
SWIDTH 540 0
DWIDTH 42 0
BBX 30 62 6 -1
BITMAP
00800000
01C00000
03E00000
07E00000
0FF00000
07F80000
03FC0000
01FE0000
00FF0000
007F8000
003F8000
001FC000
000FE000
0007E000
0003C000
00018000
00000000
00000000
00000000
00000000
00000000
00000000
00000000
FC0000FC
FC0000FC
FC0000FC
FC0000FC
FC0000FC
FC0000FC
FC0000FC
FC0000FC
FC0000FC
FC0000FC
FC0000FC
FC0000FC
FC0000FC
FC0000FC
FC0000FC
FC0000FC
FC0000FC
FC0000FC
FC0000FC
FC0000FC
FC0000FC
FC0000FC
FC0000FC
FC0000FC
FC0000FC
FC0000FC
FE0000FC
FE0001FC
FE0003FC
FE0003FC
7F000FFC
7F001FFC
7FC03FFC
3FFFFEFC
3FFFFCFC
1FFFF8FC
0FFFE0FC
07FFC07C
01FE0000
ENDCHAR
STARTCHAR 00FA
ENCODING 250
SWIDTH 540 0
DWIDTH 42 0
BBX 30 62 6 -1
BITMAP
00000400
00000600
00000F00
00001F80
00003FC0
00007F80
0000FF00
0001FE00
0001FC00
0003F800
0007F000
000FE000
001FC000
001F8000
000F0000
00060000
00000000
00000000
00000000
00000000
00000000
00000000
00000000
FC0000FC
FC0000FC
FC0000FC
FC0000FC
FC0000FC
FC0000FC
FC0000FC
FC0000FC
FC0000FC
FC0000FC
FC0000FC
FC0000FC
FC0000FC
FC0000FC
FC0000FC
FC0000FC
FC0000FC
FC0000FC
FC0000FC
FC0000FC
FC0000FC
FC0000FC
FC0000FC
FC0000FC
FC0000FC
FC0000FC
FE0000FC
FE0001FC
FE0003FC
FE0003FC
7F000FFC
7F001FFC
7FC03FFC
3FFFFEFC
3FFFFCFC
1FFFF8FC
0FFFE0FC
07FFC07C
01FE0000
ENDCHAR
STARTCHAR 00FB
ENCODING 251
SWIDTH 540 0
DWIDTH 42 0
BBX 30 59 6 -1
BITMAP
000FC000
001FE000
003FF000
007FF800
007FFC00
00FCFE00
01F87E00
03F03F00
07E01F80
07C00FC0
0F8007E0
1F0003E0
0E0001C0
00000080
00000000
00000000
00000000
00000000
00000000
00000000
FC0000FC
FC0000FC
FC0000FC
FC0000FC
FC0000FC
FC0000FC
FC0000FC
FC0000FC
FC0000FC
FC0000FC
FC0000FC
FC0000FC
FC0000FC
FC0000FC
FC0000FC
FC0000FC
FC0000FC
FC0000FC
FC0000FC
FC0000FC
FC0000FC
FC0000FC
FC0000FC
FC0000FC
FC0000FC
FC0000FC
FE0000FC
FE0001FC
FE0003FC
FE0003FC
7F000FFC
7F001FFC
7FC03FFC
3FFFFEFC
3FFFFCFC
1FFFF8FC
0FFFE0FC
07FFC07C
01FE0000
ENDCHAR
STARTCHAR 00FC
ENCODING 252
SWIDTH 540 0
DWIDTH 42 0
BBX 30 55 6 -1
BITMAP
03800700
07E00FC0
0FE01FC0
0FE01FC0
0FE01FE0
0FE01FC0
07E00FC0
03C00780
00000000
00000000
00000000
00000000
00000000
00000000
00000000
00000000
FC0000FC
FC0000FC
FC0000FC
FC0000FC
FC0000FC
FC0000FC
FC0000FC
FC0000FC
FC0000FC
FC0000FC
FC0000FC
FC0000FC
FC0000FC
FC0000FC
FC0000FC
FC0000FC
FC0000FC
FC0000FC
FC0000FC
FC0000FC
FC0000FC
FC0000FC
FC0000FC
FC0000FC
FC0000FC
FC0000FC
FE0000FC
FE0001FC
FE0003FC
FE0003FC
7F000FFC
7F001FFC
7FC03FFC
3FFFFEFC
3FFFFCFC
1FFFF8FC
0FFFE0FC
07FFC07C
01FE0000
ENDCHAR
STARTCHAR 00FD
ENCODING 253
SWIDTH 462 0
DWIDTH 36 0
BBX 34 77 1 -16
BITMAP
0000008000
000001C000
000003E000
000003F000
000007F800
00000FF000
00001FE000
00003FC000
00007F8000
00007F0000
0000FE0000
0001FC0000
0003F80000
0003F00000
0001E00000
0000C00000
0000000000
0000000000
0000000000
0000000000
0000000000
0000000000
0000000000
FE00000FC0
7E00000FC0
7E00001F80
7F00001F80
3F00001F80
3F80003F00
1F80003F00
1F80003F00
1FC0007E00
0FC0007E00
0FC0007E00
07E000FC00
07E000FC00
07F000FC00
03F001F800
03F001F800
01F801F800
01F803F000
01F803F000
00FC03F000
00FC03E000
007C07E000
007E07E000
007E07C000
003F0FC000
003F0F8000
001F0F8000
001F9F8000
001F9F0000
000F9F0000
000FDF0000
0007FE0000
0007FE0000
0007FE0000
0003FC0000
0003FC0000
0001FC0000
0001F80000
0001F80000
0001F80000
0003F00000
0003F00000
0003F00000
0007E00000
0007E00000
000FC00000
001FC00000
003F800000
11FF000000
3FFF000000
3FFE000000
3FFC000000
3FF0000000
3FC0000000
ENDCHAR
STARTCHAR 00FE
ENCODING 254
SWIDTH 552 0
DWIDTH 43 0
BBX 33 71 6 -16
BITMAP
FE00000000
FE00000000
FE00000000
FE00000000
FE00000000
FE00000000
FE00000000
FE00000000
FE00000000
FE00000000
FE00000000
FE00000000
FE00000000
FE00000000
FE00000000
FE00000000
FE01FC0000
FE0FFF8000
FE3FFFE000
FE7FFFF000
FFFFFFF800
FFFF3FFC00
FFF003FC00
FFE001FE00
FF8000FE00
FF00007F00
FE00007F00
FE00003F80
FE00003F80
FE00003F80
FE00003F80
FE00001F80
FE00001F80
FE00001F80
FE00001F80
FE00001F80
FE00001F80
FE00001F80
FE00001F80
FE00001F80
FE00003F80
FE00003F80
FE00003F80
FE00007F00
FE00007F00
FE0000FF00
FE0000FE00
FF0001FE00
FF8003FC00
FFE007F800
FFFE7FF800
FFFFFFF000
FEFFFFE000
FE7FFF8000
FE1FFE0000
FE03F80000
FE00000000
FE00000000
FE00000000
FE00000000
FE00000000
FE00000000
FE00000000
FE00000000
FE00000000
FE00000000
FE00000000
FE00000000
FE00000000
FE00000000
FE00000000
ENDCHAR
STARTCHAR 00FF
ENCODING 255
SWIDTH 462 0
DWIDTH 36 0
BBX 34 70 1 -16
BITMAP
007000E000
00F801F000
01FC03F800
01FC03F800
01FC03F800
01FC03F800
01F803F000
00F001E000
0000000000
0000000000
0000000000
0000000000
0000000000
0000000000
0000000000
0000000000
FE00000FC0
7E00000FC0
7E00001F80
7F00001F80
3F00001F80
3F80003F00
1F80003F00
1F80003F00
1FC0007E00
0FC0007E00
0FC0007E00
07E000FC00
07E000FC00
07F000FC00
03F001F800
03F001F800
01F801F800
01F803F000
01F803F000
00FC03F000
00FC03E000
007C07E000
007E07E000
007E07C000
003F0FC000
003F0F8000
001F0F8000
001F9F8000
001F9F0000
000F9F0000
000FDF0000
0007FE0000
0007FE0000
0007FE0000
0003FC0000
0003FC0000
0001FC0000
0001F80000
0001F80000
0001F80000
0003F00000
0003F00000
0003F00000
0007E00000
0007E00000
000FC00000
001FC00000
003F800000
11FF000000
3FFF000000
3FFE000000
3FFC000000
3FF0000000
3FC0000000
ENDCHAR
STARTCHAR 0100
ENCODING 256
SWIDTH 540 0
DWIDTH 42 0
BBX 42 61 0 0
BITMAP
001FFFFE0000
001FFFFE0000
001FFFFE0000
001FFFFE0000
000000000000
000000000000
000000000000
000000000000
000000000000
000000000000
00007F800000
00007F800000
00007FC00000
0000FFC00000
0000FFC00000
0000FFE00000
0001FFE00000
0001F3E00000
0001F3F00000
0003F3F00000
0003E1F00000
0003E1F80000
0007E1F80000
0007E0F80000
0007C0FC0000
000FC0FC0000
000FC0FC0000
000F807E0000
001F807E0000
001F807E0000
001F003F0000
003F003F0000
003F003F0000
003E001F8000
007E001F8000
007E001F8000
007C000FC000
00FC000FC000
00FC000FC000
01FC0007E000
01FFFFFFE000
01FFFFFFE000
03FFFFFFF000
03FFFFFFF000
03FFFFFFF000
07F00003F800
07E00001F800
07E00001FC00
0FE00001FC00
0FC00000FC00
0FC00000FE00
1FC00000FE00
1F8000007E00
1F8000007F00
3F8000007F00
3F8000007F00
3F0000003F80
7F0000003F80
7F0000003F80
7E0000001FC0
FE0000001FC0
ENDCHAR
STARTCHAR 0101
ENCODING 257
SWIDTH 501 0
DWIDTH 39 0
BBX 30 52 4 -1
BITMAP
03FFFFE0
03FFFFE0
03FFFFE0
03FFFFE0
00000000
00000000
00000000
00000000
00000000
00000000
00000000
00000000
000FF800
007FFE00
03FFFF80
0FFFFFC0
3FFFFFE0
3FFC7FE0
1F800FF0
1E0007F0
080003F8
000003F8
000001F8
000001F8
000001FC
000001FC
000001FC
00001FFC
0003FFFC
003FFFFC
00FFFFFC
03FFF9FC
0FFF01FC
1FF001FC
3FC001FC
3F8001FC
7F0001FC
7E0001FC
FE0001FC
FC0001FC
FC0001FC
FC0001FC
FE0003FC
FE0007FC
FE000FFC
7F003FFC
7FC0FFFC
3FFFFCFC
1FFFF8FC
0FFFE0FC
07FFC0FC
01FE0000
ENDCHAR
STARTCHAR 0102
ENCODING 258
SWIDTH 540 0
DWIDTH 42 0
BBX 42 66 0 0
BITMAP
000400080000
003C000F0000
003C000F0000
003E001F0000
003E001F0000
001F003E0000
001FC0FC0000
000FFFFC0000
0007FFF80000
0001FFE00000
00007F800000
000000000000
000000000000
000000000000
000000000000
00007F800000
00007F800000
00007FC00000
0000FFC00000
0000FFC00000
0000FFE00000
0001FFE00000
0001F3E00000
0001F3F00000
0003F3F00000
0003E1F00000
0003E1F80000
0007E1F80000
0007E0F80000
0007C0FC0000
000FC0FC0000
000FC0FC0000
000F807E0000
001F807E0000
001F807E0000
001F003F0000
003F003F0000
003F003F0000
003E001F8000
007E001F8000
007E001F8000
007C000FC000
00FC000FC000
00FC000FC000
01FC0007E000
01FFFFFFE000
01FFFFFFE000
03FFFFFFF000
03FFFFFFF000
03FFFFFFF000
07F00003F800
07E00001F800
07E00001FC00
0FE00001FC00
0FC00000FC00
0FC00000FE00
1FC00000FE00
1F8000007E00
1F8000007F00
3F8000007F00
3F8000007F00
3F0000003F80
7F0000003F80
7F0000003F80
7E0000001FC0
FE0000001FC0
ENDCHAR
STARTCHAR 0103
ENCODING 259
SWIDTH 501 0
DWIDTH 39 0
BBX 30 57 4 0
BITMAP
0F8000F8
078000F0
078000F0
07C001F0
07E003F0
03F007E0
03FC1FC0
01FFFFC0
00FFFF80
003FFE00
000FF800
00000000
00000000
00000000
00000000
00000000
00000000
000FF800
007FFE00
03FFFF80
0FFFFFC0
3FFFFFE0
3FFC7FE0
1F800FF0
1E0007F0
080003F8
000003F8
000001F8
000001F8
000001FC
000001FC
000001FC
00001FFC
0003FFFC
003FFFFC
00FFFFFC
03FFF9FC
0FFF01FC
1FF001FC
3FC001FC
3F8001FC
7F0001FC
7E0001FC
FE0001FC
FC0001FC
FC0001FC
FC0001FC
FE0003FC
FE0007FC
FE000FFC
7F003FFC
7FC0FFFC
3FFFFCFC
1FFFF8FC
0FFFE0FC
07FFC0FC
01FE0000
ENDCHAR
STARTCHAR 0104
ENCODING 260
SWIDTH 540 0
DWIDTH 42 0
BBX 44 68 0 -17
BITMAP
00007F800000
00007F800000
00007FC00000
0000FFC00000
0000FFC00000
0000FFE00000
0001FFE00000
0001F3E00000
0001F3F00000
0003F3F00000
0003E1F00000
0003E1F80000
0007E1F80000
0007E0F80000
0007C0FC0000
000FC0FC0000
000FC0FC0000
000F807E0000
001F807E0000
001F807E0000
001F003F0000
003F003F0000
003F003F0000
003E001F8000
007E001F8000
007E001F8000
007C000FC000
00FC000FC000
00FC000FC000
01FC0007E000
01FFFFFFE000
01FFFFFFE000
03FFFFFFF000
03FFFFFFF000
03FFFFFFF000
07F00003F800
07E00001F800
07E00001FC00
0FE00001FC00
0FC00000FC00
0FC00000FE00
1FC00000FE00
1F8000007E00
1F8000007F00
3F8000007F00
3F8000007F00
3F0000003F80
7F0000003F80
7F0000003F80
7E0000001FC0
FE0000001FC0
000000000F80
000000001F00
000000003E00
000000007C00
000000007800
00000000F800
00000000F000
00000001F000
00000001F000
00000001F000
00000001F000
00000001F820
00000001FFE0
00000000FFF0
00000000FFF0
000000007FE0
000000001F80
ENDCHAR
STARTCHAR 0105
ENCODING 261
SWIDTH 501 0
DWIDTH 39 0
BBX 31 55 4 -16
BITMAP
000FF800
007FFE00
03FFFF80
0FFFFFC0
3FFFFFE0
3FFC7FE0
1F800FF0
1E0007F0
080003F8
000003F8
000001F8
000001F8
000001FC
000001FC
000001FC
00001FFC
0003FFFC
003FFFFC
00FFFFFC
03FFF9FC
0FFF01FC
1FF001FC
3FC001FC
3F8001FC
7F0001FC
7E0001FC
FE0001FC
FC0001FC
FC0001FC
FC0001FC
FE0003FC
FE0007FC
FE000FFC
7F003FFC
7FC0FFFC
3FFFFCFC
1FFFF8FC
0FFFE0FC
07FFC0FC
01FE01F8
000003E0
000007C0
00000F80
00000F00
00001F00
00001E00
00003E00
00003E00
00003E00
00003F00
00003F8C
00001FFE
00001FFE
00000FFC
000003F0
ENDCHAR
STARTCHAR 0106
ENCODING 262
SWIDTH 565 0
DWIDTH 44 0
BBX 38 68 4 -1
BITMAP
0000001800
0000003C00
0000007E00
000000FF00
000001FE00
000003FC00
000007F800
00000FE000
00001FC000
00007F8000
00003E0000
00001C0000
0000080000
0000000000
0000000000
00003FE000
0001FFFC00
000FFFFF00
001FFFFFC0
007FFFFFE0
00FFFFFFF0
01FFC01FF8
03FE0007F0
07FC0001E0
07F80000C0
0FF0000000
0FE0000000
1FC0000000
1FC0000000
3F80000000
3F80000000
7F00000000
7F00000000
7F00000000
7E00000000
7E00000000
FE00000000
FE00000000
FE00000000
FE00000000
FE00000000
FE00000000
FE00000000
FE00000000
FE00000000
FE00000000
FE00000000
FE00000000
7F00000000
7F00000000
7F00000000
7F00000000
3F80000000
3F80000000
3FC0000000
1FC0000000
1FE0000000
0FF0000060
0FF80000F0
07FC0001F8
03FE0003FC
01FFC00FF8
00FFFFFFF0
007FFFFFE0
003FFFFFC0
000FFFFF00
0003FFFC00
00007FE000
ENDCHAR
STARTCHAR 0107
ENCODING 263
SWIDTH 450 0
DWIDTH 35 0
BBX 29 62 4 -1
BITMAP
00000080
000001C0
000003E0
000007F0
00000FF8
00000FF0
00001FE0
00003FC0
00007F00
0000FE00
0001FC00
0001F800
0003F000
0003E000
0001C000
00008000
00000000
00000000
00000000
00000000
00000000
00000000
0003FC00
001FFF80
007FFFC0
01FFFFF0
03FFFFF8
07FF0FF0
0FF801E0
1FE000C0
1FC00040
3F800000
3F800000
7F000000
7F000000
FE000000
FE000000
FE000000
FE000000
FC000000
FC000000
FC000000
FC000000
FC000000
FC000000
FE000000
FE000000
FE000000
FE000000
7F000000
7F000000
7F800000
3F800000
3FC00020
1FE00070
0FF801F0
0FFF0FF8
07FFFFF8
01FFFFF0
00FFFFC0
003FFF00
0007F800
ENDCHAR
STARTCHAR 0108
ENCODING 264
SWIDTH 565 0
DWIDTH 44 0
BBX 38 66 4 -1
BITMAP
00003F8000
00007FC000
0000FFE000
0001FFF000
0003F1F800
0007E0FC00
000FC07E00
001F801F00
003F000F80
001C000700
0000000200
0000000000
0000000000
00003FE000
0001FFFC00
000FFFFF00
001FFFFFC0
007FFFFFE0
00FFFFFFF0
01FFC01FF8
03FE0007F0
07FC0001E0
07F80000C0
0FF0000000
0FE0000000
1FC0000000
1FC0000000
3F80000000
3F80000000
7F00000000
7F00000000
7F00000000
7E00000000
7E00000000
FE00000000
FE00000000
FE00000000
FE00000000
FE00000000
FE00000000
FE00000000
FE00000000
FE00000000
FE00000000
FE00000000
FE00000000
7F00000000
7F00000000
7F00000000
7F00000000
3F80000000
3F80000000
3FC0000000
1FC0000000
1FE0000000
0FF0000060
0FF80000F0
07FC0001F8
03FE0003FC
01FFC00FF8
00FFFFFFF0
007FFFFFE0
003FFFFFC0
000FFFFF00
0003FFFC00
00007FE000
ENDCHAR
STARTCHAR 0109
ENCODING 265
SWIDTH 450 0
DWIDTH 35 0
BBX 29 59 4 -1
BITMAP
0003F800
0007FC00
000FFE00
000FFF00
001FFF80
003F9F80
007F0FC0
00FE07E0
00FC03F0
01F001F8
03E000F8
03C00078
01800030
00000000
00000000
00000000
00000000
00000000
00000000
0003FC00
001FFF80
007FFFC0
01FFFFF0
03FFFFF8
07FF0FF0
0FF801E0
1FE000C0
1FC00040
3F800000
3F800000
7F000000
7F000000
FE000000
FE000000
FE000000
FE000000
FC000000
FC000000
FC000000
FC000000
FC000000
FC000000
FE000000
FE000000
FE000000
FE000000
7F000000
7F000000
7F800000
3F800000
3FC00020
1FE00070
0FF801F0
0FFF0FF8
07FFFFF8
01FFFFF0
00FFFFC0
003FFF00
0007F800
ENDCHAR
STARTCHAR 010A
ENCODING 266
SWIDTH 565 0
DWIDTH 44 0
BBX 38 65 4 -1
BITMAP
00000F0000
00003F8000
00003FC000
00007FC000
00007FC000
00007FC000
00003F8000
00001F0000
0000000000
0000000000
0000000000
0000000000
00003FE000
0001FFFC00
000FFFFF00
001FFFFFC0
007FFFFFE0
00FFFFFFF0
01FFC01FF8
03FE0007F0
07FC0001E0
07F80000C0
0FF0000000
0FE0000000
1FC0000000
1FC0000000
3F80000000
3F80000000
7F00000000
7F00000000
7F00000000
7E00000000
7E00000000
FE00000000
FE00000000
FE00000000
FE00000000
FE00000000
FE00000000
FE00000000
FE00000000
FE00000000
FE00000000
FE00000000
FE00000000
7F00000000
7F00000000
7F00000000
7F00000000
3F80000000
3F80000000
3FC0000000
1FC0000000
1FE0000000
0FF0000060
0FF80000F0
07FC0001F8
03FE0003FC
01FFC00FF8
00FFFFFFF0
007FFFFFE0
003FFFFFC0
000FFFFF00
0003FFFC00
00007FE000
ENDCHAR
STARTCHAR 010B
ENCODING 267
SWIDTH 450 0
DWIDTH 35 0
BBX 29 55 4 -1
BITMAP
0001F000
0003F800
0003FC00
0003FC00
0003FC00
0003FC00
0003F800
0000F000
00000000
00000000
00000000
00000000
00000000
00000000
00000000
0003FC00
001FFF80
007FFFC0
01FFFFF0
03FFFFF8
07FF0FF0
0FF801E0
1FE000C0
1FC00040
3F800000
3F800000
7F000000
7F000000
FE000000
FE000000
FE000000
FE000000
FC000000
FC000000
FC000000
FC000000
FC000000
FC000000
FE000000
FE000000
FE000000
FE000000
7F000000
7F000000
7F800000
3F800000
3FC00020
1FE00070
0FF801F0
0FFF0FF8
07FFFFF8
01FFFFF0
00FFFFC0
003FFF00
0007F800
ENDCHAR
STARTCHAR 010C
ENCODING 268
SWIDTH 565 0
DWIDTH 44 0
BBX 38 67 4 -1
BITMAP
0000000200
001E000700
003F000F80
001F803F00
000FC07E00
0007E0FC00
0003F1F800
0001FFF000
0000FFE000
00007FC000
00003F8000
0000000000
0000000000
0000000000
00003FE000
0001FFFC00
000FFFFF00
001FFFFFC0
007FFFFFE0
00FFFFFFF0
01FFC01FF8
03FE0007F0
07FC0001E0
07F80000C0
0FF0000000
0FE0000000
1FC0000000
1FC0000000
3F80000000
3F80000000
7F00000000
7F00000000
7F00000000
7E00000000
7E00000000
FE00000000
FE00000000
FE00000000
FE00000000
FE00000000
FE00000000
FE00000000
FE00000000
FE00000000
FE00000000
FE00000000
FE00000000
7F00000000
7F00000000
7F00000000
7F00000000
3F80000000
3F80000000
3FC0000000
1FC0000000
1FE0000000
0FF0000060
0FF80000F0
07FC0001F8
03FE0003FC
01FFC00FF8
00FFFFFFF0
007FFFFFE0
003FFFFFC0
000FFFFF00
0003FFFC00
00007FE000
ENDCHAR
STARTCHAR 010D
ENCODING 269
SWIDTH 450 0
DWIDTH 35 0
BBX 29 59 4 -1
BITMAP
01800030
03C00078
03E000F8
01F001F8
00FC03F0
00FE07E0
007F0FC0
003F9F80
001FFF80
000FFF00
000FFE00
0007FC00
0003F800
00000000
00000000
00000000
00000000
00000000
00000000
0003FC00
001FFF80
007FFFC0
01FFFFF0
03FFFFF8
07FF0FF0
0FF801E0
1FE000C0
1FC00040
3F800000
3F800000
7F000000
7F000000
FE000000
FE000000
FE000000
FE000000
FC000000
FC000000
FC000000
FC000000
FC000000
FC000000
FE000000
FE000000
FE000000
FE000000
7F000000
7F000000
7F800000
3F800000
3FC00020
1FE00070
0FF801F0
0FFF0FF8
07FFFFF8
01FFFFF0
00FFFFC0
003FFF00
0007F800
ENDCHAR
STARTCHAR 010E
ENCODING 270
SWIDTH 617 0
DWIDTH 48 0
BBX 37 66 7 0
BITMAP
0080004000
03C000E000
03E001F000
01F003E000
00F807C000
00FE1F8000
007F3F0000
003FFF0000
001FFE0000
000FFC0000
0007F80000
0000000000
0000000000
0000000000
0000000000
FFFFE00000
FFFFFE0000
FFFFFF8000
FFFFFFE000
FFFFFFF000
FC01FFFC00
FC000FFE00
FC0003FF00
FC0001FF00
FC00007F80
FC00003FC0
FC00003FC0
FC00001FE0
FC00000FE0
FC00000FE0
FC000007F0
FC000007F0
FC000007F0
FC000003F0
FC000003F0
FC000003F8
FC000003F8
FC000003F8
FC000003F8
FC000003F8
FC000003F8
FC000003F8
FC000003F8
FC000003F8
FC000003F8
FC000003F8
FC000003F0
FC000007F0
FC000007F0
FC000007F0
FC000007F0
FC00000FE0
FC00000FE0
FC00001FC0
FC00003FC0
FC00003F80
FC00007F80
FC0001FF00
FC0003FE00
FC000FFC00
FC01FFF800
FFFFFFF000
FFFFFFE000
FFFFFF8000
FFFFFE0000
FFFFE00000
ENDCHAR
STARTCHAR 010F
ENCODING 271
SWIDTH 578 0
DWIDTH 45 0
BBX 41 60 4 -1
BITMAP
000000000780
000000000780
000000000780
000000000780
0000003F8780
0000003F8780
0000003F8780
0000003F8780
0000003F8780
0000003F8780
0000003F8780
0000003F8780
0000003F8780
0000003F8780
0000003F8780
0000003F8700
0000003F8700
0000003F8000
0000003F8000
0000003F8000
000FF03F8000
003FFE3F8000
00FFFF1F8000
01FFFFDF8000
03FFFFFF8000
07FF3FFF8000
0FF803FF8000
1FE000FF8000
3FC0007F8000
3F80003F8000
3F80003F8000
7F00003F8000
7F00003F8000
FE00003F8000
FE00003F8000
FE00003F8000
FE00003F8000
FC00003F8000
FC00003F8000
FC00003F8000
FC00003F8000
FC00003F8000
FC00003F8000
FE00003F8000
FE00003F8000
FE00003F8000
FE00003F8000
FE00003F8000
7F00003F8000
7F00003F8000
7F80007F8000
3FC000FF8000
3FE001FF8000
1FF007FF8000
0FFE3FFF8000
0FFFFFDF8000
07FFFF9F8000
01FFFE1F8000
00FFF81F8000
001FE0000000
ENDCHAR
STARTCHAR 0110
ENCODING 272
SWIDTH 642 0
DWIDTH 50 0
BBX 43 51 3 0
BITMAP
03FFFF800000
03FFFFF00000
03FFFFFE0000
03FFFFFF8000
03FFFFFFC000
03F00FFFE000
03F0007FF000
03F0000FF800
03F00007FC00
03F00003FE00
03F00001FE00
03F00000FF00
03F000007F00
03F000007F80
03F000003F80
03F000003F80
03F000001FC0
03F000001FC0
03F000001FC0
03F000001FC0
03F000000FC0
03F000000FC0
1FFFFF000FE0
FFFFFF000FE0
FFFFFF000FE0
FFFFFF000FE0
03F000000FE0
03F000000FE0
03F000000FC0
03F000000FC0
03F000000FC0
03F000001FC0
03F000001FC0
03F000001FC0
03F000001FC0
03F000003F80
03F000003F80
03F000007F80
03F000007F00
03F00000FF00
03F00001FE00
03F00003FE00
03F00007FC00
03F0000FF800
03F0007FF000
03F007FFE000
03FFFFFFC000
03FFFFFF0000
03FFFFFE0000
03FFFFF00000
03FFFF000000
ENDCHAR
STARTCHAR 0111
ENCODING 273
SWIDTH 552 0
DWIDTH 43 0
BBX 38 56 4 -1
BITMAP
0000003F80
0000003F80
0000003F80
0000003F80
0000003F80
0000003F80
0000003F80
0003FFFFFC
0003FFFFFC
0003FFFFFC
0003FFFFFC
0000003F80
0000003F80
0000003F80
0000003F80
0000003F80
0000003F80
0000003F80
0000003F80
0000003F80
001FF83F80
007FFE1F80
01FFFF9F80
03FFFFDF80
07FFFFFF80
0FFC07FF80
1FF001FF80
3FE0007F80
3FC0003F80
7F80003F80
7F00003F80
7F00003F80
FE00003F80
FE00003F80
FE00003F80
FC00003F80
FC00003F80
FC00003F80
FC00003F80
FC00003F80
FC00003F80
FE00003F80
FE00003F80
FE00003F80
FF00003F80
7F00003F80
7F80007F80
3F8000FF80
3FC001FF80
1FF007FF80
1FFE3FFF80
0FFFFFDF80
07FFFF9F80
01FFFE1F80
00FFFC1F80
001FE00000
ENDCHAR
STARTCHAR 0112
ENCODING 274
SWIDTH 527 0
DWIDTH 41 0
BBX 30 61 7 0
BITMAP
07FFFFC0
07FFFFC0
07FFFFC0
07FFFFC0
00000000
00000000
00000000
00000000
00000000
00000000
FFFFFFF8
FFFFFFF8
FFFFFFF8
FFFFFFF8
FFFFFFF8
FC000000
FC000000
FC000000
FC000000
FC000000
FC000000
FC000000
FC000000
FC000000
FC000000
FC000000
FC000000
FC000000
FC000000
FC000000
FC000000
FFFFFFC0
FFFFFFC0
FFFFFFC0
FFFFFFC0
FFFFFFC0
FFFFFFC0
FC000000
FC000000
FC000000
FC000000
FC000000
FC000000
FC000000
FC000000
FC000000
FC000000
FC000000
FC000000
FC000000
FC000000
FC000000
FC000000
FC000000
FC000000
FFFFFFFC
FFFFFFFC
FFFFFFFC
FFFFFFFC
FFFFFFFC
FFFFFFFC
ENDCHAR
STARTCHAR 0113
ENCODING 275
SWIDTH 501 0
DWIDTH 39 0
BBX 32 52 4 -1
BITMAP
03FFFFE0
03FFFFE0
03FFFFE0
03FFFFE0
00000000
00000000
00000000
00000000
00000000
00000000
00000000
00000000
0007F800
003FFF00
00FFFF80
01FFFFC0
03FFFFE0
07FC0FF0
0FF003F8
1FC001F8
1F8000FC
3F0000FC
3F00007E
7E00007E
7E00003E
FE00003E
FC00003E
FC00003F
FC00003F
FFFFFFFF
FFFFFFFF
FFFFFFFF
FFFFFFFF
FFFFFFFE
FC000000
FC000000
FC000000
FE000000
FE000000
7E000000
7F000000
7F000000
3F800000
3FC00000
1FE00010
0FF80078
07FE03F8
03FFFFFC
01FFFFFC
00FFFFF0
003FFF80
0007FC00
ENDCHAR
STARTCHAR 0114
ENCODING 276
SWIDTH 527 0
DWIDTH 41 0
BBX 30 66 7 0
BITMAP
01000000
0F0003C0
0F0003C0
0F8003C0
078007C0
07C00F80
03F03F80
03FFFF00
01FFFE00
007FF800
001FE000
00000000
00000000
00000000
00000000
FFFFFFF8
FFFFFFF8
FFFFFFF8
FFFFFFF8
FFFFFFF8
FC000000
FC000000
FC000000
FC000000
FC000000
FC000000
FC000000
FC000000
FC000000
FC000000
FC000000
FC000000
FC000000
FC000000
FC000000
FC000000
FFFFFFC0
FFFFFFC0
FFFFFFC0
FFFFFFC0
FFFFFFC0
FFFFFFC0
FC000000
FC000000
FC000000
FC000000
FC000000
FC000000
FC000000
FC000000
FC000000
FC000000
FC000000
FC000000
FC000000
FC000000
FC000000
FC000000
FC000000
FC000000
FFFFFFFC
FFFFFFFC
FFFFFFFC
FFFFFFFC
FFFFFFFC
FFFFFFFC
ENDCHAR
STARTCHAR 0115
ENCODING 277
SWIDTH 501 0
DWIDTH 39 0
BBX 32 57 4 0
BITMAP
0F8000F8
078000F0
078000F0
07C001F0
07E003F0
03F007E0
01FC1FC0
01FFFFC0
00FFFF80
003FFE00
000FF800
00000000
00000000
00000000
00000000
00000000
00000000
0007F800
003FFF00
00FFFF80
01FFFFC0
03FFFFE0
07FC0FF0
0FF003F8
1FC001F8
1F8000FC
3F0000FC
3F00007E
7E00007E
7E00003E
FE00003E
FC00003E
FC00003F
FC00003F
FFFFFFFF
FFFFFFFF
FFFFFFFF
FFFFFFFF
FFFFFFFE
FC000000
FC000000
FC000000
FE000000
FE000000
7E000000
7F000000
7F000000
3F800000
3FC00000
1FE00010
0FF80078
07FE03F8
03FFFFFC
01FFFFFC
00FFFFF0
003FFF80
0007FC00
ENDCHAR
STARTCHAR 0116
ENCODING 278
SWIDTH 527 0
DWIDTH 41 0
BBX 30 64 7 0
BITMAP
00078000
000FE000
001FE000
001FF000
001FF000
001FE000
001FE000
000FC000
00000000
00000000
00000000
00000000
00000000
FFFFFFF8
FFFFFFF8
FFFFFFF8
FFFFFFF8
FFFFFFF8
FC000000
FC000000
FC000000
FC000000
FC000000
FC000000
FC000000
FC000000
FC000000
FC000000
FC000000
FC000000
FC000000
FC000000
FC000000
FC000000
FFFFFFC0
FFFFFFC0
FFFFFFC0
FFFFFFC0
FFFFFFC0
FFFFFFC0
FC000000
FC000000
FC000000
FC000000
FC000000
FC000000
FC000000
FC000000
FC000000
FC000000
FC000000
FC000000
FC000000
FC000000
FC000000
FC000000
FC000000
FC000000
FFFFFFFC
FFFFFFFC
FFFFFFFC
FFFFFFFC
FFFFFFFC
FFFFFFFC
ENDCHAR
STARTCHAR 0117
ENCODING 279
SWIDTH 501 0
DWIDTH 39 0
BBX 32 55 4 -1
BITMAP
0003E000
0007F000
0007F800
000FF800
000FF800
0007F000
0007F000
0003E000
00000000
00000000
00000000
00000000
00000000
00000000
00000000
0007F800
003FFF00
00FFFF80
01FFFFC0
03FFFFE0
07FC0FF0
0FF003F8
1FC001F8
1F8000FC
3F0000FC
3F00007E
7E00007E
7E00003E
FE00003E
FC00003E
FC00003F
FC00003F
FFFFFFFF
FFFFFFFF
FFFFFFFF
FFFFFFFF
FFFFFFFE
FC000000
FC000000
FC000000
FE000000
FE000000
7E000000
7F000000
7F000000
3F800000
3FC00000
1FE00010
0FF80078
07FE03F8
03FFFFFC
01FFFFFC
00FFFFF0
003FFF80
0007FC00
ENDCHAR
STARTCHAR 0118
ENCODING 280
SWIDTH 527 0
DWIDTH 41 0
BBX 31 68 7 -17
BITMAP
FFFFFFF8
FFFFFFF8
FFFFFFF8
FFFFFFF8
FFFFFFF8
FC000000
FC000000
FC000000
FC000000
FC000000
FC000000
FC000000
FC000000
FC000000
FC000000
FC000000
FC000000
FC000000
FC000000
FC000000
FC000000
FFFFFFC0
FFFFFFC0
FFFFFFC0
FFFFFFC0
FFFFFFC0
FFFFFFC0
FC000000
FC000000
FC000000
FC000000
FC000000
FC000000
FC000000
FC000000
FC000000
FC000000
FC000000
FC000000
FC000000
FC000000
FC000000
FC000000
FC000000
FC000000
FFFFFFFC
FFFFFFFC
FFFFFFFC
FFFFFFFC
FFFFFFFC
FFFFFFFC
000001F0
000003E0
00000780
00000F80
00001F00
00001E00
00003E00
00003E00
00003E00
00003E00
00003E00
00003F04
00003FFC
00001FFE
00001FFE
00000FFC
000003F0
ENDCHAR
STARTCHAR 0119
ENCODING 281
SWIDTH 501 0
DWIDTH 39 0
BBX 32 55 4 -16
BITMAP
0007F800
003FFF00
00FFFF80
01FFFFC0
03FFFFE0
07FC0FF0
0FF003F8
1FC001F8
1F8000FC
3F0000FC
3F00007E
7E00007E
7E00003E
FE00003E
FC00003E
FC00003F
FC00003F
FFFFFFFF
FFFFFFFF
FFFFFFFF
FFFFFFFF
FFFFFFFE
FC000000
FC000000
FC000000
FE000000
FE000000
7E000000
7F000000
7F000000
3F800000
3FC00000
1FE00010
0FF80078
07FE03F8
03FFFFFC
01FFFFFC
00FFFFF0
003FFFE0
0007FFC0
00000F80
00000F00
00001E00
00003C00
00003C00
00007C00
00007C00
00007C00
00007C00
00007C00
00007F18
00007FF8
00003FFC
00001FF8
000007E0
ENDCHAR
STARTCHAR 011A
ENCODING 282
SWIDTH 527 0
DWIDTH 41 0
BBX 30 66 7 0
BITMAP
02000100
070003C0
0F8007C0
07C00F80
03F01F00
01F87F00
00FCFE00
00FFFC00
007FF800
003FF000
001FE000
00000000
00000000
00000000
00000000
FFFFFFF8
FFFFFFF8
FFFFFFF8
FFFFFFF8
FFFFFFF8
FC000000
FC000000
FC000000
FC000000
FC000000
FC000000
FC000000
FC000000
FC000000
FC000000
FC000000
FC000000
FC000000
FC000000
FC000000
FC000000
FFFFFFC0
FFFFFFC0
FFFFFFC0
FFFFFFC0
FFFFFFC0
FFFFFFC0
FC000000
FC000000
FC000000
FC000000
FC000000
FC000000
FC000000
FC000000
FC000000
FC000000
FC000000
FC000000
FC000000
FC000000
FC000000
FC000000
FC000000
FC000000
FFFFFFFC
FFFFFFFC
FFFFFFFC
FFFFFFFC
FFFFFFFC
FFFFFFFC
ENDCHAR
STARTCHAR 011B
ENCODING 283
SWIDTH 501 0
DWIDTH 39 0
BBX 32 59 4 -1
BITMAP
03000060
078000F0
07C001F0
03E003E0
03F007E0
01F80FC0
00FC1F80
007E3F00
003FFE00
003FFE00
001FFC00
000FF800
0007F000
00000000
00000000
00000000
00000000
00000000
00000000
0007F800
003FFF00
00FFFF80
01FFFFC0
03FFFFE0
07FC0FF0
0FF003F8
1FC001F8
1F8000FC
3F0000FC
3F00007E
7E00007E
7E00003E
FE00003E
FC00003E
FC00003F
FC00003F
FFFFFFFF
FFFFFFFF
FFFFFFFF
FFFFFFFF
FFFFFFFE
FC000000
FC000000
FC000000
FE000000
FE000000
7E000000
7F000000
7F000000
3F800000
3FC00000
1FE00010
0FF80078
07FE03F8
03FFFFFC
01FFFFFC
00FFFFF0
003FFF80
0007FC00
ENDCHAR
STARTCHAR 011C
ENCODING 284
SWIDTH 617 0
DWIDTH 48 0
BBX 39 66 4 -1
BITMAP
00000FE000
00001FF000
00003FF800
00007FFC00
0000FC7E00
0001F83F00
0003F01F80
0007E00FC0
000F8003E0
00070001C0
0000000000
0000000000
0000000000
00001FF000
0001FFFE00
0007FFFF80
001FFFFFE0
003FFFFFF0
00FFFFFFF8
01FFC007FC
03FF0001F8
03FC0000F0
07F8000060
0FF0000000
0FE0000000
1FC0000000
1FC0000000
3F80000000
3F80000000
7F00000000
7F00000000
7F00000000
7F00000000
7E00000000
FE00000000
FE00000000
FE00000000
FE00000000
FE00000000
FE0003FFFE
FE0003FFFE
FE0003FFFE
FE0003FFFE
FE0003FFFE
FE0000007E
FE0000007E
7F0000007E
7F0000007E
7F0000007E
7F0000007E
3F8000007E
3F8000007E
3FC000007E
1FC000007E
1FE000007E
0FF000007E
07F800007E
07FC00007E
03FF0001FE
01FFC007FE
00FFFFFFFC
007FFFFFF8
001FFFFFF0
000FFFFFC0
0003FFFF00
00003FF000
ENDCHAR
STARTCHAR 011D
ENCODING 285
SWIDTH 501 0
DWIDTH 39 0
BBX 34 76 4 -18
BITMAP
0003F00000
0007F80000
000FFC0000
001FFE0000
003FFE0000
007F3F0000
007E1F8000
00FC0FC000
01F807E000
03F003E000
07E001F000
07C000F800
0380006000
0100000000
0000000000
0000000000
0000000000
0000000000
0000000000
001FE00000
00FFFFFFC0
01FFFFFFC0
07FFFFFFC0
0FFFFFFFC0
0FF01FFFC0
1FC00FC000
3F8007E000
3F0003F000
3F0003F000
7F0001F800
7E0001F800
7E0001F800
7E0001F800
7E0001F800
7E0001F800
7E0001F800
7F0001F800
3F0003F000
3F8003F000
1FC007E000
1FE00FE000
0FF83FC000
07FFFF8000
03FFFF0000
07FFFC0000
0F9FF00000
1F00000000
3E00000000
3E00000000
3E00000000
3E00000000
3F00000000
3F00000000
3FF0000000
1FFFFFF000
1FFFFFFC00
07FFFFFF00
0FFFFFFF80
1F3FFFFF80
3E00007FC0
7E00001FC0
7C00000FC0
F800000FC0
F800000FC0
F800000FC0
F800000FC0
F800001FC0
FC00001F80
FE00003F80
FF0000FF00
7FC003FE00
3FFE7FFC00
1FFFFFF000
0FFFFFE000
03FFFF0000
003FF00000
ENDCHAR
STARTCHAR 011E
ENCODING 286
SWIDTH 617 0
DWIDTH 48 0
BBX 39 66 4 0
BITMAP
000F0001E0
000F8003E0
00078003C0
0007C007C0
0007E00FC0
0003F83F80
0001FFFF00
0000FFFE00
00007FFC00
00001FF000
0000000000
0000000000
0000000000
00001FF000
0001FFFE00
0007FFFF80
001FFFFFE0
003FFFFFF0
00FFFFFFF8
01FFC007FC
03FF0001F8
03FC0000F0
07F8000060
0FF0000000
0FE0000000
1FC0000000
1FC0000000
3F80000000
3F80000000
7F00000000
7F00000000
7F00000000
7F00000000
7E00000000
FE00000000
FE00000000
FE00000000
FE00000000
FE00000000
FE0003FFFE
FE0003FFFE
FE0003FFFE
FE0003FFFE
FE0003FFFE
FE0000007E
FE0000007E
7F0000007E
7F0000007E
7F0000007E
7F0000007E
3F8000007E
3F8000007E
3FC000007E
1FC000007E
1FE000007E
0FF000007E
07F800007E
07FC00007E
03FF0001FE
01FFC007FE
00FFFFFFFC
007FFFFFF8
001FFFFFF0
000FFFFFC0
0003FFFF00
00003FF000
ENDCHAR
STARTCHAR 011F
ENCODING 287
SWIDTH 501 0
DWIDTH 39 0
BBX 34 75 4 -18
BITMAP
0080004000
0780007800
078000F800
07C000F800
07C001F000
03E001F000
03F003E000
01FC0FE000
00FFFFC000
007FFF8000
003FFF0000
000FFC0000
0000000000
0000000000
0000000000
0000000000
0000000000
0000000000
001FE00000
00FFFFFFC0
01FFFFFFC0
07FFFFFFC0
0FFFFFFFC0
0FF01FFFC0
1FC00FC000
3F8007E000
3F0003F000
3F0003F000
7F0001F800
7E0001F800
7E0001F800
7E0001F800
7E0001F800
7E0001F800
7E0001F800
7F0001F800
3F0003F000
3F8003F000
1FC007E000
1FE00FE000
0FF83FC000
07FFFF8000
03FFFF0000
07FFFC0000
0F9FF00000
1F00000000
3E00000000
3E00000000
3E00000000
3E00000000
3F00000000
3F00000000
3FF0000000
1FFFFFF000
1FFFFFFC00
07FFFFFF00
0FFFFFFF80
1F3FFFFF80
3E00007FC0
7E00001FC0
7C00000FC0
F800000FC0
F800000FC0
F800000FC0
F800000FC0
F800001FC0
FC00001F80
FE00003F80
FF0000FF00
7FC003FE00
3FFE7FFC00
1FFFFFF000
0FFFFFE000
03FFFF0000
003FF00000
ENDCHAR
STARTCHAR 0120
ENCODING 288
SWIDTH 617 0
DWIDTH 48 0
BBX 39 65 4 -1
BITMAP
000007C000
00000FE000
00001FF000
00001FF000
00001FF000
00001FF000
00000FE000
000007C000
0000000000
0000000000
0000000000
0000000000
00001FF000
0001FFFE00
0007FFFF80
001FFFFFE0
003FFFFFF0
00FFFFFFF8
01FFC007FC
03FF0001F8
03FC0000F0
07F8000060
0FF0000000
0FE0000000
1FC0000000
1FC0000000
3F80000000
3F80000000
7F00000000
7F00000000
7F00000000
7F00000000
7E00000000
FE00000000
FE00000000
FE00000000
FE00000000
FE00000000
FE0003FFFE
FE0003FFFE
FE0003FFFE
FE0003FFFE
FE0003FFFE
FE0000007E
FE0000007E
7F0000007E
7F0000007E
7F0000007E
7F0000007E
3F8000007E
3F8000007E
3FC000007E
1FC000007E
1FE000007E
0FF000007E
07F800007E
07FC00007E
03FF0001FE
01FFC007FE
00FFFFFFFC
007FFFFFF8
001FFFFFF0
000FFFFFC0
0003FFFF00
00003FF000
ENDCHAR
STARTCHAR 0121
ENCODING 289
SWIDTH 501 0
DWIDTH 39 0
BBX 34 72 4 -18
BITMAP
0001E00000
0003F00000
0007F80000
0007F80000
0007F80000
0007F80000
0007F00000
0003E00000
0000000000
0000000000
0000000000
0000000000
0000000000
0000000000
0000000000
001FE00000
00FFFFFFC0
01FFFFFFC0
07FFFFFFC0
0FFFFFFFC0
0FF01FFFC0
1FC00FC000
3F8007E000
3F0003F000
3F0003F000
7F0001F800
7E0001F800
7E0001F800
7E0001F800
7E0001F800
7E0001F800
7E0001F800
7F0001F800
3F0003F000
3F8003F000
1FC007E000
1FE00FE000
0FF83FC000
07FFFF8000
03FFFF0000
07FFFC0000
0F9FF00000
1F00000000
3E00000000
3E00000000
3E00000000
3E00000000
3F00000000
3F00000000
3FF0000000
1FFFFFF000
1FFFFFFC00
07FFFFFF00
0FFFFFFF80
1F3FFFFF80
3E00007FC0
7E00001FC0
7C00000FC0
F800000FC0
F800000FC0
F800000FC0
F800000FC0
F800001FC0
FC00001F80
FE00003F80
FF0000FF00
7FC003FE00
3FFE7FFC00
1FFFFFF000
0FFFFFE000
03FFFF0000
003FF00000
ENDCHAR
STARTCHAR 0122
ENCODING 290
SWIDTH 617 0
DWIDTH 48 0
BBX 39 70 4 -18
BITMAP
00001FF000
0001FFFE00
0007FFFF80
001FFFFFE0
003FFFFFF0
00FFFFFFF8
01FFC007FC
03FF0001F8
03FC0000F0
07F8000060
0FF0000000
0FE0000000
1FC0000000
1FC0000000
3F80000000
3F80000000
7F00000000
7F00000000
7F00000000
7F00000000
7E00000000
FE00000000
FE00000000
FE00000000
FE00000000
FE00000000
FE0003FFFE
FE0003FFFE
FE0003FFFE
FE0003FFFE
FE0003FFFE
FE0000007E
FE0000007E
7F0000007E
7F0000007E
7F0000007E
7F0000007E
3F8000007E
3F8000007E
3FC000007E
1FC000007E
1FE000007E
0FF000007E
07F800007E
07FC00007E
03FF0001FE
01FFC007FE
00FFFFFFFC
007FFFFFF8
001FFFFFF0
000FFFFFC0
0003FFFF00
00003FF000
0000000000
0000000000
0000000000
0000000000
00000E0000
00001FC000
00001FF000
000003F800
000001F800
000000F800
000000F800
000000F800
000001F800
00001FF000
0000FFE000
0000FF8000
0000F80000
ENDCHAR
STARTCHAR 0123
ENCODING 291
SWIDTH 501 0
DWIDTH 39 0
BBX 34 76 4 -18
BITMAP
00001F0000
0001FF0000
0007FF0000
000FF80000
001F800000
001F000000
001F000000
001F000000
001F000000
001FC00000
000FF80000
0003F80000
0000700000
0000000000
0000000000
0000000000
0000000000
0000000000
0000000000
001FE00000
00FFFFFFC0
01FFFFFFC0
07FFFFFFC0
0FFFFFFFC0
0FF01FFFC0
1FC00FC000
3F8007E000
3F0003F000
3F0003F000
7F0001F800
7E0001F800
7E0001F800
7E0001F800
7E0001F800
7E0001F800
7E0001F800
7F0001F800
3F0003F000
3F8003F000
1FC007E000
1FE00FE000
0FF83FC000
07FFFF8000
03FFFF0000
07FFFC0000
0F9FF00000
1F00000000
3E00000000
3E00000000
3E00000000
3E00000000
3F00000000
3F00000000
3FF0000000
1FFFFFF000
1FFFFFFC00
07FFFFFF00
0FFFFFFF80
1F3FFFFF80
3E00007FC0
7E00001FC0
7C00000FC0
F800000FC0
F800000FC0
F800000FC0
F800000FC0
F800001FC0
FC00001F80
FE00003F80
FF0000FF00
7FC003FE00
3FFE7FFC00
1FFFFFF000
0FFFFFE000
03FFFF0000
003FF00000
ENDCHAR
STARTCHAR 0124
ENCODING 292
SWIDTH 655 0
DWIDTH 51 0
BBX 37 65 7 0
BITMAP
0003FC0000
0003FE0000
0007FF0000
000FFF8000
001F8FC000
003F07E000
007E03F000
00F801F800
01F000FC00
00E0003800
0040000000
0000000000
0000000000
0000000000
FC000003F8
FC000003F8
FC000003F8
FC000003F8
FC000003F8
FC000003F8
FC000003F8
FC000003F8
FC000003F8
FC000003F8
FC000003F8
FC000003F8
FC000003F8
FC000003F8
FC000003F8
FC000003F8
FC000003F8
FC000003F8
FC000003F8
FC000003F8
FC000003F8
FFFFFFFFF8
FFFFFFFFF8
FFFFFFFFF8
FFFFFFFFF8
FFFFFFFFF8
FFFFFFFFF8
FC000003F8
FC000003F8
FC000003F8
FC000003F8
FC000003F8
FC000003F8
FC000003F8
FC000003F8
FC000003F8
FC000003F8
FC000003F8
FC000003F8
FC000003F8
FC000003F8
FC000003F8
FC000003F8
FC000003F8
FC000003F8
FC000003F8
FC000003F8
FC000003F8
FC000003F8
FC000003F8
FC000003F8
ENDCHAR
STARTCHAR 0125
ENCODING 293
SWIDTH 540 0
DWIDTH 42 0
BBX 39 68 -2 0
BITMAP
00FE000000
01FF000000
03FF800000
07FFC00000
0FC7E00000
1F83F00000
3F01F80000
7E00FC0000
FC003E0000
70001C0000
0000080000
0000000000
0000000000
00FE000000
00FE000000
00FE000000
00FE000000
00FE000000
00FE000000
00FE000000
00FE000000
00FE000000
00FE000000
00FE000000
00FE000000
00FE000000
00FE000000
00FE000000
00FE000000
00FE00FE00
00FE07FF80
00FE1FFFE0
00FE3FFFF0
00FE7FFFF0
00FFFFFFF8
00FFF807F8
00FFE003FC
00FFC001FC
00FF8001FC
00FF0000FC
00FE0000FC
00FE0000FE
00FE0000FE
00FE0000FE
00FE0000FE
00FE0000FE
00FE0000FE
00FE0000FE
00FE0000FE
00FE0000FE
00FE0000FE
00FE0000FE
00FE0000FE
00FE0000FE
00FE0000FE
00FE0000FE
00FE0000FE
00FE0000FE
00FE0000FE
00FE0000FE
00FE0000FE
00FE0000FE
00FE0000FE
00FE0000FE
00FE0000FE
00FE0000FE
00FE0000FE
00FE0000FE
ENDCHAR
STARTCHAR 0126
ENCODING 294
SWIDTH 681 0
DWIDTH 53 0
BBX 49 51 2 0
BITMAP
01F8000007E000
01F8000007E000
01F8000007E000
01F8000007E000
01F8000007E000
01F8000007E000
01F8000007E000
01F8000007E000
01F8000007E000
FFFFFFFFFFFF80
FFFFFFFFFFFF80
FFFFFFFFFFFF80
FFFFFFFFFFFF80
01F8000007E000
01F8000007E000
01F8000007E000
01F8000007E000
01F8000007E000
01F8000007E000
01F8000007E000
01F8000007E000
01FFFFFFFFE000
01FFFFFFFFE000
01FFFFFFFFE000
01FFFFFFFFE000
01FFFFFFFFE000
01FFFFFFFFE000
01F8000007E000
01F8000007E000
01F8000007E000
01F8000007E000
01F8000007E000
01F8000007E000
01F8000007E000
01F8000007E000
01F8000007E000
01F8000007E000
01F8000007E000
01F8000007E000
01F8000007E000
01F8000007E000
01F8000007E000
01F8000007E000
01F8000007E000
01F8000007E000
01F8000007E000
01F8000007E000
01F8000007E000
01F8000007E000
01F8000007E000
01F8000007E000
ENDCHAR
STARTCHAR 0127
ENCODING 295
SWIDTH 540 0
DWIDTH 42 0
BBX 36 55 1 0
BITMAP
07F0000000
07F0000000
07F0000000
07F0000000
07F0000000
07F0000000
07F0000000
3FFFFFC000
FFFFFFC000
FFFFFFC000
FFFFFFC000
07F0000000
07F0000000
07F0000000
07F0000000
07F0000000
07F0000000
07F0000000
07F0000000
07F0018000
07F01FFC00
07F07FFE00
07F1FFFF00
07F3FFFF80
07F7FFFFC0
07FFE07FC0
07FF801FE0
07FE000FE0
07FC000FE0
07F80007E0
07F00007E0
07F00007F0
07F00007F0
07F00007F0
07F00007F0
07F00007F0
07F00007F0
07F00007F0
07F00007F0
07F00007F0
07F00007F0
07F00007F0
07F00007F0
07F00007F0
07F00007F0
07F00007F0
07F00007F0
07F00007F0
07F00007F0
07F00007F0
07F00007F0
07F00007F0
07F00007F0
07F00007F0
07F00007F0
ENDCHAR
STARTCHAR 0128
ENCODING 296
SWIDTH 257 0
DWIDTH 20 0
BBX 28 66 -4 0
BITMAP
01C00000
0FF801F0
1FFC01F0
3FFE01F0
3FFF03E0
7E3FC3E0
7C0FFFE0
7807FFC0
7803FFC0
F801FF80
00007E00
00000000
00000000
00000000
00000000
001F8000
001F8000
001F8000
001F8000
001F8000
001F8000
001F8000
001F8000
001F8000
001F8000
001F8000
001F8000
001F8000
001F8000
001F8000
001F8000
001F8000
001F8000
001F8000
001F8000
001F8000
001F8000
001F8000
001F8000
001F8000
001F8000
001F8000
001F8000
001F8000
001F8000
001F8000
001F8000
001F8000
001F8000
001F8000
001F8000
001F8000
001F8000
001F8000
001F8000
001F8000
001F8000
001F8000
001F8000
001F8000
001F8000
001F8000
001F8000
001F8000
001F8000
001F8000
ENDCHAR
STARTCHAR 0129
ENCODING 297
SWIDTH 244 0
DWIDTH 19 0
BBX 27 56 -4 0
BITMAP
07E00180
1FF801E0
3FFC03E0
3FFE03E0
7FFF03E0
7C3F87C0
781FFFC0
F807FF80
F803FF80
F801FF00
70007C00
00000000
00000000
00000000
00000000
00000000
00000000
00000000
003F8000
003F8000
003F8000
003F8000
003F8000
003F8000
003F8000
003F8000
003F8000
003F8000
003F8000
003F8000
003F8000
003F8000
003F8000
003F8000
003F8000
003F8000
003F8000
003F8000
003F8000
003F8000
003F8000
003F8000
003F8000
003F8000
003F8000
003F8000
003F8000
003F8000
003F8000
003F8000
003F8000
003F8000
003F8000
003F8000
003F8000
003F8000
ENDCHAR
STARTCHAR 012A
ENCODING 298
SWIDTH 257 0
DWIDTH 20 0
BBX 21 61 0 0
BITMAP
FFFFF8
FFFFF8
FFFFF8
FFFFF8
000000
000000
000000
000000
000000
000000
01F800
01F800
01F800
01F800
01F800
01F800
01F800
01F800
01F800
01F800
01F800
01F800
01F800
01F800
01F800
01F800
01F800
01F800
01F800
01F800
01F800
01F800
01F800
01F800
01F800
01F800
01F800
01F800
01F800
01F800
01F800
01F800
01F800
01F800
01F800
01F800
01F800
01F800
01F800
01F800
01F800
01F800
01F800
01F800
01F800
01F800
01F800
01F800
01F800
01F800
01F800
ENDCHAR
STARTCHAR 012B
ENCODING 299
SWIDTH 244 0
DWIDTH 19 0
BBX 21 51 -1 0
BITMAP
FFFFF8
FFFFF8
FFFFF8
FFFFF8
000000
000000
000000
000000
000000
000000
000000
000000
000000
01FC00
01FC00
01FC00
01FC00
01FC00
01FC00
01FC00
01FC00
01FC00
01FC00
01FC00
01FC00
01FC00
01FC00
01FC00
01FC00
01FC00
01FC00
01FC00
01FC00
01FC00
01FC00
01FC00
01FC00
01FC00
01FC00
01FC00
01FC00
01FC00
01FC00
01FC00
01FC00
01FC00
01FC00
01FC00
01FC00
01FC00
01FC00
ENDCHAR
STARTCHAR 012C
ENCODING 300
SWIDTH 257 0
DWIDTH 20 0
BBX 22 65 -1 1
BITMAP
F0003C
F0003C
F8003C
7C007C
7E00F8
3F03F8
3FFFF0
1FFFE0
07FFC0
01FE00
000000
000000
000000
000000
00FC00
00FC00
00FC00
00FC00
00FC00
00FC00
00FC00
00FC00
00FC00
00FC00
00FC00
00FC00
00FC00
00FC00
00FC00
00FC00
00FC00
00FC00
00FC00
00FC00
00FC00
00FC00
00FC00
00FC00
00FC00
00FC00
00FC00
00FC00
00FC00
00FC00
00FC00
00FC00
00FC00
00FC00
00FC00
00FC00
00FC00
00FC00
00FC00
00FC00
00FC00
00FC00
00FC00
00FC00
00FC00
00FC00
00FC00
00FC00
00FC00
00FC00
00FC00
ENDCHAR
STARTCHAR 012D
ENCODING 301
SWIDTH 244 0
DWIDTH 19 0
BBX 24 57 -2 0
BITMAP
100008
F0000F
F0001F
F8001E
F8003E
7C007E
7E00FC
3F81FC
3FFFF8
1FFFF0
07FFC0
01FF00
000000
000000
000000
000000
000000
000000
000000
00FE00
00FE00
00FE00
00FE00
00FE00
00FE00
00FE00
00FE00
00FE00
00FE00
00FE00
00FE00
00FE00
00FE00
00FE00
00FE00
00FE00
00FE00
00FE00
00FE00
00FE00
00FE00
00FE00
00FE00
00FE00
00FE00
00FE00
00FE00
00FE00
00FE00
00FE00
00FE00
00FE00
00FE00
00FE00
00FE00
00FE00
00FE00
ENDCHAR
STARTCHAR 012E
ENCODING 302
SWIDTH 257 0
DWIDTH 20 0
BBX 14 68 3 -17
BITMAP
0FC0
0FC0
0FC0
0FC0
0FC0
0FC0
0FC0
0FC0
0FC0
0FC0
0FC0
0FC0
0FC0
0FC0
0FC0
0FC0
0FC0
0FC0
0FC0
0FC0
0FC0
0FC0
0FC0
0FC0
0FC0
0FC0
0FC0
0FC0
0FC0
0FC0
0FC0
0FC0
0FC0
0FC0
0FC0
0FC0
0FC0
0FC0
0FC0
0FC0
0FC0
0FC0
0FC0
0FC0
0FC0
0FC0
0FC0
0FC0
0FC0
0FC0
0FC0
07C0
0F80
1F00
1E00
3C00
7C00
7C00
7800
F800
F800
FC00
FE00
7FF8
7FF8
3FFC
1FF8
07E0
ENDCHAR
STARTCHAR 012F
ENCODING 303
SWIDTH 244 0
DWIDTH 19 0
BBX 13 70 3 -16
BITMAP
0F80
1FC0
3FE0
3FE0
3FE0
3FE0
1FC0
0F80
0000
0000
0000
0000
0000
0000
0000
0000
1FC0
1FC0
1FC0
1FC0
1FC0
1FC0
1FC0
1FC0
1FC0
1FC0
1FC0
1FC0
1FC0
1FC0
1FC0
1FC0
1FC0
1FC0
1FC0
1FC0
1FC0
1FC0
1FC0
1FC0
1FC0
1FC0
1FC0
1FC0
1FC0
1FC0
1FC0
1FC0
1FC0
1FC0
1FC0
1FC0
1FC0
1FC0
0F80
0F00
1E00
3C00
7C00
7800
F800
F800
F800
F800
FC00
FE30
7FF0
7FF8
3FF0
0FC0
ENDCHAR
STARTCHAR 0130
ENCODING 304
SWIDTH 257 0
DWIDTH 20 0
BBX 9 64 6 0
BITMAP
3C00
7F00
FF00
FF80
FF80
FF00
FF00
7E00
0000
0000
0000
0000
0000
7E00
7E00
7E00
7E00
7E00
7E00
7E00
7E00
7E00
7E00
7E00
7E00
7E00
7E00
7E00
7E00
7E00
7E00
7E00
7E00
7E00
7E00
7E00
7E00
7E00
7E00
7E00
7E00
7E00
7E00
7E00
7E00
7E00
7E00
7E00
7E00
7E00
7E00
7E00
7E00
7E00
7E00
7E00
7E00
7E00
7E00
7E00
7E00
7E00
7E00
7E00
ENDCHAR
STARTCHAR 0131
ENCODING 305
SWIDTH 244 0
DWIDTH 19 0
BBX 7 38 6 0
BITMAP
FE
FE
FE
FE
FE
FE
FE
FE
FE
FE
FE
FE
FE
FE
FE
FE
FE
FE
FE
FE
FE
FE
FE
FE
FE
FE
FE
FE
FE
FE
FE
FE
FE
FE
FE
FE
FE
FE
ENDCHAR
STARTCHAR 0132
ENCODING 306
SWIDTH 527 0
DWIDTH 41 0
BBX 27 64 7 -13
BITMAP
FC000FE0
FC000FE0
FC000FE0
FC000FE0
FC000FE0
FC000FE0
FC000FE0
FC000FE0
FC000FE0
FC000FE0
FC000FE0
FC000FE0
FC000FE0
FC000FE0
FC000FE0
FC000FE0
FC000FE0
FC000FE0
FC000FE0
FC000FE0
FC000FE0
FC000FE0
FC000FE0
FC000FE0
FC000FE0
FC000FE0
FC000FE0
FC000FE0
FC000FE0
FC000FE0
FC000FE0
FC000FE0
FC000FE0
FC000FE0
FC000FE0
FC000FE0
FC000FE0
FC000FE0
FC000FE0
FC000FE0
FC000FE0
FC000FE0
FC000FE0
FC000FE0
FC000FE0
FC000FE0
FC000FE0
FC000FE0
FC000FE0
FC000FE0
FC000FE0
00000FE0
00000FE0
00000FE0
00000FE0
00000FE0
00000FC0
00001FC0
000E7FC0
000FFF80
001FFF80
001FFF00
001FFC00
000FF000
ENDCHAR
STARTCHAR 0133
ENCODING 307
SWIDTH 488 0
DWIDTH 38 0
BBX 28 71 5 -17
BITMAP
1E0003C0
7F000FE0
7F800FF0
FF801FF0
FF801FF0
FF800FF0
7F000FE0
3E0007C0
00000000
00000000
00000000
00000000
00000000
00000000
00000000
00000000
7F0007E0
7F0007E0
7F0007E0
7F0007E0
7F0007E0
7F0007E0
7F0007E0
7F0007E0
7F0007E0
7F0007E0
7F0007E0
7F0007E0
7F0007E0
7F0007E0
7F0007E0
7F0007E0
7F0007E0
7F0007E0
7F0007E0
7F0007E0
7F0007E0
7F0007E0
7F0007E0
7F0007E0
7F0007E0
7F0007E0
7F0007E0
7F0007E0
7F0007E0
7F0007E0
7F0007E0
7F0007E0
7F0007E0
7F0007E0
7F0007E0
7F0007E0
7F0007E0
7F0007E0
000007E0
000007E0
000007E0
000007E0
000007E0
000007E0
000007E0
00000FE0
00000FE0
00000FC0
00001FC0
000C3FC0
000FFF80
000FFF80
001FFF00
001FFC00
0007F000
ENDCHAR
STARTCHAR 0134
ENCODING 308
SWIDTH 475 0
DWIDTH 37 0
BBX 35 66 3 -1
BITMAP
00000FF000
00001FF800
00003FFC00
00007FFE00
00007E7F00
0000FC1F80
0001F00FC0
0003E007C0
0007C003E0
00038001C0
0001000080
0000000000
0000000000
0000000000
000007F000
000007F000
000007F000
000007F000
000007F000
000007F000
000007F000
000007F000
000007F000
000007F000
000007F000
000007F000
000007F000
000007F000
000007F000
000007F000
000007F000
000007F000
000007F000
000007F000
000007F000
000007F000
000007F000
000007F000
000007F000
000007F000
000007F000
000007F000
000007F000
000007F000
000007F000
000007F000
000007F000
000007F000
000007F000
000007F000
000007F000
000007F000
000007E000
000007E000
000007E000
18000FE000
78000FE000
FC001FC000
FE003FC000
FF807F8000
7FFFFF8000
3FFFFF0000
1FFFFE0000
0FFFFC0000
03FFF00000
007FC00000
ENDCHAR
STARTCHAR 0135
ENCODING 309
SWIDTH 244 0
DWIDTH 19 0
BBX 24 75 -3 -17
BITMAP
007F00
007F80
00FFC0
01FFC0
03FFE0
07F7F0
0FE3F8
0FC1FC
1F80FC
3F003E
7E001F
7C000F
380006
100000
000000
000000
000000
000000
000000
000000
007F00
007F00
007F00
007F00
007F00
007F00
007F00
007F00
007F00
007F00
007F00
007F00
007F00
007F00
007F00
007F00
007F00
007F00
007F00
007F00
007F00
007F00
007F00
007F00
007F00
007F00
007F00
007F00
007F00
007F00
007F00
007F00
007F00
007F00
007F00
007F00
007F00
007F00
007F00
007F00
007F00
007F00
007F00
007F00
007F00
007F00
007F00
007E00
00FE00
61FE00
7FFC00
7FFC00
FFF800
FFE000
7F8000
ENDCHAR
STARTCHAR 0136
ENCODING 310
SWIDTH 578 0
DWIDTH 45 0
BBX 37 69 7 -18
BITMAP
FC00001FE0
FC00001FC0
FC00003F80
FC00007F00
FC0000FF00
FC0001FE00
FC0001FC00
FC0003F800
FC0007F000
FC000FE000
FC001FE000
FC003FC000
FC003F8000
FC007F0000
FC00FE0000
FC01FE0000
FC03FC0000
FC07F80000
FC07F00000
FC0FE00000
FC1FF00000
FC3FF00000
FC7FF80000
FCFFFC0000
FCFFFC0000
FDFCFE0000
FFFCFE0000
FFF87F0000
FFF03F8000
FFE03F8000
FFC01FC000
FF801FC000
FF000FE000
FF000FF000
FE0007F000
FC0003F800
FC0003F800
FC0001FC00
FC0001FC00
FC0000FE00
FC0000FF00
FC00007F00
FC00003F80
FC00003F80
FC00001FC0
FC00001FE0
FC00000FE0
FC00000FF0
FC000007F0
FC000003F8
FC000003F8
0000000000
0000000000
0000000000
0000000000
0001C00000
0001F80000
0003FE0000
00007F0000
00003F0000
00001F0000
00001F0000
00001F0000
00001F0000
00003F0000
0003FE0000
001FFC0000
001FF00000
001F000000
ENDCHAR
STARTCHAR 0137
ENCODING 311
SWIDTH 501 0
DWIDTH 39 0
BBX 31 73 6 -18
BITMAP
FE000000
FE000000
FE000000
FE000000
FE000000
FE000000
FE000000
FE000000
FE000000
FE000000
FE000000
FE000000
FE000000
FE000000
FE000000
FE000000
FE000000
FE0001FC
FE0003F8
FE0007F0
FE000FE0
FE001FC0
FE001FC0
FE003F80
FE007F00
FE00FE00
FE01FC00
FE01F800
FE03F800
FE07F000
FE0FE000
FE1FC000
FE1FC000
FE3FC000
FE7FE000
FEFFE000
FFFFF000
FFFBF800
FFF1F800
FFE1FC00
FFE0FE00
FFC07E00
FF807F00
FF003F80
FE003F80
FE001FC0
FE000FC0
FE000FE0
FE0007F0
FE0007F0
FE0003F8
FE0001FC
FE0001FC
FE0000FE
FE0000FE
00000000
00000000
00000000
00000000
000E0000
001FC000
001FF000
0007F800
0001F800
0000F800
0000F800
0000F800
0000F800
0003F000
001FF000
00FFE000
00FF8000
00F80000
ENDCHAR
STARTCHAR 0138
ENCODING 312
SWIDTH 501 0
DWIDTH 39 0
BBX 31 38 6 0
BITMAP
FE0001FC
FE0003F8
FE0007F0
FE000FE0
FE001FC0
FE001FC0
FE003F80
FE007F00
FE00FE00
FE01FC00
FE01F800
FE03F800
FE07F000
FE0FE000
FE0FC000
FE1FC000
FE3FC000
FE7FE000
FEFFF000
FEFFF000
FFFBF800
FFF1F800
FFF1FC00
FFE0FE00
FFC07E00
FF807F00
FF003F80
FE003F80
FE001FC0
FE000FC0
FE000FE0
FE0007F0
FE0007F0
FE0003F8
FE0001FC
FE0001FC
FE0000FE
FE0000FE
ENDCHAR
STARTCHAR 0139
ENCODING 313
SWIDTH 488 0
DWIDTH 38 0
BBX 30 67 6 0
BITMAP
00300000
00780000
00FC0000
01FE0000
03FC0000
07F80000
0FE00000
3FC00000
7F800000
FE000000
7C000000
38000000
10000000
00000000
00000000
00000000
7E000000
7E000000
7E000000
7E000000
7E000000
7E000000
7E000000
7E000000
7E000000
7E000000
7E000000
7E000000
7E000000
7E000000
7E000000
7E000000
7E000000
7E000000
7E000000
7E000000
7E000000
7E000000
7E000000
7E000000
7E000000
7E000000
7E000000
7E000000
7E000000
7E000000
7E000000
7E000000
7E000000
7E000000
7E000000
7E000000
7E000000
7E000000
7E000000
7E000000
7E000000
7E000000
7E000000
7E000000
7E000000
7FFFFFFC
7FFFFFFC
7FFFFFFC
7FFFFFFC
7FFFFFFC
7FFFFFFC
ENDCHAR
STARTCHAR 013A
ENCODING 314
SWIDTH 257 0
DWIDTH 20 0
BBX 14 72 5 -1
BITMAP
0030
0070
00F8
01FC
03FC
07F8
0FF0
1FC0
3F80
FF00
7C00
7800
3000
0000
0000
0000
7F00
7F00
7F00
7F00
7F00
7F00
7F00
7F00
7F00
7F00
7F00
7F00
7F00
7F00
7F00
7F00
7F00
7F00
7F00
7F00
7F00
7F00
7F00
7F00
7F00
7F00
7F00
7F00
7F00
7F00
7F00
7F00
7F00
7F00
7F00
7F00
7F00
7F00
7F00
7F00
7F00
7F00
7F00
7F00
7F00
7F00
7F00
7F00
7F00
7F00
3F80
3FE0
3FE0
1FE0
0FF0
07E0
ENDCHAR
STARTCHAR 013B
ENCODING 315
SWIDTH 488 0
DWIDTH 38 0
BBX 29 69 7 -18
BITMAP
FC000000
FC000000
FC000000
FC000000
FC000000
FC000000
FC000000
FC000000
FC000000
FC000000
FC000000
FC000000
FC000000
FC000000
FC000000
FC000000
FC000000
FC000000
FC000000
FC000000
FC000000
FC000000
FC000000
FC000000
FC000000
FC000000
FC000000
FC000000
FC000000
FC000000
FC000000
FC000000
FC000000
FC000000
FC000000
FC000000
FC000000
FC000000
FC000000
FC000000
FC000000
FC000000
FC000000
FC000000
FC000000
FFFFFFF8
FFFFFFF8
FFFFFFF8
FFFFFFF8
FFFFFFF8
FFFFFFF8
00000000
00000000
00000000
00000000
000E0000
000FE000
001FF000
0003F800
0000F800
0000F800
0000F800
0000F800
0000F800
0001F800
001FF000
00FFE000
00FF8000
00780000
ENDCHAR
STARTCHAR 013C
ENCODING 316
SWIDTH 257 0
DWIDTH 20 0
BBX 13 73 5 -18
BITMAP
7F00
7F00
7F00
7F00
7F00
7F00
7F00
7F00
7F00
7F00
7F00
7F00
7F00
7F00
7F00
7F00
7F00
7F00
7F00
7F00
7F00
7F00
7F00
7F00
7F00
7F00
7F00
7F00
7F00
7F00
7F00
7F00
7F00
7F00
7F00
7F00
7F00
7F00
7F00
7F00
7F00
7F00
7F00
7F00
7F00
7F00
7F00
7F00
7F00
7F00
3F80
3FE0
3FE0
1FE0
0FF0
07E0
0000
0000
0000
0000
0E00
0FE0
1FF0
03F8
00F8
00F8
00F8
00F8
01F8
1FF0
FFE0
FF80
F800
ENDCHAR
STARTCHAR 013D
ENCODING 317
SWIDTH 488 0
DWIDTH 38 0
BBX 29 56 7 0
BITMAP
00001E00
00001E00
00001E00
00001E00
00001E00
FC001E00
FC001E00
FC001E00
FC001E00
FC001E00
FC001E00
FC001C00
FC001C00
FC001C00
FC001C00
FC001C00
FC000000
FC000000
FC000000
FC000000
FC000000
FC000000
FC000000
FC000000
FC000000
FC000000
FC000000
FC000000
FC000000
FC000000
FC000000
FC000000
FC000000
FC000000
FC000000
FC000000
FC000000
FC000000
FC000000
FC000000
FC000000
FC000000
FC000000
FC000000
FC000000
FC000000
FC000000
FC000000
FC000000
FC000000
FFFFFFF8
FFFFFFF8
FFFFFFF8
FFFFFFF8
FFFFFFF8
FFFFFFF8
ENDCHAR
STARTCHAR 013E
ENCODING 318
SWIDTH 270 0
DWIDTH 21 0
BBX 15 60 6 -1
BITMAP
001E
001E
001E
001E
FE1E
FE1E
FE1E
FE1E
FE1E
FE1E
FE1E
FE1E
FE1E
FE1E
FE1E
FE1C
FE1C
FE00
FE00
FE00
FE00
FE00
FE00
FE00
FE00
FE00
FE00
FE00
FE00
FE00
FE00
FE00
FE00
FE00
FE00
FE00
FE00
FE00
FE00
FE00
FE00
FE00
FE00
FE00
FE00
FE00
FE00
FE00
FE00
FE00
FE00
FE00
FE00
FE00
7F00
7FC0
7FC0
3FC0
1FE0
0FC0
ENDCHAR
STARTCHAR 013F
ENCODING 319
SWIDTH 488 0
DWIDTH 38 0
BBX 29 51 7 0
BITMAP
FC000000
FC000000
FC000000
FC000000
FC000000
FC000000
FC000000
FC000000
FC000000
FC000000
FC000000
FC000000
FC000000
FC000000
FC000000
FC000000
FC000000
FC000000
FC000000
FC000000
FC000000
FC000F00
FC001FC0
FC003FC0
FC003FE0
FC003FE0
FC003FE0
FC003FE0
FC003FC0
FC001F80
FC000700
FC000000
FC000000
FC000000
FC000000
FC000000
FC000000
FC000000
FC000000
FC000000
FC000000
FC000000
FC000000
FC000000
FC000000
FFFFFFF8
FFFFFFF8
FFFFFFF8
FFFFFFF8
FFFFFFF8
FFFFFFF8
ENDCHAR
STARTCHAR 0140
ENCODING 320
SWIDTH 360 0
DWIDTH 28 0
BBX 22 56 6 -1
BITMAP
FE0000
FE0000
FE0000
FE0000
FE0000
FE0000
FE0000
FE0000
FE0000
FE0000
FE0000
FE0000
FE0000
FE0000
FE0000
FE0000
FE0000
FE0000
FE0000
FE0000
FE0000
FE0000
FE0000
FE0000
FE0000
FE00F0
FE03F8
FE03FC
FE07FC
FE07FC
FE07FC
FE07FC
FE03FC
FE03F8
FE00E0
FE0000
FE0000
FE0000
FE0000
FE0000
FE0000
FE0000
FE0000
FE0000
FE0000
FE0000
FE0000
FE0000
FE0000
FE0000
7F0000
7FC000
7FC000
3FC000
1FE000
0FC000
ENDCHAR
STARTCHAR 0141
ENCODING 321
SWIDTH 488 0
DWIDTH 38 0
BBX 36 51 0 0
BITMAP
01FC000000
01FC000000
01FC000000
01FC000000
01FC000000
01FC000000
01FC000000
01FC000000
01FC000000
01FC000000
01FC000000
01FC000000
01FC000000
01FC000000
01FC000000
01FC000000
01FC000000
01FC003000
01FC00F800
01FC01F800
01FC07FC00
01FC1FF800
01FC7FE000
01FDFF8000
01FFFE0000
01FFF80000
01FFE00000
01FFC00000
07FF000000
1FFC000000
7FFC000000
FFFC000000
FFFC000000
79FC000000
71FC000000
01FC000000
01FC000000
01FC000000
01FC000000
01FC000000
01FC000000
01FC000000
01FC000000
01FC000000
01FC000000
01FFFFFFF0
01FFFFFFF0
01FFFFFFF0
01FFFFFFF0
01FFFFFFF0
01FFFFFFF0
ENDCHAR
STARTCHAR 0142
ENCODING 322
SWIDTH 257 0
DWIDTH 20 0
BBX 19 56 0 -1
BITMAP
01F800
01F800
01F800
01F800
01F800
01F800
01F800
01F800
01F800
01F800
01F800
01F800
01F800
01F800
01F800
01F800
01F800
01F800
01F840
01F9C0
01FFE0
01FFE0
01FFE0
01FF80
03FF00
0FFC00
1FF800
7FF800
FFF800
7FF800
79F800
21F800
01F800
01F800
01F800
01F800
01F800
01F800
01F800
01F800
01F800
01F800
01F800
01F800
01F800
01F800
01F800
01F800
01F800
01F800
01FC00
01FF00
00FF80
00FF80
007F80
001F80
ENDCHAR
STARTCHAR 0143
ENCODING 323
SWIDTH 642 0
DWIDTH 50 0
BBX 36 67 7 0
BITMAP
000000C000
000001E000
000003F000
000007F800
00000FF000
00001FE000
00003F8000
0000FF0000
0001FE0000
0003F80000
0001F00000
0000E00000
0000400000
0000000000
0000000000
0000000000
FE000003F0
FF000003F0
FF000003F0
FF800003F0
FF800003F0
FFC00003F0
FFC00003F0
FFE00003F0
FBF00003F0
FBF00003F0
FDF80003F0
FDF80003F0
FCFC0003F0
FCFC0003F0
FC7E0003F0
FC7F0003F0
FC3F0003F0
FC3F8003F0
FC1F8003F0
FC1FC003F0
FC0FC003F0
FC07E003F0
FC07F003F0
FC03F003F0
FC03F803F0
FC01F803F0
FC01FC03F0
FC00FE03F0
FC007E03F0
FC007F03F0
FC003F03F0
FC003F83F0
FC001F83F0
FC000FC3F0
FC000FC3F0
FC0007E1F0
FC0007E1F0
FC0003F1F0
FC0003F9F0
FC0001F9F0
FC0000FDF0
FC0000FDF0
FC00007FF0
FC00007FF0
FC00003FF0
FC00003FF0
FC00001FF0
FC00000FF0
FC00000FF0
FC000007F0
FC000007F0
ENDCHAR
STARTCHAR 0144
ENCODING 324
SWIDTH 552 0
DWIDTH 43 0
BBX 31 61 6 0
BITMAP
00000100
00000380
000007C0
00000FE0
00000FF0
00001FE0
00003FC0
00007F80
0000FF00
0001FE00
0003F800
0003F000
0007E000
0007C000
00038000
00010000
00000000
00000000
00000000
00000000
00000000
00000000
0000FE00
FC07FF80
FC1FFFE0
FC3FFFF0
FC7FFFF0
FDFFFFF8
FFF807F8
FFE003FC
FFC001FC
FF8001FC
FF0000FC
FE0000FC
FE0000FE
FE0000FE
FE0000FE
FE0000FE
FE0000FE
FE0000FE
FE0000FE
FE0000FE
FE0000FE
FE0000FE
FE0000FE
FE0000FE
FE0000FE
FE0000FE
FE0000FE
FE0000FE
FE0000FE
FE0000FE
FE0000FE
FE0000FE
FE0000FE
FE0000FE
FE0000FE
FE0000FE
FE0000FE
FE0000FE
FE0000FE
ENDCHAR
STARTCHAR 0145
ENCODING 325
SWIDTH 642 0
DWIDTH 50 0
BBX 36 69 7 -18
BITMAP
FE000003F0
FF000003F0
FF000003F0
FF800003F0
FF800003F0
FFC00003F0
FFC00003F0
FFE00003F0
FBF00003F0
FBF00003F0
FDF80003F0
FDF80003F0
FCFC0003F0
FCFC0003F0
FC7E0003F0
FC7F0003F0
FC3F0003F0
FC3F8003F0
FC1F8003F0
FC1FC003F0
FC0FC003F0
FC07E003F0
FC07F003F0
FC03F003F0
FC03F803F0
FC01F803F0
FC01FC03F0
FC00FE03F0
FC007E03F0
FC007F03F0
FC003F03F0
FC003F83F0
FC001F83F0
FC000FC3F0
FC000FC3F0
FC0007E1F0
FC0007E1F0
FC0003F1F0
FC0003F9F0
FC0001F9F0
FC0000FDF0
FC0000FDF0
FC00007FF0
FC00007FF0
FC00003FF0
FC00003FF0
FC00001FF0
FC00000FF0
FC00000FF0
FC000007F0
FC000007F0
0000000000
0000000000
0000000000
0000000000
0001C00000
0001FC0000
0003FE0000
00007F0000
00001F0000
00001F8000
00000F8000
00000F0000
00001F0000
00003F0000
0003FE0000
001FFC0000
001FF00000
000F000000
ENDCHAR
STARTCHAR 0146
ENCODING 326
SWIDTH 552 0
DWIDTH 43 0
BBX 31 57 6 -18
BITMAP
0000FE00
FC07FF80
FC1FFFE0
FC3FFFF0
FC7FFFF0
FDFFFFF8
FFF807F8
FFE003FC
FFC001FC
FF8001FC
FF0000FC
FE0000FC
FE0000FE
FE0000FE
FE0000FE
FE0000FE
FE0000FE
FE0000FE
FE0000FE
FE0000FE
FE0000FE
FE0000FE
FE0000FE
FE0000FE
FE0000FE
FE0000FE
FE0000FE
FE0000FE
FE0000FE
FE0000FE
FE0000FE
FE0000FE
FE0000FE
FE0000FE
FE0000FE
FE0000FE
FE0000FE
FE0000FE
FE0000FE
00000000
00000000
00000000
00000000
000F0000
000FE000
001FF000
0003F800
0000FC00
00007C00
00007C00
00007C00
0000F800
0001F800
000FF000
00FFE000
007F8000
00780000
ENDCHAR
STARTCHAR 0147
ENCODING 327
SWIDTH 642 0
DWIDTH 50 0
BBX 36 66 7 0
BITMAP
0040001000
00E0003800
01F000FC00
00FC01F800
007E03F000
003F07E000
001F8FC000
000FFF8000
0007FF0000
0003FE0000
0001FC0000
0000000000
0000000000
0000000000
0000000000
FE000003F0
FF000003F0
FF000003F0
FF800003F0
FF800003F0
FFC00003F0
FFC00003F0
FFE00003F0
FBF00003F0
FBF00003F0
FDF80003F0
FDF80003F0
FCFC0003F0
FCFC0003F0
FC7E0003F0
FC7F0003F0
FC3F0003F0
FC3F8003F0
FC1F8003F0
FC1FC003F0
FC0FC003F0
FC07E003F0
FC07F003F0
FC03F003F0
FC03F803F0
FC01F803F0
FC01FC03F0
FC00FE03F0
FC007E03F0
FC007F03F0
FC003F03F0
FC003F83F0
FC001F83F0
FC000FC3F0
FC000FC3F0
FC0007E1F0
FC0007E1F0
FC0003F1F0
FC0003F9F0
FC0001F9F0
FC0000FDF0
FC0000FDF0
FC00007FF0
FC00007FF0
FC00003FF0
FC00003FF0
FC00001FF0
FC00000FF0
FC00000FF0
FC000007F0
FC000007F0
ENDCHAR
STARTCHAR 0148
ENCODING 328
SWIDTH 552 0
DWIDTH 43 0
BBX 31 58 6 0
BITMAP
03000060
078000F0
07C001F0
03E003F0
01F807E0
01FC0FC0
00FE1F80
007F3F00
003FFF00
001FFE00
001FFC00
000FF800
0007F000
00000000
00000000
00000000
00000000
00000000
00000000
0000FE00
FC07FF80
FC1FFFE0
FC3FFFF0
FC7FFFF0
FDFFFFF8
FFF807F8
FFE003FC
FFC001FC
FF8001FC
FF0000FC
FE0000FC
FE0000FE
FE0000FE
FE0000FE
FE0000FE
FE0000FE
FE0000FE
FE0000FE
FE0000FE
FE0000FE
FE0000FE
FE0000FE
FE0000FE
FE0000FE
FE0000FE
FE0000FE
FE0000FE
FE0000FE
FE0000FE
FE0000FE
FE0000FE
FE0000FE
FE0000FE
FE0000FE
FE0000FE
FE0000FE
FE0000FE
FE0000FE
ENDCHAR
STARTCHAR 0149
ENCODING 329
SWIDTH 771 0
DWIDTH 60 0
BBX 49 55 5 0
BITMAP
1E000000000000
3F000000000000
7F800000000000
7FC00000000000
7FC00000000000
7FC00000000000
3FC00000000000
1FC00000000000
03C00000000000
03C00000000000
03C00000000000
07C00000000000
07800000000000
07800000000000
0F000000000000
1F000000000000
3E0000003F8000
7C001F01FFF000
F8001F07FFF800
70001F0FFFFC00
60001F1FFFFE00
00001F3FFFFE00
00001FFE01FF00
00001FF800FF00
00001FF0007F00
00001FE0003F80
00001FC0003F80
00001F80003F80
00001F80003F80
00001F80003F80
00001F80003F80
00001F80001F80
00001F80001F80
00001F80001F80
00001F80001F80
00001F80001F80
00001F80001F80
00001F80001F80
00001F80001F80
00001F80001F80
00001F80001F80
00001F80001F80
00001F80001F80
00001F80001F80
00001F80001F80
00001F80001F80
00001F80001F80
00001F80001F80
00001F80001F80
00001F80001F80
00001F80001F80
00001F80001F80
00001F80001F80
00001F80001F80
00001F80001F80
ENDCHAR
STARTCHAR 014A
ENCODING 330
SWIDTH 630 0
DWIDTH 49 0
BBX 38 53 7 -1
BITMAP
00007F8000
FC03FFF000
FC0FFFFC00
FC1FFFFE00
FC7FFFFF00
FCFFFFFF80
FDFE00FFC0
FFF8003FE0
FFE0001FE0
FFC0000FF0
FF80000FF0
FF000007F0
FE000003F8
FC000003F8
FC000003F8
FC000001F8
FC000001FC
FC000001FC
FC000001FC
FC000001FC
FC000001FC
FC000001FC
FC000000FC
FC000000FC
FC000000FC
FC000000FC
FC000000FC
FC000000FC
FC000000FC
FC000000FC
FC000000FC
FC000000FC
FC000001FC
FC000001FC
FC000001FC
FC000001FC
FC000001FC
FC000001FC
FC000001F8
FC000003F8
FC000003F8
FC000003F8
FC000007F0
FC000007F0
FC00000FF0
FC00001FE0
FC00083FE0
FC000FFFC0
FC001FFFC0
FC001FFF80
FC001FFF00
FC001FFC00
00000FF000
ENDCHAR
STARTCHAR 014B
ENCODING 331
SWIDTH 552 0
DWIDTH 43 0
BBX 31 53 6 -14
BITMAP
0000FE00
FC07FF80
FC1FFFE0
FC3FFFF0
FC7FFFF0
FDFFFFF8
FFF807F8
FFE003FC
FFC001FC
FF8001FC
FF0000FC
FE0000FC
FE0000FE
FE0000FE
FE0000FE
FE0000FE
FE0000FE
FE0000FE
FE0000FE
FE0000FE
FE0000FE
FE0000FE
FE0000FE
FE0000FE
FE0000FE
FE0000FE
FE0000FE
FE0000FE
FE0000FE
FE0000FE
FE0000FE
FE0000FE
FE0000FE
FE0000FE
FE0000FE
FE0000FE
FE0000FE
FE0000FE
FE0000FE
000000FE
000000FE
000000FE
000000FE
000000FC
000000FC
000000FC
000001FC
000083FC
0000FFF8
0001FFF8
0001FFF0
0001FFE0
0000FF80
ENDCHAR
STARTCHAR 014C
ENCODING 332
SWIDTH 668 0
DWIDTH 52 0
BBX 44 62 4 -1
BITMAP
001FFFFF0000
001FFFFF0000
001FFFFF0000
001FFFFF0000
000000000000
000000000000
000000000000
000000000000
000000000000
00007FE00000
0003FFFC0000
000FFFFF0000
003FFFFFC000
007FFFFFE000
00FFFFFFF000
01FF801FF800
03FE0007FC00
07F80003FE00
0FF00001FE00
0FE00000FF00
1FE000007F80
1FC000003F80
3F8000003F80
3F8000001FC0
3F8000001FC0
7F0000001FC0
7F0000000FE0
7F0000000FE0
7E0000000FE0
FE0000000FE0
FE00000007E0
FE00000007F0
FE00000007F0
FE00000007F0
FE00000007F0
FE00000007F0
FE00000007F0
FE00000007F0
FE00000007F0
FE00000007E0
FE00000007E0
7E0000000FE0
7F0000000FE0
7F0000000FE0
7F0000000FE0
7F0000001FC0
3F8000001FC0
3F8000001FC0
3FC000003F80
1FC000003F80
1FE000007F00
0FF00000FF00
0FF80001FE00
07FC0003FE00
03FE0007FC00
01FF801FF800
00FFFFFFF000
007FFFFFE000
003FFFFF8000
000FFFFF0000
0003FFFC0000
00007FE00000
ENDCHAR
STARTCHAR 014D
ENCODING 333
SWIDTH 540 0
DWIDTH 42 0
BBX 35 52 4 -1
BITMAP
01FFFFE000
01FFFFE000
01FFFFE000
01FFFFE000
0000000000
0000000000
0000000000
0000000000
0000000000
0000000000
0000000000
0000000000
0007F80000
003FFF0000
00FFFFC000
01FFFFE000
03FFFFF800
07FE1FFC00
0FF003FC00
1FE001FE00
3FC000FF00
3F80007F00
7F00003F80
7F00003F80
7F00001FC0
FE00001FC0
FE00001FC0
FE00000FC0
FC00000FC0
FC00000FC0
FC00000FE0
FC00000FE0
FC00000FE0
FC00000FE0
FC00000FC0
FC00000FC0
FE00000FC0
FE00001FC0
FE00001FC0
7F00001FC0
7F00003F80
7F80003F80
3F80007F00
3FC000FF00
1FE001FE00
0FF003FC00
07FE1FFC00
03FFFFF800
01FFFFE000
00FFFFC000
003FFF0000
0007F80000
ENDCHAR
STARTCHAR 014E
ENCODING 334
SWIDTH 668 0
DWIDTH 52 0
BBX 44 66 4 0
BITMAP
001E00078000
001E00078000
001E000F8000
001F000F0000
000F801F0000
000FE07E0000
0007FFFE0000
0003FFFC0000
0001FFF00000
00003FC00000
000000000000
000000000000
000000000000
00007FE00000
0003FFFC0000
000FFFFF0000
003FFFFFC000
007FFFFFE000
00FFFFFFF000
01FF801FF800
03FE0007FC00
07F80003FE00
0FF00001FE00
0FE00000FF00
1FE000007F80
1FC000003F80
3F8000003F80
3F8000001FC0
3F8000001FC0
7F0000001FC0
7F0000000FE0
7F0000000FE0
7E0000000FE0
FE0000000FE0
FE00000007E0
FE00000007F0
FE00000007F0
FE00000007F0
FE00000007F0
FE00000007F0
FE00000007F0
FE00000007F0
FE00000007F0
FE00000007E0
FE00000007E0
7E0000000FE0
7F0000000FE0
7F0000000FE0
7F0000000FE0
7F0000001FC0
3F8000001FC0
3F8000001FC0
3FC000003F80
1FC000003F80
1FE000007F00
0FF00000FF00
0FF80001FE00
07FC0003FE00
03FE0007FC00
01FF801FF800
00FFFFFFF000
007FFFFFE000
003FFFFF8000
000FFFFF0000
0003FFFC0000
00007FE00000
ENDCHAR
STARTCHAR 014F
ENCODING 335
SWIDTH 540 0
DWIDTH 42 0
BBX 35 58 4 -1
BITMAP
0080004000
0780007800
07C0007800
07C000F800
03E000F800
03E001F000
01F003F000
01FC0FE000
00FFFFC000
007FFF8000
003FFF0000
000FFC0000
0000000000
0000000000
0000000000
0000000000
0000000000
0000000000
0007F80000
003FFF0000
00FFFFC000
01FFFFE000
03FFFFF800
07FE1FFC00
0FF003FC00
1FE001FE00
3FC000FF00
3F80007F00
7F00003F80
7F00003F80
7F00001FC0
FE00001FC0
FE00001FC0
FE00000FC0
FC00000FC0
FC00000FC0
FC00000FE0
FC00000FE0
FC00000FE0
FC00000FE0
FC00000FC0
FC00000FC0
FE00000FC0
FE00001FC0
FE00001FC0
7F00001FC0
7F00003F80
7F80003F80
3F80007F00
3FC000FF00
1FE001FE00
0FF003FC00
07FE1FFC00
03FFFFF800
01FFFFE000
00FFFFC000
003FFF0000
0007F80000
ENDCHAR
STARTCHAR 0150
ENCODING 336
SWIDTH 668 0
DWIDTH 52 0
BBX 44 69 4 -1
BITMAP
000004006000
00000F00F000
00001F80FC00
00001F81F800
00003F01F000
00003E03E000
00007C07E000
0000FC07C000
0000F80F8000
0001F00F0000
0001E01F0000
0003E03E0000
0000C00C0000
000000000000
000000000000
000000000000
00007FE00000
0003FFFC0000
000FFFFF0000
003FFFFFC000
007FFFFFE000
00FFFFFFF000
01FF801FF800
03FE0007FC00
07F80003FE00
0FF00001FE00
0FE00000FF00
1FE000007F80
1FC000003F80
3F8000003F80
3F8000001FC0
3F8000001FC0
7F0000001FC0
7F0000000FE0
7F0000000FE0
7E0000000FE0
FE0000000FE0
FE00000007E0
FE00000007F0
FE00000007F0
FE00000007F0
FE00000007F0
FE00000007F0
FE00000007F0
FE00000007F0
FE00000007F0
FE00000007E0
FE00000007E0
7E0000000FE0
7F0000000FE0
7F0000000FE0
7F0000000FE0
7F0000001FC0
3F8000001FC0
3F8000001FC0
3FC000003F80
1FC000003F80
1FE000007F00
0FF00000FF00
0FF80001FE00
07FC0003FE00
03FE0007FC00
01FF801FF800
00FFFFFFF000
007FFFFFE000
003FFFFF8000
000FFFFF0000
0003FFFC0000
00007FE00000
ENDCHAR
STARTCHAR 0151
ENCODING 337
SWIDTH 540 0
DWIDTH 42 0
BBX 35 60 4 -1
BITMAP
0000C00C00
0001F01F00
0001F01F00
0003F03E00
0003E03E00
0007E07C00
0007C07C00
000F80F800
000F80F000
001F01F000
001F03E000
003E03E000
003C07C000
001C038000
0000000000
0000000000
0000000000
0000000000
0000000000
0000000000
0007F80000
003FFF0000
00FFFFC000
01FFFFE000
03FFFFF800
07FE1FFC00
0FF003FC00
1FE001FE00
3FC000FF00
3F80007F00
7F00003F80
7F00003F80
7F00001FC0
FE00001FC0
FE00001FC0
FE00000FC0
FC00000FC0
FC00000FC0
FC00000FE0
FC00000FE0
FC00000FE0
FC00000FE0
FC00000FC0
FC00000FC0
FE00000FC0
FE00001FC0
FE00001FC0
7F00001FC0
7F00003F80
7F80003F80
3F80007F00
3FC000FF00
1FE001FE00
0FF003FC00
07FE1FFC00
03FFFFF800
01FFFFE000
00FFFFC000
003FFF0000
0007F80000
ENDCHAR
STARTCHAR 0152
ENCODING 338
SWIDTH 848 0
DWIDTH 66 0
BBX 58 51 4 0
BITMAP
00001FFFFFFFFF80
0001FFFFFFFFFF80
0007FFFFFFFFFF80
001FFFFFFFFFFF80
007FFFFFFFFFFF80
00FFFE07F0000000
01FFC007F0000000
03FE0007F0000000
07FC0007F0000000
0FF00007F0000000
0FE00007F0000000
1FE00007F0000000
1FC00007F0000000
3F800007F0000000
3F800007F0000000
7F000007F0000000
7F000007F0000000
7F000007F0000000
7E000007F0000000
FE000007F0000000
FE000007F0000000
FE000007FFFFFC00
FE000007FFFFFC00
FE000007FFFFFC00
FE000007FFFFFC00
FE000007FFFFFC00
FE000007FFFFFC00
FE000007F0000000
FE000007F0000000
FE000007F0000000
FE000007F0000000
7E000007F0000000
7F000007F0000000
7F000007F0000000
7F000007F0000000
3F800007F0000000
3F800007F0000000
3FC00007F0000000
1FC00007F0000000
1FE00007F0000000
0FF00007F0000000
0FF80007F0000000
07FC0007F0000000
03FF0007F0000000
01FFC007F0000000
00FFFE07FFFFFFC0
007FFFFFFFFFFFC0
001FFFFFFFFFFFC0
000FFFFFFFFFFFC0
0001FFFFFFFFFFC0
00001FFFFFFFFFC0
ENDCHAR
STARTCHAR 0153
ENCODING 339
SWIDTH 835 0
DWIDTH 65 0
BBX 58 40 4 -1
BITMAP
0007F00000FF0000
003FFE0003FFC000
00FFFF800FFFF000
01FFFFC01FFFF800
07FFFFE03FFFFC00
0FFE3FF07F83FE00
0FF007F8FE00FF00
1FE001F9F8003F00
3FC000FDF8001F80
3F8000FFF0001F80
7F00007FE0000F80
7F00003FE0000FC0
7E00003FC0000FC0
FE00003FC0000FC0
FE00001FC00007C0
FE00001F800007C0
FC00001F800007C0
FC00001FFFFFFFC0
FC00001FFFFFFFC0
FC00001FFFFFFFC0
FC00001FFFFFFFC0
FC00001F80000000
FC00001F80000000
FC00001FC0000000
FE00001FC0000000
FE00001FC0000000
FE00003FC0000000
7E00003FE0000000
7F00003FE0000000
7F00007FF0000000
3F8000FFF0000000
3FC000FDF8000000
1FE001F8FE000600
0FF007F8FF001E00
0FFE1FF07FE0FF00
07FFFFE03FFFFF80
03FFFFC01FFFFF00
00FFFF800FFFFC00
003FFE0003FFF000
0007F000007F8000
ENDCHAR
STARTCHAR 0154
ENCODING 340
SWIDTH 565 0
DWIDTH 44 0
BBX 35 67 7 0
BITMAP
0000060000
00000F0000
00001F8000
00003FC000
00007F8000
0000FF0000
0001FC0000
0007F80000
000FF00000
001FC00000
000F800000
0007000000
0000000000
0000000000
0000000000
0000000000
FFFFFC0000
FFFFFFC000
FFFFFFF000
FFFFFFF800
FFFFFFFC00
FC001FFE00
FC0001FF00
FC0000FF80
FC00003F80
FC00003F80
FC00001F80
FC00001FC0
FC00001FC0
FC00001FC0
FC00001FC0
FC00001FC0
FC00001FC0
FC00001FC0
FC00001F80
FC00003F80
FC00007F80
FC0000FF00
FC0001FF00
FC000FFE00
FFFFFFFC00
FFFFFFF800
FFFFFFE000
FFFFFFC000
FFFFFE0000
FC00FE0000
FC00FE0000
FC007F0000
FC007F8000
FC003F8000
FC001FC000
FC001FC000
FC000FE000
FC000FE000
FC0007F000
FC0007F800
FC0003F800
FC0001FC00
FC0001FC00
FC0000FE00
FC0000FF00
FC00007F00
FC00007F80
FC00003F80
FC00001FC0
FC00001FC0
FC00000FE0
ENDCHAR
STARTCHAR 0155
ENCODING 341
SWIDTH 347 0
DWIDTH 27 0
BBX 22 61 6 0
BITMAP
000040
0000E0
0001F0
0001F8
0003FC
0007F8
000FF0
001FE0
003FC0
003F80
007F00
00FE00
01FC00
01F800
00F000
006000
000000
000000
000000
000000
000000
000000
0003F0
FC0FF8
FC1FF8
FC3FF8
FC7FF0
FCFFF0
FDF800
FDF000
FFC000
FFC000
FF8000
FF0000
FF0000
FE0000
FE0000
FE0000
FE0000
FE0000
FE0000
FE0000
FE0000
FE0000
FE0000
FE0000
FE0000
FE0000
FE0000
FE0000
FE0000
FE0000
FE0000
FE0000
FE0000
FE0000
FE0000
FE0000
FE0000
FE0000
FE0000
ENDCHAR
STARTCHAR 0156
ENCODING 342
SWIDTH 565 0
DWIDTH 44 0
BBX 35 69 7 -18
BITMAP
FFFFFC0000
FFFFFFC000
FFFFFFF000
FFFFFFF800
FFFFFFFC00
FC001FFE00
FC0001FF00
FC0000FF80
FC00003F80
FC00003F80
FC00001F80
FC00001FC0
FC00001FC0
FC00001FC0
FC00001FC0
FC00001FC0
FC00001FC0
FC00001FC0
FC00001F80
FC00003F80
FC00007F80
FC0000FF00
FC0001FF00
FC000FFE00
FFFFFFFC00
FFFFFFF800
FFFFFFE000
FFFFFFC000
FFFFFE0000
FC00FE0000
FC00FE0000
FC007F0000
FC007F8000
FC003F8000
FC001FC000
FC001FC000
FC000FE000
FC000FE000
FC0007F000
FC0007F800
FC0003F800
FC0001FC00
FC0001FC00
FC0000FE00
FC0000FF00
FC00007F00
FC00007F80
FC00003F80
FC00001FC0
FC00001FC0
FC00000FE0
0000000000
0000000000
0000000000
0000000000
0007800000
0007F00000
000FF80000
0001FC0000
00007E0000
00007E0000
00003E0000
00003E0000
00007C0000
0000FC0000
0007F80000
007FF00000
003FC00000
003C000000
ENDCHAR
STARTCHAR 0157
ENCODING 343
SWIDTH 347 0
DWIDTH 27 0
BBX 25 57 2 -18
BITMAP
00003F00
0FC0FF80
0FC1FF80
0FC3FF80
0FC7FF00
0FCFFF00
0FDF8000
0FDF0000
0FFC0000
0FFC0000
0FF80000
0FF00000
0FF00000
0FE00000
0FE00000
0FE00000
0FE00000
0FE00000
0FE00000
0FE00000
0FE00000
0FE00000
0FE00000
0FE00000
0FE00000
0FE00000
0FE00000
0FE00000
0FE00000
0FE00000
0FE00000
0FE00000
0FE00000
0FE00000
0FE00000
0FE00000
0FE00000
0FE00000
0FE00000
00000000
00000000
00000000
00000000
0E000000
0FE00000
1FF00000
03F80000
00F80000
00F80000
00F80000
00F80000
00F80000
01F80000
1FF00000
FFE00000
FF800000
78000000
ENDCHAR
STARTCHAR 0158
ENCODING 344
SWIDTH 565 0
DWIDTH 44 0
BBX 35 66 7 0
BITMAP
0200008000
070001C000
0F8007E000
07E00FC000
03F01F8000
01F83F0000
00FC7E0000
007FFC0000
003FF80000
001FF00000
000FE00000
0000000000
0000000000
0000000000
0000000000
FFFFFC0000
FFFFFFC000
FFFFFFF000
FFFFFFF800
FFFFFFFC00
FC001FFE00
FC0001FF00
FC0000FF80
FC00003F80
FC00003F80
FC00001F80
FC00001FC0
FC00001FC0
FC00001FC0
FC00001FC0
FC00001FC0
FC00001FC0
FC00001FC0
FC00001F80
FC00003F80
FC00007F80
FC0000FF00
FC0001FF00
FC000FFE00
FFFFFFFC00
FFFFFFF800
FFFFFFE000
FFFFFFC000
FFFFFE0000
FC00FE0000
FC00FE0000
FC007F0000
FC007F8000
FC003F8000
FC001FC000
FC001FC000
FC000FE000
FC000FE000
FC0007F000
FC0007F800
FC0003F800
FC0001FC00
FC0001FC00
FC0000FE00
FC0000FF00
FC00007F00
FC00007F80
FC00003F80
FC00001FC0
FC00001FC0
FC00000FE0
ENDCHAR
STARTCHAR 0159
ENCODING 345
SWIDTH 347 0
DWIDTH 27 0
BBX 24 58 5 0
BITMAP
30000C
F8001E
FC003F
7E007E
3F00FC
1F81F8
0FC3F0
0FE7F0
07FFE0
03FFC0
01FF80
00FF00
00FF00
000000
000000
000000
000000
000000
000000
0001F8
7E07FC
7E0FFC
7E1FFC
7E3FF8
7E7FF8
7EFC00
7EF800
7FE000
7FE000
7FC000
7F8000
7F8000
7F0000
7F0000
7F0000
7F0000
7F0000
7F0000
7F0000
7F0000
7F0000
7F0000
7F0000
7F0000
7F0000
7F0000
7F0000
7F0000
7F0000
7F0000
7F0000
7F0000
7F0000
7F0000
7F0000
7F0000
7F0000
7F0000
ENDCHAR
STARTCHAR 015A
ENCODING 346
SWIDTH 540 0
DWIDTH 42 0
BBX 35 68 3 -1
BITMAP
000000C000
000001E000
000003F000
000007F800
00000FF000
00001FE000
00003FC000
00007F0000
0000FE0000
0003FC0000
0001F00000
0000E00000
0000400000
0000000000
0000000000
0003FE0000
001FFFE000
007FFFF800
00FFFFFE00
01FFFFFF00
03FFFFFF80
07FC00FFC0
0FF0003F80
0FE0000F00
1FC0000600
1FC0000000
1F80000000
1F80000000
1F80000000
1F80000000
1FC0000000
1FC0000000
1FE0000000
0FF0000000
0FF8000000
07FE000000
07FF800000
03FFF00000
01FFFC0000
007FFF0000
003FFFE000
0007FFF000
0001FFFC00
00007FFE00
00001FFF00
000003FF80
000000FFC0
0000007FC0
0000001FE0
0000000FE0
0000000FE0
00000007E0
00000007E0
00000007E0
00000007E0
00000007E0
08000007E0
1C00000FE0
3E00000FE0
7F80001FC0
FFE0007FC0
7FF800FF80
3FFFFFFF00
0FFFFFFE00
07FFFFFC00
01FFFFF000
003FFFC000
0007FE0000
ENDCHAR
STARTCHAR 015B
ENCODING 347
SWIDTH 424 0
DWIDTH 33 0
BBX 28 62 2 -1
BITMAP
00000400
00000E00
00000F00
00001F80
00003FC0
00007F80
0000FF00
0001FE00
0001FC00
0003F800
0007F000
000FE000
001FC000
001F8000
000F0000
00060000
00000000
00000000
00000000
00000000
00000000
00000000
001FE000
00FFFC00
03FFFF00
07FFFFC0
0FFFFFE0
0FF03FC0
1FC00780
1F800100
3F800000
3F000000
3F000000
3F000000
3F800000
3FC00000
1FE00000
1FF80000
0FFE0000
07FFC000
03FFF000
00FFFC00
003FFF00
000FFF80
0001FFC0
00007FE0
00001FE0
00000FF0
000007F0
000003F0
000003F0
000003F0
000003F0
180007F0
3C0007E0
7F000FE0
FFE03FC0
7FFFFFC0
1FFFFF80
0FFFFE00
03FFFC00
003FE000
ENDCHAR
STARTCHAR 015C
ENCODING 348
SWIDTH 540 0
DWIDTH 42 0
BBX 35 66 3 -1
BITMAP
0001FE0000
0003FE0000
0007FF0000
000FFF8000
001F8FC000
003F07E000
007E03F000
00FC00F800
01F8007C00
00E0003800
0000001000
0000000000
0000000000
0003FE0000
001FFFE000
007FFFF800
00FFFFFE00
01FFFFFF00
03FFFFFF80
07FC00FFC0
0FF0003F80
0FE0000F00
1FC0000600
1FC0000000
1F80000000
1F80000000
1F80000000
1F80000000
1FC0000000
1FC0000000
1FE0000000
0FF0000000
0FF8000000
07FE000000
07FF800000
03FFF00000
01FFFC0000
007FFF0000
003FFFE000
0007FFF000
0001FFFC00
00007FFE00
00001FFF00
000003FF80
000000FFC0
0000007FC0
0000001FE0
0000000FE0
0000000FE0
00000007E0
00000007E0
00000007E0
00000007E0
00000007E0
08000007E0
1C00000FE0
3E00000FE0
7F80001FC0
FFE0007FC0
7FF800FF80
3FFFFFFF00
0FFFFFFE00
07FFFFFC00
01FFFFF000
003FFFC000
0007FE0000
ENDCHAR
STARTCHAR 015D
ENCODING 349
SWIDTH 424 0
DWIDTH 33 0
BBX 28 59 2 -1
BITMAP
001FE000
001FF000
003FF000
007FF800
00FFFC00
01FCFE00
01F87F00
03F03F00
07E01F80
0FC00FC0
1F8007E0
0F0003E0
060001C0
00000000
00000000
00000000
00000000
00000000
00000000
001FE000
00FFFC00
03FFFF00
07FFFFC0
0FFFFFE0
0FF03FC0
1FC00780
1F800100
3F800000
3F000000
3F000000
3F000000
3F800000
3FC00000
1FE00000
1FF80000
0FFE0000
07FFC000
03FFF000
00FFFC00
003FFF00
000FFF80
0001FFC0
00007FE0
00001FE0
00000FF0
000007F0
000003F0
000003F0
000003F0
000003F0
180007F0
3C0007E0
7F000FE0
FFE03FC0
7FFFFFC0
1FFFFF80
0FFFFE00
03FFFC00
003FE000
ENDCHAR
STARTCHAR 015E
ENCODING 350
SWIDTH 540 0
DWIDTH 42 0
BBX 35 70 3 -18
BITMAP
0003FE0000
001FFFE000
007FFFF800
00FFFFFE00
01FFFFFF00
03FFFFFF80
07FC00FFC0
0FF0003F80
0FE0000F00
1FC0000600
1FC0000000
1F80000000
1F80000000
1F80000000
1F80000000
1FC0000000
1FC0000000
1FE0000000
0FF0000000
0FF8000000
07FE000000
07FF800000
03FFF00000
01FFFC0000
007FFF0000
003FFFE000
000FFFF000
0001FFFC00
00007FFE00
00001FFF00
000003FF80
000000FFC0
0000007FC0
0000001FE0
0000001FE0
0000000FE0
00000007E0
00000007E0
00000007E0
00000007E0
00000007E0
08000007E0
1C00000FE0
3E00000FE0
7F80001FC0
FFC0003FC0
7FF800FF80
3FFFFFFF00
0FFFFFFE00
07FFFFFC00
01FFFFF800
007FFFE000
0007FE0000
0000F00000
0001F00000
0001E00000
0001E00000
0003F00000
0003FC0000
0001FE0000
00003F0000
00001F0000
00001F0000
00001F0000
00001F0000
00003F0000
0003FE0000
001FFC0000
001FF00000
001F000000
ENDCHAR
STARTCHAR 015F
ENCODING 351
SWIDTH 424 0
DWIDTH 33 0
BBX 28 57 2 -18
BITMAP
001FE000
00FFFC00
03FFFF00
07FFFFC0
0FFFFFE0
0FF03FC0
1FC00780
1F800100
3F800000
3F000000
3F000000
3F000000
3F800000
3FC00000
1FE00000
1FF80000
0FFE0000
07FFC000
03FFF000
00FFFC00
003FFF00
000FFF80
0001FFC0
00007FE0
00001FE0
00000FF0
000007F0
000003F0
000003F0
000003F0
000003F0
180007F0
3C0007E0
7F000FE0
FFE03FC0
7FFFFFC0
3FFFFF80
0FFFFE00
03FFFC00
003FE000
00078000
00078000
000F0000
000F0000
001F8000
001FE000
000FF000
0001F800
0000F800
0000F800
0000F800
0000F800
0001F800
001FF000
00FFE000
00FF8000
00F80000
ENDCHAR
STARTCHAR 0160
ENCODING 352
SWIDTH 540 0
DWIDTH 42 0
BBX 35 67 3 -1
BITMAP
0000001000
00F0003800
01F8007C00
00FC01F800
007E03F000
003F07E000
001FCFC000
000FFF8000
0007FF0000
0003FE0000
0001FE0000
0000000000
0000000000
0000000000
0003FE0000
001FFFE000
007FFFF800
00FFFFFE00
01FFFFFF00
03FFFFFF80
07FC00FFC0
0FF0003F80
0FE0000F00
1FC0000600
1FC0000000
1F80000000
1F80000000
1F80000000
1F80000000
1FC0000000
1FC0000000
1FE0000000
0FF0000000
0FF8000000
07FE000000
07FF800000
03FFF00000
01FFFC0000
007FFF0000
003FFFE000
0007FFF000
0001FFFC00
00007FFE00
00001FFF00
000003FF80
000000FFC0
0000007FC0
0000001FE0
0000000FE0
0000000FE0
00000007E0
00000007E0
00000007E0
00000007E0
00000007E0
08000007E0
1C00000FE0
3E00000FE0
7F80001FC0
FFE0007FC0
7FF800FF80
3FFFFFFF00
0FFFFFFE00
07FFFFFC00
01FFFFF000
003FFFC000
0007FE0000
ENDCHAR
STARTCHAR 0161
ENCODING 353
SWIDTH 424 0
DWIDTH 33 0
BBX 28 59 2 -1
BITMAP
060001C0
0F0003E0
1F8007E0
0FC00FC0
07E01F80
03F03F00
01F87F00
01FCFE00
00FFFC00
007FF800
003FF000
001FF000
001FE000
00000000
00000000
00000000
00000000
00000000
00000000
001FE000
00FFFC00
03FFFF00
07FFFFC0
0FFFFFE0
0FF03FC0
1FC00780
1F800100
3F800000
3F000000
3F000000
3F000000
3F800000
3FC00000
1FE00000
1FF80000
0FFE0000
07FFC000
03FFF000
00FFFC00
003FFF00
000FFF80
0001FFC0
00007FE0
00001FE0
00000FF0
000007F0
000003F0
000003F0
000003F0
000003F0
180007F0
3C0007E0
7F000FE0
FFE03FC0
7FFFFFC0
1FFFFF80
0FFFFE00
03FFFC00
003FE000
ENDCHAR
STARTCHAR 0162
ENCODING 354
SWIDTH 540 0
DWIDTH 42 0
BBX 38 69 2 -18
BITMAP
FFFFFFFFFC
FFFFFFFFFC
FFFFFFFFFC
FFFFFFFFFC
FFFFFFFFFC
0000FC0000
0000FC0000
0000FC0000
0000FC0000
0000FC0000
0000FC0000
0000FC0000
0000FC0000
0000FC0000
0000FC0000
0000FC0000
0000FC0000
0000FC0000
0000FC0000
0000FC0000
0000FC0000
0000FC0000
0000FC0000
0000FC0000
0000FC0000
0000FC0000
0000FC0000
0000FC0000
0000FC0000
0000FC0000
0000FC0000
0000FC0000
0000FC0000
0000FC0000
0000FC0000
0000FC0000
0000FC0000
0000FC0000
0000FC0000
0000FC0000
0000FC0000
0000FC0000
0000FC0000
0000FC0000
0000FC0000
0000FC0000
0000FC0000
0000FC0000
0000FC0000
0000FC0000
0000FC0000
0000780000
0000F80000
0000F00000
0001F00000
0001E00000
0003F00000
0003FE0000
0000FF0000
00003F0000
00001F8000
00000F8000
00000F8000
00001F0000
00003F0000
0001FE0000
001FFC0000
000FF00000
000F000000
ENDCHAR
STARTCHAR 0163
ENCODING 355
SWIDTH 334 0
DWIDTH 26 0
BBX 23 67 2 -18
BITMAP
01F000
03F000
03F000
03F000
03F000
03F000
03F000
03F000
03F000
03F000
03F000
FFFFFC
FFFFFC
FFFFFC
FFFFFC
FFFFFC
07F000
07F000
07F000
07F000
07F000
07F000
07F000
07F000
07F000
07F000
07F000
07F000
07F000
07F000
07F000
07F000
07F000
07F000
07F000
07F000
07F000
07F000
07F000
03F000
03F000
03F800
03F800
03FC00
01FF0C
01FFFC
00FFFE
00FFFE
003FFE
001FF0
000780
000F00
000F00
001F00
001F80
003FE0
001FF0
0003F0
0000F8
0000F8
0000F8
0000F8
0003F0
001FF0
00FFC0
00FF00
00F800
ENDCHAR
STARTCHAR 0164
ENCODING 356
SWIDTH 540 0
DWIDTH 42 0
BBX 38 66 2 0
BITMAP
0000001000
00F0003800
00F8007C00
00FC00F800
007E03F000
003F07E000
001FCFC000
000FFF8000
0007FF0000
0003FF0000
0001FE0000
0000000000
0000000000
0000000000
0000000000
FFFFFFFFFC
FFFFFFFFFC
FFFFFFFFFC
FFFFFFFFFC
FFFFFFFFFC
0000FC0000
0000FC0000
0000FC0000
0000FC0000
0000FC0000
0000FC0000
0000FC0000
0000FC0000
0000FC0000
0000FC0000
0000FC0000
0000FC0000
0000FC0000
0000FC0000
0000FC0000
0000FC0000
0000FC0000
0000FC0000
0000FC0000
0000FC0000
0000FC0000
0000FC0000
0000FC0000
0000FC0000
0000FC0000
0000FC0000
0000FC0000
0000FC0000
0000FC0000
0000FC0000
0000FC0000
0000FC0000
0000FC0000
0000FC0000
0000FC0000
0000FC0000
0000FC0000
0000FC0000
0000FC0000
0000FC0000
0000FC0000
0000FC0000
0000FC0000
0000FC0000
0000FC0000
0000FC0000
ENDCHAR
STARTCHAR 0165
ENCODING 357
SWIDTH 334 0
DWIDTH 26 0
BBX 23 60 2 -1
BITMAP
00003C
00003C
00003C
00003C
00003C
00003C
00003C
00003C
00003C
00003C
01F03C
03F038
03F038
03F038
03F038
03F038
03F000
03F000
03F000
03F000
03F000
FFFFFC
FFFFFC
FFFFFC
FFFFFC
FFFFFC
07F000
07F000
07F000
07F000
07F000
07F000
07F000
07F000
07F000
07F000
07F000
07F000
07F000
07F000
07F000
07F000
07F000
07F000
07F000
07F000
07F000
07F000
07F000
03F000
03F000
03F800
03F800
03FC00
01FF0C
01FFFC
00FFFE
007FFE
003FFE
000FF0
ENDCHAR
STARTCHAR 0166
ENCODING 358
SWIDTH 540 0
DWIDTH 42 0
BBX 38 51 2 0
BITMAP
FFFFFFFFFC
FFFFFFFFFC
FFFFFFFFFC
FFFFFFFFFC
FFFFFFFFFC
0000FC0000
0000FC0000
0000FC0000
0000FC0000
0000FC0000
0000FC0000
0000FC0000
0000FC0000
0000FC0000
0000FC0000
0000FC0000
0000FC0000
0000FC0000
0000FC0000
0000FC0000
0000FC0000
0000FC0000
0000FC0000
03FFFFFF00
03FFFFFF00
03FFFFFF00
03FFFFFF00
0000FC0000
0000FC0000
0000FC0000
0000FC0000
0000FC0000
0000FC0000
0000FC0000
0000FC0000
0000FC0000
0000FC0000
0000FC0000
0000FC0000
0000FC0000
0000FC0000
0000FC0000
0000FC0000
0000FC0000
0000FC0000
0000FC0000
0000FC0000
0000FC0000
0000FC0000
0000FC0000
0000FC0000
ENDCHAR
STARTCHAR 0167
ENCODING 359
SWIDTH 334 0
DWIDTH 26 0
BBX 23 50 2 -1
BITMAP
01F000
03F000
03F000
03F000
03F000
03F000
03F000
03F000
03F000
03F000
03F000
FFFFFC
FFFFFC
FFFFFC
FFFFFC
FFFFFC
07F000
07F000
07F000
07F000
07F000
07F000
07F000
07F000
07F000
07F000
07F000
3FFFFC
FFFFFC
FFFFFC
FFFFFC
07F000
07F000
07F000
07F000
07F000
07F000
07F000
07F000
03F000
03F000
03F800
03F800
03FC00
01FF0C
01FFFC
00FFFE
007FFE
003FFE
000FF0
ENDCHAR
STARTCHAR 0168
ENCODING 360
SWIDTH 642 0
DWIDTH 50 0
BBX 36 67 7 -1
BITMAP
003C000000
00FF801F00
01FFC01F00
03FFE01F00
03FFF03E00
07E3FC3E00
07C0FFFE00
07807FFC00
07803FF800
0F801FF000
000007E000
0000000000
0000000000
0000000000
0000000000
FC000003F0
FC000003F0
FC000003F0
FC000003F0
FC000003F0
FC000003F0
FC000003F0
FC000003F0
FC000003F0
FC000003F0
FC000003F0
FC000003F0
FC000003F0
FC000003F0
FC000003F0
FC000003F0
FC000003F0
FC000003F0
FC000003F0
FC000003F0
FC000003F0
FC000003F0
FC000003F0
FC000003F0
FC000003F0
FC000003F0
FC000003F0
FC000003F0
FC000003F0
FC000003F0
FC000003F0
FC000003F0
FC000003F0
FC000003F0
FE000003F0
FE000003F0
FE000003F0
FE000007F0
7E000007F0
7F000007E0
7F00000FE0
3F80000FE0
3F80001FC0
3FC0003FC0
1FF0007F80
0FF801FF80
0FFFFFFF00
07FFFFFE00
01FFFFFC00
00FFFFF000
003FFFC000
0007FE0000
ENDCHAR
STARTCHAR 0169
ENCODING 361
SWIDTH 540 0
DWIDTH 42 0
BBX 30 57 6 -1
BITMAP
03F800C0
07FC00F8
0FFE00F8
1FFF00F0
1FFF81F0
1F0FE1F0
3E07FFE0
3E03FFE0
3C01FFC0
3C00FF80
3C003F00
00000000
00000000
00000000
00000000
00000000
00000000
00000000
FC0000FC
FC0000FC
FC0000FC
FC0000FC
FC0000FC
FC0000FC
FC0000FC
FC0000FC
FC0000FC
FC0000FC
FC0000FC
FC0000FC
FC0000FC
FC0000FC
FC0000FC
FC0000FC
FC0000FC
FC0000FC
FC0000FC
FC0000FC
FC0000FC
FC0000FC
FC0000FC
FC0000FC
FC0000FC
FC0000FC
FE0000FC
FE0001FC
FE0003FC
FE0003FC
7F000FFC
7F001FFC
7FC03FFC
3FFFFEFC
3FFFFCFC
1FFFF8FC
0FFFE0FC
07FFC07C
01FE0000
ENDCHAR
STARTCHAR 016A
ENCODING 362
SWIDTH 642 0
DWIDTH 50 0
BBX 36 62 7 -1
BITMAP
00FFFFF800
00FFFFF800
00FFFFF800
00FFFFF800
0000000000
0000000000
0000000000
0000000000
0000000000
0000000000
FC000003F0
FC000003F0
FC000003F0
FC000003F0
FC000003F0
FC000003F0
FC000003F0
FC000003F0
FC000003F0
FC000003F0
FC000003F0
FC000003F0
FC000003F0
FC000003F0
FC000003F0
FC000003F0
FC000003F0
FC000003F0
FC000003F0
FC000003F0
FC000003F0
FC000003F0
FC000003F0
FC000003F0
FC000003F0
FC000003F0
FC000003F0
FC000003F0
FC000003F0
FC000003F0
FC000003F0
FC000003F0
FC000003F0
FC000003F0
FE000003F0
FE000003F0
FE000003F0
FE000007F0
7E000007F0
7F000007E0
7F00000FE0
3F80000FE0
3F80001FC0
3FC0003FC0
1FF0007F80
0FF801FF80
0FFFFFFF00
07FFFFFE00
01FFFFFC00
00FFFFF000
003FFFC000
0007FE0000
ENDCHAR
STARTCHAR 016B
ENCODING 363
SWIDTH 540 0
DWIDTH 42 0
BBX 30 52 6 -1
BITMAP
07FFFF80
07FFFF80
07FFFF80
07FFFF80
00000000
00000000
00000000
00000000
00000000
00000000
00000000
00000000
00000000
FC0000FC
FC0000FC
FC0000FC
FC0000FC
FC0000FC
FC0000FC
FC0000FC
FC0000FC
FC0000FC
FC0000FC
FC0000FC
FC0000FC
FC0000FC
FC0000FC
FC0000FC
FC0000FC
FC0000FC
FC0000FC
FC0000FC
FC0000FC
FC0000FC
FC0000FC
FC0000FC
FC0000FC
FC0000FC
FC0000FC
FE0000FC
FE0001FC
FE0003FC
FE0003FC
7F000FFC
7F001FFC
7FC03FFC
3FFFFEFC
3FFFFCFC
1FFFF8FC
0FFFE0FC
07FFC07C
01FE0000
ENDCHAR
STARTCHAR 016C
ENCODING 364
SWIDTH 642 0
DWIDTH 50 0
BBX 36 67 7 -1
BITMAP
0020000000
01E0007800
01E0007800
01F0007800
00F000F800
00F801F000
007E07F000
007FFFE000
003FFFC000
000FFF8000
0003FC0000
0000000000
0000000000
0000000000
0000000000
FC000003F0
FC000003F0
FC000003F0
FC000003F0
FC000003F0
FC000003F0
FC000003F0
FC000003F0
FC000003F0
FC000003F0
FC000003F0
FC000003F0
FC000003F0
FC000003F0
FC000003F0
FC000003F0
FC000003F0
FC000003F0
FC000003F0
FC000003F0
FC000003F0
FC000003F0
FC000003F0
FC000003F0
FC000003F0
FC000003F0
FC000003F0
FC000003F0
FC000003F0
FC000003F0
FC000003F0
FC000003F0
FC000003F0
FC000003F0
FE000003F0
FE000003F0
FE000003F0
FE000007F0
7E000007F0
7F000007E0
7F00000FE0
3F80000FE0
3F80001FC0
3FC0003FC0
1FF0007F80
0FF801FF80
0FFFFFFF00
07FFFFFE00
01FFFFFC00
00FFFFF000
003FFFC000
0007FE0000
ENDCHAR
STARTCHAR 016D
ENCODING 365
SWIDTH 540 0
DWIDTH 42 0
BBX 30 58 6 -1
BITMAP
02000100
1E0001E0
1F0001E0
1F0003E0
0F8003E0
0F8007C0
07C00FC0
07F03F80
03FFFF00
01FFFE00
00FFFC00
003FF000
00000000
00000000
00000000
00000000
00000000
00000000
00000000
FC0000FC
FC0000FC
FC0000FC
FC0000FC
FC0000FC
FC0000FC
FC0000FC
FC0000FC
FC0000FC
FC0000FC
FC0000FC
FC0000FC
FC0000FC
FC0000FC
FC0000FC
FC0000FC
FC0000FC
FC0000FC
FC0000FC
FC0000FC
FC0000FC
FC0000FC
FC0000FC
FC0000FC
FC0000FC
FC0000FC
FE0000FC
FE0001FC
FE0003FC
FE0003FC
7F000FFC
7F001FFC
7FC03FFC
3FFFFEFC
3FFFFCFC
1FFFF8FC
0FFFE0FC
07FFC07C
01FE0000
ENDCHAR
STARTCHAR 016E
ENCODING 366
SWIDTH 642 0
DWIDTH 50 0
BBX 36 69 7 -1
BITMAP
0001F80000
0007FE0000
000FFF0000
001F0F8000
001E078000
001C03C000
001C03C000
001C03C000
001C038000
001E078000
000F0F8000
000FFF0000
0007FE0000
0000F00000
0000000000
0000000000
0000000000
FC000003F0
FC000003F0
FC000003F0
FC000003F0
FC000003F0
FC000003F0
FC000003F0
FC000003F0
FC000003F0
FC000003F0
FC000003F0
FC000003F0
FC000003F0
FC000003F0
FC000003F0
FC000003F0
FC000003F0
FC000003F0
FC000003F0
FC000003F0
FC000003F0
FC000003F0
FC000003F0
FC000003F0
FC000003F0
FC000003F0
FC000003F0
FC000003F0
FC000003F0
FC000003F0
FC000003F0
FC000003F0
FC000003F0
FC000003F0
FE000003F0
FE000003F0
FE000003F0
FE000007F0
7E000007F0
7F000007E0
7F00000FE0
3F80000FE0
3F80001FC0
3FC0003FC0
1FF0007F80
0FF801FF80
0FFFFFFF00
07FFFFFE00
01FFFFFC00
00FFFFF000
003FFFC000
0007FE0000
ENDCHAR
STARTCHAR 016F
ENCODING 367
SWIDTH 540 0
DWIDTH 42 0
BBX 30 60 6 -1
BITMAP
0007C000
003FF000
007FFC00
00F87C00
01F03E00
01E01E00
01E01F00
01E00F00
01E00F00
01E01F00
01E01E00
01F03E00
00F87C00
007FFC00
003FF000
000FC000
00000000
00000000
00000000
00000000
00000000
FC0000FC
FC0000FC
FC0000FC
FC0000FC
FC0000FC
FC0000FC
FC0000FC
FC0000FC
FC0000FC
FC0000FC
FC0000FC
FC0000FC
FC0000FC
FC0000FC
FC0000FC
FC0000FC
FC0000FC
FC0000FC
FC0000FC
FC0000FC
FC0000FC
FC0000FC
FC0000FC
FC0000FC
FC0000FC
FC0000FC
FE0000FC
FE0001FC
FE0003FC
FE0003FC
7F000FFC
7F001FFC
7FC03FFC
3FFFFEFC
3FFFFCFC
1FFFF8FC
0FFFE0FC
07FFC07C
01FE0000
ENDCHAR
STARTCHAR 0170
ENCODING 368
SWIDTH 642 0
DWIDTH 50 0
BBX 36 69 7 -1
BITMAP
0000400600
0000F00780
0000FC0FC0
0001F80F80
0001F01F80
0003E03F00
0007E03E00
0007C07C00
000F807C00
000F00F800
001F01F000
003E01E000
000C00E000
0000000000
0000000000
0000000000
0000000000
FC000003F0
FC000003F0
FC000003F0
FC000003F0
FC000003F0
FC000003F0
FC000003F0
FC000003F0
FC000003F0
FC000003F0
FC000003F0
FC000003F0
FC000003F0
FC000003F0
FC000003F0
FC000003F0
FC000003F0
FC000003F0
FC000003F0
FC000003F0
FC000003F0
FC000003F0
FC000003F0
FC000003F0
FC000003F0
FC000003F0
FC000003F0
FC000003F0
FC000003F0
FC000003F0
FC000003F0
FC000003F0
FC000003F0
FC000003F0
FE000003F0
FE000003F0
FE000003F0
FE000007F0
7E000007F0
7F000007E0
7F00000FE0
3F80000FE0
3F80001FC0
3FC0003FC0
1FF0007F80
0FF801FF80
0FFFFFFF00
07FFFFFE00
01FFFFFC00
00FFFFF000
003FFFC000
0007FE0000
ENDCHAR
STARTCHAR 0171
ENCODING 369
SWIDTH 540 0
DWIDTH 42 0
BBX 30 60 6 -1
BITMAP
00030030
0007C07C
0007E07C
000FC0FC
000F80F8
001F81F0
001F01F0
003F03E0
003E03E0
007C07C0
007C0780
00F80F80
00F00F00
00700F00
00000000
00000000
00000000
00000000
00000000
00000000
00000000
FC0000FC
FC0000FC
FC0000FC
FC0000FC
FC0000FC
FC0000FC
FC0000FC
FC0000FC
FC0000FC
FC0000FC
FC0000FC
FC0000FC
FC0000FC
FC0000FC
FC0000FC
FC0000FC
FC0000FC
FC0000FC
FC0000FC
FC0000FC
FC0000FC
FC0000FC
FC0000FC
FC0000FC
FC0000FC
FC0000FC
FE0000FC
FE0001FC
FE0003FC
FE0003FC
7F000FFC
7F001FFC
7FC03FFC
3FFFFEFC
3FFFFCFC
1FFFF8FC
0FFFE0FC
07FFC07C
01FE0000
ENDCHAR
STARTCHAR 0172
ENCODING 370
SWIDTH 642 0
DWIDTH 50 0
BBX 36 68 7 -17
BITMAP
FC000003F0
FC000003F0
FC000003F0
FC000003F0
FC000003F0
FC000003F0
FC000003F0
FC000003F0
FC000003F0
FC000003F0
FC000003F0
FC000003F0
FC000003F0
FC000003F0
FC000003F0
FC000003F0
FC000003F0
FC000003F0
FC000003F0
FC000003F0
FC000003F0
FC000003F0
FC000003F0
FC000003F0
FC000003F0
FC000003F0
FC000003F0
FC000003F0
FC000003F0
FC000003F0
FC000003F0
FC000003F0
FC000003F0
FC000003F0
FE000003F0
FE000003F0
FE000003F0
FE000007F0
7E000007F0
7F000007E0
7F00000FE0
3F80000FE0
3F80001FC0
3FC0003FC0
1FE0007F80
0FF801FF00
0FFFFFFF00
07FFFFFE00
01FFFFF800
00FFFFF000
003FFFC000
0007FF0000
00007E0000
0000F80000
0001F00000
0001E00000
0003E00000
0003C00000
0007C00000
0007C00000
0007C00000
0007C00000
0007E08000
0007FF8000
0003FFC000
0003FFC000
0001FF8000
00007E0000
ENDCHAR
STARTCHAR 0173
ENCODING 371
SWIDTH 540 0
DWIDTH 42 0
BBX 31 54 6 -16
BITMAP
FC0000FC
FC0000FC
FC0000FC
FC0000FC
FC0000FC
FC0000FC
FC0000FC
FC0000FC
FC0000FC
FC0000FC
FC0000FC
FC0000FC
FC0000FC
FC0000FC
FC0000FC
FC0000FC
FC0000FC
FC0000FC
FC0000FC
FC0000FC
FC0000FC
FC0000FC
FC0000FC
FC0000FC
FC0000FC
FC0000FC
FE0000FC
FE0001FC
FE0003FC
FE0003FC
7F000FFC
7F001FFC
7F803FFC
3FFFFEFC
3FFFFCFC
1FFFF8FC
0FFFE07C
07FFC07C
01FE00F8
000001E0
000003C0
00000780
00000F00
00001F00
00001E00
00001E00
00003E00
00003E00
00003F00
00001F8C
00001FFE
00000FFE
000007FE
000003F0
ENDCHAR
STARTCHAR 0174
ENCODING 372
SWIDTH 784 0
DWIDTH 61 0
BBX 57 65 2 0
BITMAP
0000007F00000000
000000FF80000000
000001FFC0000000
000003FFE0000000
000007E3F0000000
00000FC1F8000000
00001F80FC000000
00003F007E000000
00007E001F000000
000038000E000000
0000000004000000
0000000000000000
0000000000000000
0000000000000000
FE00003F00001F80
FE00007F00001F80
FE00007F00001F80
7E00007F80003F80
7E00007F80003F00
7F0000FF80003F00
7F0000FF80003F00
7F0000FFC0003F00
3F0000FFC0007E00
3F0001F7C0007E00
3F8001F7C0007E00
3F8001F7E0007E00
3F8001F7E0007E00
1F8003E3E000FC00
1F8003E3E000FC00
1F8003E3F000FC00
1FC003E3F000FC00
1FC007C1F000FC00
0FC007C1F001F800
0FC007C1F801F800
0FC007C1F801F800
0FE00FC1F801F800
07E00F80F801F800
07E00F80FC03F000
07E00F80FC03F000
07E01F80FC03F000
07F01F007C03F000
03F01F007E03F000
03F01F007E03E000
03F03F007E07E000
03F03E003E07E000
03F83E003F07E000
01F83E003F07E000
01F83E003F07C000
01F87C001F0FC000
01F87C001F8FC000
00F87C001F8FC000
00FC7C001F8F8000
00FCF8000F8F8000
00FCF8000F8F8000
00FCF8000FDF8000
007CF80007DF8000
007EF00007DF0000
007FF00007DF0000
007FF00007FF0000
007FF00003FF0000
003FE00003FF0000
003FE00003FE0000
003FE00003FE0000
003FE00001FE0000
003FC00001FE0000
ENDCHAR
STARTCHAR 0175
ENCODING 373
SWIDTH 720 0
DWIDTH 56 0
BBX 52 58 2 0
BITMAP
000001F8000000
000003FC000000
000007FE000000
00000FFF000000
00001FFF800000
00001F9F800000
00003F0FC00000
00007E07E00000
0000FC03F00000
0001F801F80000
0001F000F80000
0003E0007C0000
0001C000380000
00008000100000
00000000000000
00000000000000
00000000000000
00000000000000
00000000000000
00000000000000
FE0001F80003F0
FE0001FC0003F0
7E0003FC0007E0
7E0003FC0007E0
7F0003FC0007E0
7F0003FE0007E0
3F0007FE000FC0
3F0007FE000FC0
3F80079E000FC0
3F800F9F000F80
1F800F9F001F80
1F800F9F001F80
1FC00F1F801F80
0FC01F0F801F00
0FC01F0F803F00
0FC01F0F803F00
0FE01E0FC03F00
07E03E07C03E00
07E03E07C07E00
07E03E07C07E00
03F03C07E07E00
03F07C03E0FC00
03F07C03E0FC00
03F07C03F0FC00
01F87803F0F800
01F8F801F0F800
01F8F801F1F800
01F8F801F9F800
00F8F000F9F000
00FDF000F9F000
00FDF000F9F000
007DF000FFF000
007DE0007FE000
007FE0007FE000
007FE0007FE000
003FC0007FE000
003FC0003FC000
003FC0003FC000
ENDCHAR
STARTCHAR 0176
ENCODING 374
SWIDTH 475 0
DWIDTH 37 0
BBX 37 65 0 0
BITMAP
0001FC0000
0003FE0000
0007FF0000
000FFF8000
001F8FC000
003F07E000
007E03F000
00FC01F800
01F0007C00
00E0003800
0040001000
0000000000
0000000000
0000000000
FE000003F8
7F000003F0
7F000007F0
3F000007E0
3F80000FE0
1F80000FC0
1FC0001FC0
0FC0001F80
0FE0003F80
07E0003F00
07F0003F00
03F0007E00
03F8007E00
01F800FC00
01FC00FC00
00FC01F800
00FC01F800
00FE03F800
007E03F000
007F03F000
003F07E000
003F87E000
001F8FC000
001FCFC000
000FDF8000
000FDF8000
0007FF0000
0007FF0000
0003FE0000
0003FE0000
0001FC0000
0001FC0000
0001FC0000
0001FC0000
0001FC0000
0001FC0000
0001FC0000
0001FC0000
0001FC0000
0001FC0000
0001FC0000
0001FC0000
0001FC0000
0001FC0000
0001FC0000
0001FC0000
0001FC0000
0001FC0000
0001FC0000
0001FC0000
0001FC0000
ENDCHAR
STARTCHAR 0177
ENCODING 375
SWIDTH 462 0
DWIDTH 36 0
BBX 34 74 1 -16
BITMAP
0001F80000
0003FC0000
0007FE0000
000FFF0000
001FFF0000
001F9F8000
003F0FC000
007E07E000
00FC03F000
01F801F800
03F000F800
03E0007C00
01C0003800
0080000000
0000000000
0000000000
0000000000
0000000000
0000000000
0000000000
FE00000FC0
7E00000FC0
7E00001F80
7F00001F80
3F00001F80
3F80003F00
1F80003F00
1F80003F00
1FC0007E00
0FC0007E00
0FC0007E00
07E000FC00
07E000FC00
07F000FC00
03F001F800
03F001F800
01F801F800
01F803F000
01F803F000
00FC03F000
00FC03E000
007C07E000
007E07E000
007E07C000
003F0FC000
003F0F8000
001F0F8000
001F9F8000
001F9F0000
000F9F0000
000FDF0000
0007FE0000
0007FE0000
0007FE0000
0003FC0000
0003FC0000
0001FC0000
0001F80000
0001F80000
0001F80000
0003F00000
0003F00000
0003F00000
0007E00000
0007E00000
000FC00000
001FC00000
003F800000
11FF000000
3FFF000000
3FFE000000
3FFC000000
3FF0000000
3FC0000000
ENDCHAR
STARTCHAR 0178
ENCODING 376
SWIDTH 475 0
DWIDTH 37 0
BBX 37 63 0 0
BITMAP
0078007800
01FC01FC00
01FC01FC00
01FC01FC00
01FC01FC00
01FC01FC00
00F800F800
0020002000
0000000000
0000000000
0000000000
0000000000
FE000003F8
7F000003F0
7F000007F0
3F000007E0
3F80000FE0
1F80000FC0
1FC0001FC0
0FC0001F80
0FE0003F80
07E0003F00
07F0003F00
03F0007E00
03F8007E00
01F800FC00
01FC00FC00
00FC01F800
00FC01F800
00FE03F800
007E03F000
007F03F000
003F07E000
003F87E000
001F8FC000
001FCFC000
000FDF8000
000FDF8000
0007FF0000
0007FF0000
0003FE0000
0003FE0000
0001FC0000
0001FC0000
0001FC0000
0001FC0000
0001FC0000
0001FC0000
0001FC0000
0001FC0000
0001FC0000
0001FC0000
0001FC0000
0001FC0000
0001FC0000
0001FC0000
0001FC0000
0001FC0000
0001FC0000
0001FC0000
0001FC0000
0001FC0000
0001FC0000
ENDCHAR
STARTCHAR 0179
ENCODING 377
SWIDTH 540 0
DWIDTH 42 0
BBX 36 67 3 0
BITMAP
0000004000
000000E000
000003F000
000007F800
00000FF800
00001FE000
00003FC000
00007F8000
0000FE0000
0001FC0000
0001F80000
0000E00000
0000400000
0000000000
0000000000
0000000000
1FFFFFFFE0
1FFFFFFFE0
1FFFFFFFE0
1FFFFFFFE0
1FFFFFFFE0
0000001FC0
0000001FC0
0000003F80
0000007F00
0000007F00
000000FE00
000001FC00
000001FC00
000003F800
000007F800
000007F000
00000FE000
00000FE000
00001FC000
00003F8000
00003F8000
00007F0000
0000FE0000
0000FE0000
0001FC0000
0003F80000
0003F80000
0007F00000
000FE00000
000FE00000
001FC00000
001FC00000
003F800000
007F000000
007F000000
00FE000000
01FC000000
01FC000000
03F8000000
07F0000000
07F0000000
0FE0000000
1FC0000000
1FC0000000
3F80000000
3FFFFFFFF0
7FFFFFFFF0
FFFFFFFFF0
FFFFFFFFF0
FFFFFFFFF0
FFFFFFFFF0
ENDCHAR
STARTCHAR 017A
ENCODING 378
SWIDTH 424 0
DWIDTH 33 0
BBX 29 61 2 0
BITMAP
00000200
00000700
00000F80
00000FC0
00001FE0
00003FC0
00007F80
0000FF00
0001FE00
0003FC00
0003F800
0007F000
000FE000
000FC000
00070000
00020000
00000000
00000000
00000000
00000000
00000000
00000000
00000000
1FFFFFF0
1FFFFFF0
1FFFFFF0
1FFFFFF0
1FFFFFF0
00000FE0
00001FC0
00001FC0
00003F80
00007F00
00007F00
0000FE00
0001FC00
0001FC00
0003F800
0007F000
0007F000
000FE000
001FC000
001FC000
003F8000
007F0000
007E0000
00FE0000
01FC0000
01F80000
03F80000
07F00000
07E00000
0FE00000
1FC00000
3F800000
3F800000
7FFFFFF8
FFFFFFF8
FFFFFFF8
FFFFFFF8
FFFFFFF8
ENDCHAR
STARTCHAR 017B
ENCODING 379
SWIDTH 540 0
DWIDTH 42 0
BBX 36 64 3 0
BITMAP
0000780000
0001FC0000
0001FE0000
0003FE0000
0003FE0000
0001FE0000
0001FE0000
0000FC0000
0000000000
0000000000
0000000000
0000000000
0000000000
1FFFFFFFE0
1FFFFFFFE0
1FFFFFFFE0
1FFFFFFFE0
1FFFFFFFE0
0000001FC0
0000001FC0
0000003F80
0000007F00
0000007F00
000000FE00
000001FC00
000001FC00
000003F800
000007F800
000007F000
00000FE000
00000FE000
00001FC000
00003F8000
00003F8000
00007F0000
0000FE0000
0000FE0000
0001FC0000
0003F80000
0003F80000
0007F00000
000FE00000
000FE00000
001FC00000
001FC00000
003F800000
007F000000
007F000000
00FE000000
01FC000000
01FC000000
03F8000000
07F0000000
07F0000000
0FE0000000
1FC0000000
1FC0000000
3F80000000
3FFFFFFFF0
7FFFFFFFF0
FFFFFFFFF0
FFFFFFFFF0
FFFFFFFFF0
FFFFFFFFF0
ENDCHAR
STARTCHAR 017C
ENCODING 380
SWIDTH 424 0
DWIDTH 33 0
BBX 29 54 2 0
BITMAP
0003C000
0007E000
000FF000
000FF000
000FF000
000FF000
000FE000
0007C000
00000000
00000000
00000000
00000000
00000000
00000000
00000000
00000000
1FFFFFF0
1FFFFFF0
1FFFFFF0
1FFFFFF0
1FFFFFF0
00000FE0
00001FC0
00001FC0
00003F80
00007F00
00007F00
0000FE00
0001FC00
0001FC00
0003F800
0007F000
0007F000
000FE000
001FC000
001FC000
003F8000
007F0000
007E0000
00FE0000
01FC0000
01F80000
03F80000
07F00000
07E00000
0FE00000
1FC00000
3F800000
3F800000
7FFFFFF8
FFFFFFF8
FFFFFFF8
FFFFFFF8
FFFFFFF8
ENDCHAR
STARTCHAR 017D
ENCODING 381
SWIDTH 540 0
DWIDTH 42 0
BBX 36 66 3 0
BITMAP
0020001000
00F0003800
00F8007C00
007C00F800
007E03F000
003F07E000
001FCFC000
000FFF8000
0007FF8000
0003FF0000
0001FE0000
0000000000
0000000000
0000000000
0000000000
1FFFFFFFE0
1FFFFFFFE0
1FFFFFFFE0
1FFFFFFFE0
1FFFFFFFE0
0000001FC0
0000001FC0
0000003F80
0000007F00
0000007F00
000000FE00
000001FC00
000001FC00
000003F800
000007F800
000007F000
00000FE000
00000FE000
00001FC000
00003F8000
00003F8000
00007F0000
0000FE0000
0000FE0000
0001FC0000
0003F80000
0003F80000
0007F00000
000FE00000
000FE00000
001FC00000
001FC00000
003F800000
007F000000
007F000000
00FE000000
01FC000000
01FC000000
03F8000000
07F0000000
07F0000000
0FE0000000
1FC0000000
1FC0000000
3F80000000
3FFFFFFFF0
7FFFFFFFF0
FFFFFFFFF0
FFFFFFFFF0
FFFFFFFFF0
FFFFFFFFF0
ENDCHAR
STARTCHAR 017E
ENCODING 382
SWIDTH 424 0
DWIDTH 33 0
BBX 29 58 2 0
BITMAP
060000C0
0F8001E0
0FC003E0
07E007E0
03F00FC0
01F81F80
01FC3F00
00FE7E00
007FFE00
003FFC00
001FF800
001FF000
000FE000
00000000
00000000
00000000
00000000
00000000
00000000
00000000
1FFFFFF0
1FFFFFF0
1FFFFFF0
1FFFFFF0
1FFFFFF0
00000FE0
00001FC0
00001FC0
00003F80
00007F00
00007F00
0000FE00
0001FC00
0001FC00
0003F800
0007F000
0007F000
000FE000
001FC000
001FC000
003F8000
007F0000
007E0000
00FE0000
01FC0000
01F80000
03F80000
07F00000
07E00000
0FE00000
1FC00000
3F800000
3F800000
7FFFFFF8
FFFFFFF8
FFFFFFF8
FFFFFFF8
FFFFFFF8
ENDCHAR
STARTCHAR 0180
ENCODING 384
SWIDTH 540 0
DWIDTH 42 0
BBX 38 56 1 -1
BITMAP
07F0000000
07F0000000
07F0000000
07F0000000
07F0000000
07F0000000
07F0000000
3FFFFFC000
FFFFFFC000
FFFFFFC000
FFFFFFC000
07F0000000
07F0000000
07F0000000
07F0000000
07F0000000
07F0000000
07F0000000
07F0000000
07F0000000
07F01FF800
07F07FFE00
07F1FFFF80
07F7FFFFC0
07FFFFFFE0
07FFE07FE0
07FF801FF0
07FE0007F8
07FC0003F8
07F00003F8
07F00001FC
07F00001FC
07F00001FC
07F00000FC
07F00000FC
07F00000FC
07F00000FC
07F00000FC
07F00000FC
07F00000FC
07F00000FC
07F00001FC
07F00001FC
07F00001FC
07F00003F8
07F00003F8
07F00007F8
07F8000FF0
07FC001FE0
07FF003FE0
07FFF3FFC0
07EFFFFF80
07E7FFFF00
07E3FFFE00
07E0FFF800
00001FC000
ENDCHAR
STARTCHAR 018F
ENCODING 399
SWIDTH 655 0
DWIDTH 51 0
BBX 42 53 5 -1
BITMAP
0000FFC00000
000FFFF80000
003FFFFE0000
00FFFFFF8000
03FFFFFFC000
07FFE3FFE000
07FC003FF000
03F0000FF800
03C00003FC00
01800001FC00
00000000FE00
00000000FE00
000000007F00
000000007F00
000000003F80
000000003F80
000000003F80
000000001F80
000000001FC0
000000001FC0
000000001FC0
000000000FC0
000000000FC0
000000000FC0
000000000FC0
FFFFFFFFFFC0
FFFFFFFFFFC0
FFFFFFFFFFC0
FFFFFFFFFFC0
FFFFFFFFFFC0
FC0000000FC0
FC0000001FC0
FC0000001FC0
FE0000001FC0
FE0000001F80
FE0000001F80
7E0000003F80
7E0000003F80
7F0000003F00
3F0000007F00
3F8000007F00
3F800000FE00
1FC00001FE00
1FE00001FC00
0FF00003F800
07F8000FF800
07FE003FF000
03FFE3FFE000
01FFFFFFC000
007FFFFF0000
003FFFFE0000
000FFFF80000
0000FF800000
ENDCHAR
ENDFONT
